{
.appVersion = "1349";
classes = (
{
automatic = 1;

glyphs = (
{
color = 4;
glyphname = A;
lastChange = "2019-11-05 07:05:31 +0000";
layers = (
{
anchors = (
{
name = bottom;
position = "{234, -3}";
},
{
name = ogonek;
position = "{457, 0}";
},
{
name = top;
position = "{405, 803}";
}
);
layerId = "7C079D0C-96CD-4BD8-8800-0621C7635A78";
paths = (
{
closed = 1;
nodes = (
"37 0 LINE",
"389 725 LINE",
"433 0 LINE",
"484 0 LINE",
"432 800 LINE",
"376 800 LINE",
"-16 0 LINE"
);
},
{
closed = 1;
nodes = (
"440 216 LINE",
"438 262 LINE",
"142 262 LINE",
"120 216 LINE"
);
}
);
width = 600;
},
{
anchors = (
{
name = bottom;
position = "{234, -3}";
},
{
name = ogonek;
position = "{453, 0}";
},
{
name = top;
position = "{405, 803}";
}
);
layerId = "291433DC-531A-45CC-B814-57D397372F12";
paths = (
{
closed = 1;
nodes = (
"62 0 LINE",
"370 631 LINE",
"408 0 LINE",
"509 0 LINE",
"456 800 LINE",
"350 800 LINE",
"-43 0 LINE"
);
},
{
closed = 1;
nodes = (
"466 193 LINE",
"462 285 LINE",
"126 285 LINE",
"82 193 LINE"
);
}
);
width = 600;
}
);
unicode = 0041;
},
{
color = 4;
glyphname = AE;
lastChange = "2019-11-05 07:05:31 +0000";
layers = (
{
anchors = (
{
name = bottom;
position = "{234, 0}";
},
{
name = top;
position = "{404, 800}";
}
);
layerId = "7C079D0C-96CD-4BD8-8800-0621C7635A78";
paths = (
{
closed = 1;
nodes = (
"-6 0 LINE",
"357 754 LINE",
"405 754 LINE",
"244 0 LINE",
"521 0 LINE",
"531 46 LINE",
"304 46 LINE",
"370 354 LINE",
"517 354 LINE",
"526 400 LINE",
"379 400 LINE",
"455 754 LINE",
"682 754 LINE",
"691 800 LINE",
"327 800 LINE",
"-59 0 LINE"
);
},
{
closed = 1;
nodes = (
"328 262 LINE",
"338 308 LINE",
"118 308 LINE",
"97 262 LINE"
);
}
);
width = 600;
},
{
anchors = (
{
name = bottom;
position = "{234, 0}";
},
{
name = top;
position = "{404, 800}";
}
);
layerId = "291433DC-531A-45CC-B814-57D397372F12";
paths = (
{
closed = 1;
nodes = (
"39 0 LINE",
"368 708 LINE",
"370 708 LINE",
"219 0 LINE",
"526 0 LINE",
"546 92 LINE",
"339 92 LINE",
"390 331 LINE",
"527 331 LINE",
"546 423 LINE",
"409 423 LINE",
"470 708 LINE",
"677 708 LINE",
"696 800 LINE",
"306 800 LINE",
"-64 0 LINE"
);
},
{
closed = 1;
nodes = (
"348 239 LINE",
"368 331 LINE",
"128 331 LINE",
"84 239 LINE"
);
}
);
width = 600;
}
);
unicode = 00C6;
},
{
color = 4;
glyphname = B;
lastChange = "2019-11-05 07:05:31 +0000";
layers = (
{
anchors = (
{
name = bottom;
position = "{234, 0}";
},
{
name = top;
position = "{404, 800}";
}
);
layerId = "7C079D0C-96CD-4BD8-8800-0621C7635A78";
paths = (
{
closed = 1;
nodes = (
"245 0 LINE SMOOTH",
"408 0 OFFCURVE",
"469 52 OFFCURVE",
"505 220 CURVE SMOOTH",
"533 350 OFFCURVE",
"511 400 OFFCURVE",
"422 427 CURVE",
"508 456 OFFCURVE",
"539 497 OFFCURVE",
"560 598 CURVE SMOOTH",
"593 750 OFFCURVE",
"549 800 OFFCURVE",
"386 800 CURVE SMOOTH",
"198 800 LINE",
"28 0 LINE"
);
},
{
closed = 1;
nodes = (
"163 400 LINE",
"330 400 LINE SMOOTH",
"455 400 OFFCURVE",
"485 360 OFFCURVE",
"457 228 CURVE SMOOTH",
"428 91 OFFCURVE",
"376 46 OFFCURVE",
"251 46 CURVE SMOOTH",
"88 46 LINE"
);
},
{
closed = 1;
nodes = (
"239 754 LINE",
"381 754 LINE SMOOTH",
"506 754 OFFCURVE",
"536 720 OFFCURVE",
"512 606 CURVE SMOOTH",
"486 485 OFFCURVE",
"436 446 OFFCURVE",
"311 446 CURVE SMOOTH",
"173 446 LINE"
);
}
);
width = 600;
},
{
anchors = (
{
name = bottom;
position = "{234, 0}";
},
{
name = top;
position = "{404, 800}";
}
);
layerId = "291433DC-531A-45CC-B814-57D397372F12";
paths = (
{
closed = 1;
nodes = (
"248 0 LINE SMOOTH",
"426 0 OFFCURVE",
"496 60 OFFCURVE",
"532 227 CURVE SMOOTH",
"556 344 OFFCURVE",
"539 395 OFFCURVE",
"481 427 CURVE",
"542 462 OFFCURVE",
"564 499 OFFCURVE",
"582 583 CURVE SMOOTH",
"615 738 OFFCURVE",
"561 800 OFFCURVE",
"384 800 CURVE SMOOTH",
"173 800 LINE",
"3 0 LINE"
);
},
{
closed = 1;
nodes = (
"183 377 LINE",
"328 377 LINE SMOOTH",
"438 377 OFFCURVE",
"460 361 OFFCURVE",
"435 243 CURVE SMOOTH",
"410 128 OFFCURVE",
"369 92 OFFCURVE",
"259 92 CURVE SMOOTH",
"123 92 LINE"
);
},
{
closed = 1;
nodes = (
"254 708 LINE",
"373 708 LINE SMOOTH",
"485 708 OFFCURVE",
"504 685 OFFCURVE",
"486 599 CURVE SMOOTH",
"462 489 OFFCURVE",
"425 469 OFFCURVE",
"314 469 CURVE SMOOTH",
"203 469 LINE"
);
}
);
width = 600;
}
);
unicode = 0042;
},
{
color = 4;
glyphname = C;
lastChange = "2019-11-05 07:05:31 +0000";
layers = (
{
anchors = (
{
name = bottom;
position = "{234, 0}";
},
{
name = top;
position = "{404, 800}";
}
);
layerId = "7C079D0C-96CD-4BD8-8800-0621C7635A78";
paths = (
{
closed = 1;
nodes = (
"369 -14 OFFCURVE",
"426 22 OFFCURVE",
"491 144 CURVE",
"445 164 LINE",
"391 65 OFFCURVE",
"345 32 OFFCURVE",
"252 32 CURVE SMOOTH",
"109 32 OFFCURVE",
"84 119 OFFCURVE",
"143 397 CURVE SMOOTH",
"202 678 OFFCURVE",
"270 768 OFFCURVE",
"417 768 CURVE SMOOTH",
"506 768 OFFCURVE",
"536 738 OFFCURVE",
"547 637 CURVE",
"597 650 LINE",
"584 773 OFFCURVE",
"540 814 OFFCURVE",
"418 814 CURVE SMOOTH",
"237 814 OFFCURVE",
"161 717 OFFCURVE",
"94 405 CURVE SMOOTH",
"27 88 OFFCURVE",
"65 -14 OFFCURVE",
"251 -14 CURVE SMOOTH"
);
}
);
width = 600;
},
{
anchors = (
{
name = bottom;
position = "{234, 0}";
},
{
name = top;
position = "{404, 800}";
}
);
layerId = "291433DC-531A-45CC-B814-57D397372F12";
paths = (
{
closed = 1;
nodes = (
"390 -14 OFFCURVE",
"455 32 OFFCURVE",
"529 179 CURVE",
"439 219 LINE",
"383 109 OFFCURVE",
"347 78 OFFCURVE",
"258 78 CURVE SMOOTH",
"136 78 OFFCURVE",
"115 151 OFFCURVE",
"167 393 CURVE SMOOTH",
"220 642 OFFCURVE",
"281 722 OFFCURVE",
"411 722 CURVE SMOOTH",
"492 722 OFFCURVE",
"511 698 OFFCURVE",
"520 586 CURVE",
"618 611 LINE",
"608 759 OFFCURVE",
"556 814 OFFCURVE",
"414 814 CURVE SMOOTH",
"218 814 OFFCURVE",
"134 707 OFFCURVE",
"70 409 CURVE SMOOTH",
"5 102 OFFCURVE",
"51 -14 OFFCURVE",
"255 -14 CURVE SMOOTH"
);
}
);
width = 600;
}
);
unicode = 0043;
},
{
color = 4;
glyphname = D;
lastChange = "2019-11-05 07:05:31 +0000";
layers = (
{
anchors = (
{
name = bottom;
position = "{234, 0}";
},
{
name = center;
position = "{319, 400}";
},
{
name = top;
position = "{404, 800}";
}
);
layerId = "7C079D0C-96CD-4BD8-8800-0621C7635A78";
paths = (
{
closed = 1;
nodes = (
"249 0 LINE SMOOTH",
"422 0 OFFCURVE",
"495 94 OFFCURVE",
"560 396 CURVE SMOOTH",
"625 702 OFFCURVE",
"588 800 OFFCURVE",
"415 800 CURVE SMOOTH",
"189 800 LINE",
"19 0 LINE"
);
},
{
closed = 1;
nodes = (
"236 786 LINE",
"196 754 LINE",
"410 754 LINE SMOOTH",
"545 754 OFFCURVE",
"568 671 OFFCURVE",
"511 404 CURVE SMOOTH",
"454 133 OFFCURVE",
"390 46 OFFCURVE",
"255 46 CURVE SMOOTH",
"47 46 LINE",
"73 14 LINE"
);
}
);
width = 600;
},
{
anchors = (
{
name = bottom;
position = "{234, 0}";
},
{
name = center;
position = "{319, 400}";
},
{
name = top;
position = "{404, 800}";
}
);
layerId = "291433DC-531A-45CC-B814-57D397372F12";
paths = (
{
closed = 1;
nodes = (
"252 0 LINE SMOOTH",
"442 0 OFFCURVE",
"522 104 OFFCURVE",
"584 392 CURVE SMOOTH",
"647 688 OFFCURVE",
"603 800 OFFCURVE",
"413 800 CURVE SMOOTH",
"164 800 LINE",
"-6 0 LINE"
);
},
{
closed = 1;
nodes = (
"258 779 LINE",
"165 708 LINE",
"402 708 LINE SMOOTH",
"518 708 OFFCURVE",
"536 639 OFFCURVE",
"487 408 CURVE SMOOTH",
"436 169 OFFCURVE",
"379 92 OFFCURVE",
"263 92 CURVE SMOOTH",
"37 92 LINE",
"100 21 LINE"
);
}
);
width = 600;
}
);
unicode = 0044;
},
{
color = 4;
glyphname = Eth;
lastChange = "2019-11-05 07:05:31 +0000";
layers = (
{
layerId = "7C079D0C-96CD-4BD8-8800-0621C7635A78";
paths = (
{
closed = 1;
nodes = (
"252 0 LINE SMOOTH",
"425 0 OFFCURVE",
"498 94 OFFCURVE",
"563 396 CURVE SMOOTH",
"628 702 OFFCURVE",
"591 800 OFFCURVE",
"418 800 CURVE SMOOTH",
"192 800 LINE",
"22 0 LINE"
);
},
{
closed = 1;
nodes = (
"302 400 LINE",
"311 446 LINE",
"65 446 LINE",
"55 400 LINE"
);
},
{
closed = 1;
nodes = (
"239 786 LINE",
"199 754 LINE",
"413 754 LINE SMOOTH",
"548 754 OFFCURVE",
"571 671 OFFCURVE",
"514 404 CURVE SMOOTH",
"457 133 OFFCURVE",
"393 46 OFFCURVE",
"258 46 CURVE SMOOTH",
"50 46 LINE",
"76 14 LINE"
);
}
);
width = 600;
},
{
layerId = "291433DC-531A-45CC-B814-57D397372F12";
paths = (
{
closed = 1;
nodes = (
"255 0 LINE SMOOTH",
"445 0 OFFCURVE",
"525 104 OFFCURVE",
"587 392 CURVE SMOOTH",
"650 688 OFFCURVE",
"606 800 OFFCURVE",
"416 800 CURVE SMOOTH",
"167 800 LINE",
"-3 0 LINE"
);
},
{
closed = 1;
nodes = (
"323 377 LINE",
"341 469 LINE",
"45 469 LINE",
"25 377 LINE"
);
},
{
closed = 1;
nodes = (
"261 779 LINE",
"168 708 LINE",
"405 708 LINE SMOOTH",
"521 708 OFFCURVE",
"539 639 OFFCURVE",
"490 408 CURVE SMOOTH",
"439 169 OFFCURVE",
"382 92 OFFCURVE",
"266 92 CURVE SMOOTH",
"40 92 LINE",
"103 21 LINE"
);
}
);
width = 600;
}
);
unicode = 00D0;
},
{
color = 4;
glyphname = E;
lastChange = "2019-11-05 07:05:31 +0000";
layers = (
{
anchors = (
{
name = bottom;
position = "{248, -3}";
},
{
name = ogonek;
position = "{434, 0}";
},
{
name = top;
position = "{419, 803}";
},
{
name = topleft;
position = "{114, 803}";
}
);
layerId = "7C079D0C-96CD-4BD8-8800-0621C7635A78";
paths = (
{
closed = 1;
nodes = (
"460 0 LINE",
"470 46 LINE",
"76 46 LINE",
"92 25 LINE",
"175 421 LINE",
"140 400 LINE",
"411 400 LINE",
"421 446 LINE",
"151 446 LINE",
"177 425 LINE",
"252 785 LINE",
"215 754 LINE",
"621 754 LINE",
"630 800 LINE",
"206 800 LINE",
"36 0 LINE"
);
}
);
width = 600;
},
{
anchors = (
{
name = bottom;
position = "{248, -3}";
},
{
name = ogonek;
position = "{428, 0}";
},
{
name = top;
position = "{419, 803}";
},
{
name = topleft;
position = "{114, 803}";
}
);
layerId = "291433DC-531A-45CC-B814-57D397372F12";
paths = (
{
closed = 1;
nodes = (
"485 0 LINE",
"505 92 LINE",
"59 92 LINE",
"117 19 LINE",
"205 450 LINE",
"117 377 LINE",
"431 377 LINE",
"451 469 LINE",
"139 469 LINE",
"197 396 LINE",
"276 781 LINE",
"187 708 LINE",
"636 708 LINE",
"655 800 LINE",
"181 800 LINE",
"11 0 LINE"
);
}
);
width = 600;
}
);
unicode = 0045;
},
{
color = 4;
glyphname = F;
lastChange = "2019-11-05 07:05:31 +0000";
layers = (
{
anchors = (
{
name = bottom;
position = "{234, 0}";
},
{
name = top;
position = "{404, 800}";
}
);
layerId = "7C079D0C-96CD-4BD8-8800-0621C7635A78";
paths = (
{
closed = 1;
nodes = (
"87 0 LINE",
"168 385 LINE",
"131 354 LINE",
"403 354 LINE",
"412 400 LINE",
"142 400 LINE",
"167 369 LINE",
"253 785 LINE",
"216 754 LINE",
"622 754 LINE",
"631 800 LINE",
"207 800 LINE",
"37 0 LINE"
);
}
);
width = 600;
},
{
anchors = (
{
name = bottom;
position = "{234, 0}";
},
{
name = top;
position = "{404, 800}";
}
);
layerId = "291433DC-531A-45CC-B814-57D397372F12";
paths = (
{
closed = 1;
nodes = (
"112 0 LINE",
"197 404 LINE",
"108 331 LINE",
"423 331 LINE",
"442 423 LINE",
"131 423 LINE",
"188 350 LINE",
"277 781 LINE",
"188 708 LINE",
"637 708 LINE",
"656 800 LINE",
"182 800 LINE",
"12 0 LINE"
);
}
);
width = 600;
}
);
unicode = 0046;
},
{
color = 4;
glyphname = G;
lastChange = "2019-11-05 07:05:31 +0000";
layers = (
{
anchors = (
{
name = bottom;
position = "{234, 0}";
},
{
name = top;
position = "{404, 800}";
}
);
layerId = "7C079D0C-96CD-4BD8-8800-0621C7635A78";
paths = (
{
closed = 1;
nodes = (
"374 -14 OFFCURVE",
"433 23 OFFCURVE",
"499 146 CURVE",
"552 400 LINE",
"328 400 LINE",
"319 354 LINE",
"493 354 LINE",
"450 157 LINE",
"397 64 OFFCURVE",
"349 32 OFFCURVE",
"256 32 CURVE SMOOTH",
"106 32 OFFCURVE",
"78 118 OFFCURVE",
"138 396 CURVE SMOOTH",
"197 678 OFFCURVE",
"267 768 OFFCURVE",
"421 768 CURVE SMOOTH",
"520 768 OFFCURVE",
"553 735 OFFCURVE",
"560 625 CURVE",
"608 633 LINE",
"599 769 OFFCURVE",
"554 814 OFFCURVE",
"422 814 CURVE SMOOTH",
"234 814 OFFCURVE",
"156 717 OFFCURVE",
"89 404 CURVE SMOOTH",
"22 87 OFFCURVE",
"62 -14 OFFCURVE",
"255 -14 CURVE SMOOTH"
);
}
);
width = 600;
},
{
anchors = (
{
name = bottom;
position = "{234, 0}";
},
{
name = top;
position = "{404, 800}";
}
);
layerId = "291433DC-531A-45CC-B814-57D397372F12";
paths = (
{
closed = 1;
nodes = (
"392 -14 OFFCURVE",
"454 27 OFFCURVE",
"529 168 CURVE",
"582 423 LINE",
"308 423 LINE",
"289 331 LINE",
"463 331 LINE",
"431 190 LINE",
"385 108 OFFCURVE",
"343 78 OFFCURVE",
"262 78 CURVE SMOOTH",
"133 78 OFFCURVE",
"110 151 OFFCURVE",
"162 392 CURVE SMOOTH",
"215 641 OFFCURVE",
"278 722 OFFCURVE",
"415 722 CURVE SMOOTH",
"500 722 OFFCURVE",
"527 689 OFFCURVE",
"531 572 CURVE",
"629 588 LINE",
"622 757 OFFCURVE",
"571 814 OFFCURVE",
"418 814 CURVE SMOOTH",
"213 814 OFFCURVE",
"131 719 OFFCURVE",
"65 408 CURVE SMOOTH",
"-3 89 OFFCURVE",
"46 -14 OFFCURVE",
"259 -14 CURVE SMOOTH"
);
}
);
width = 600;
}
);
unicode = 0047;
},
{
color = 4;
glyphname = H;
lastChange = "2019-11-05 07:05:31 +0000";
layers = (
{
anchors = (
{
name = bottom;
position = "{234, 0}";
},
{
name = center;
position = "{319, 400}";
},
{
name = top;
position = "{404, 800}";
},
{
name = topleft;
position = "{124, 800}";
}
);
background = {
paths = (
{
closed = 0;
nodes = (
"501 0 LINE",
"501 806 LINE"
);
},
{
closed = 0;
nodes = (
"150 0 LINE",
"150 806 LINE"
);
},
{
closed = 0;
nodes = (
"501 431 LINE",
"150 431 LINE"
);
}
);
};
layerId = "7C079D0C-96CD-4BD8-8800-0621C7635A78";
paths = (
{
closed = 1;
nodes = (
"450 0 LINE",
"620 800 LINE",
"570 800 LINE",
"400 0 LINE"
);
},
{
closed = 1;
nodes = (
"68 0 LINE",
"238 800 LINE",
"188 800 LINE",
"18 0 LINE"
);
},
{
closed = 1;
nodes = (
"506 400 LINE",
"516 446 LINE",
"142 446 LINE",
"132 400 LINE"
);
}
);
width = 600;
},
{
anchors = (
{
name = bottom;
position = "{234, 0}";
},
{
name = center;
position = "{319, 400}";
},
{
name = top;
position = "{404, 800}";
},
{
name = topleft;
position = "{124, 800}";
}
);
background = {
paths = (
{
closed = 0;
nodes = (
"501 0 LINE",
"501 806 LINE"
);
},
{
closed = 0;
nodes = (
"150 0 LINE",
"150 806 LINE"
);
},
{
closed = 0;
nodes = (
"501 431 LINE",
"150 431 LINE"
);
}
);
};
layerId = "291433DC-531A-45CC-B814-57D397372F12";
paths = (
{
closed = 1;
nodes = (
"475 0 LINE",
"645 800 LINE",
"545 800 LINE",
"375 0 LINE"
);
},
{
closed = 1;
nodes = (
"93 0 LINE",
"263 800 LINE",
"163 800 LINE",
"-7 0 LINE"
);
},
{
closed = 1;
nodes = (
"526 377 LINE",
"546 469 LINE",
"122 469 LINE",
"102 377 LINE"
);
}
);
width = 600;
}
);
unicode = 0048;
},
{
color = 4;
glyphname = Hbar;
lastChange = "2019-11-05 07:05:31 +0000";
layers = (
{
components = (
{
name = H;
}
);
layerId = "7C079D0C-96CD-4BD8-8800-0621C7635A78";
paths = (
{
closed = 1;
nodes = (
"622 552 LINE",
"631 598 LINE",
"91 598 LINE",
"82 552 LINE"
);
}
);
width = 600;
},
{
components = (
{
name = H;
}
);
layerId = "291433DC-531A-45CC-B814-57D397372F12";
paths = (
{
closed = 1;
nodes = (
"637 552 LINE",
"656 644 LINE",
"86 644 LINE",
"67 552 LINE"
);
}
);
width = 600;
}
);
unicode = 0126;
},
{
color = 4;
glyphname = I;
lastChange = "2019-11-05 07:05:31 +0000";
layers = (
{
anchors = (
{
name = bottom;
position = "{234, -3}";
},
{
name = ogonek;
position = "{276, 0}";
},
{
name = top;
position = "{405, 803}";
},
{
name = topleft;
position = "{100, 803}";
}
);
layerId = "7C079D0C-96CD-4BD8-8800-0621C7635A78";
paths = (
{
closed = 1;
nodes = (
"259 0 LINE",
"429 800 LINE",
"379 800 LINE",
"209 0 LINE"
);
},
{
closed = 1;
nodes = (
"421 0 LINE",
"431 46 LINE",
"57 46 LINE",
"47 0 LINE"
);
},
{
closed = 1;
nodes = (
"582 754 LINE",
"591 800 LINE",
"217 800 LINE",
"208 754 LINE"
);
}
);
width = 600;
},
{
anchors = (
{
name = bottom;
position = "{234, -3}";
},
{
name = ogonek;
position = "{256, 0}";
},
{
name = top;
position = "{405, 803}";
},
{
name = topleft;
position = "{100, 803}";
}
);
layerId = "291433DC-531A-45CC-B814-57D397372F12";
paths = (
{
closed = 1;
nodes = (
"284 0 LINE",
"454 800 LINE",
"354 800 LINE",
"184 0 LINE"
);
},
{
closed = 1;
nodes = (
"446 0 LINE",
"466 92 LINE",
"42 92 LINE",
"22 0 LINE"
);
},
{
closed = 1;
nodes = (
"597 708 LINE",
"616 800 LINE",
"192 800 LINE",
"173 708 LINE"
);
}
);
width = 600;
}
);
unicode = 0049;
},
{
color = 4;
glyphname = J;
lastChange = "2019-11-05 07:05:31 +0000";
layers = (
{
anchors = (
{
name = bottom;
position = "{234, 0}";
},
{
name = top;
position = "{520, 800}";
}
);
layerId = "7C079D0C-96CD-4BD8-8800-0621C7635A78";
paths = (
{
closed = 1;
nodes = (
"379 -14 OFFCURVE",
"453 71 OFFCURVE",
"512 346 CURVE SMOOTH",
"608 800 LINE",
"427 800 LINE",
"418 754 LINE",
"549 754 LINE",
"463 350 LINE SMOOTH",
"412 110 OFFCURVE",
"347 32 OFFCURVE",
"201 32 CURVE SMOOTH",
"110 32 OFFCURVE",
"78 60 OFFCURVE",
"69 156 CURVE",
"21 147 LINE",
"33 26 OFFCURVE",
"76 -14 OFFCURVE",
"200 -14 CURVE SMOOTH"
);
}
);
width = 600;
},
{
anchors = (
{
name = bottom;
position = "{234, 0}";
},
{
name = top;
position = "{525, 800}";
}
);
layerId = "291433DC-531A-45CC-B814-57D397372F12";
paths = (
{
closed = 1;
nodes = (
"399 -14 OFFCURVE",
"481 81 OFFCURVE",
"541 367 CURVE SMOOTH",
"633 800 LINE",
"402 800 LINE",
"383 708 LINE",
"514 708 LINE",
"443 375 LINE SMOOTH",
"394 146 OFFCURVE",
"337 78 OFFCURVE",
"207 78 CURVE SMOOTH",
"123 78 OFFCURVE",
"104 101 OFFCURVE",
"96 206 CURVE",
"0 188 LINE",
"10 40 OFFCURVE",
"60 -14 OFFCURVE",
"204 -14 CURVE SMOOTH"
);
}
);
width = 600;
}
);
unicode = 004A;
},
{
color = 4;
glyphname = K;
lastChange = "2019-11-05 07:05:31 +0000";
layers = (
{
anchors = (
{
name = bottom;
position = "{234, 0}";
},
{
name = top;
position = "{404, 800}";
}
);
layerId = "7C079D0C-96CD-4BD8-8800-0621C7635A78";
paths = (
{
closed = 1;
nodes = (
"246 400 LINE",
"658 800 LINE",
"595 800 LINE",
"230 446 LINE",
"141 446 LINE",
"131 400 LINE"
);
},
{
closed = 1;
nodes = (
"74 0 LINE",
"244 800 LINE",
"194 800 LINE",
"24 0 LINE"
);
},
{
closed = 1;
nodes = (
"492 0 LINE",
"267 458 LINE",
"228 420 LINE",
"433 0 LINE"
);
}
);
width = 600;
},
{
anchors = (
{
name = bottom;
position = "{234, 0}";
},
{
name = top;
position = "{404, 800}";
}
);
layerId = "291433DC-531A-45CC-B814-57D397372F12";
paths = (
{
closed = 1;
nodes = (
"254 377 LINE",
"706 800 LINE",
"579 800 LINE",
"224 469 LINE",
"128 469 LINE",
"108 377 LINE"
);
},
{
closed = 1;
nodes = (
"99 0 LINE",
"269 800 LINE",
"169 800 LINE",
"-1 0 LINE"
);
},
{
closed = 1;
nodes = (
"531 0 LINE",
"314 500 LINE",
"234 424 LINE",
"419 0 LINE"
);
}
);
width = 600;
}
);
unicode = 004B;
},
{
color = 4;
glyphname = L;
lastChange = "2019-11-05 07:05:31 +0000";
layers = (
{
anchors = (
{
name = bottom;
position = "{234, 0}";
},
{
name = center;
position = "{319, 400}";
},
{
name = top;
position = "{267, 800}";
},
{
name = topright;
position = "{684, 800}";
}
);
layerId = "7C079D0C-96CD-4BD8-8800-0621C7635A78";
paths = (
{
closed = 1;
nodes = (
"440 0 LINE",
"450 46 LINE",
"115 46 LINE",
"275 800 LINE",
"225 800 LINE",
"55 0 LINE"
);
}
);
width = 600;
},
{
anchors = (
{
name = bottom;
position = "{234, 0}";
},
{
name = center;
position = "{319, 400}";
},
{
name = top;
position = "{274, 800}";
},
{
name = topright;
position = "{684, 800}";
}
);
layerId = "291433DC-531A-45CC-B814-57D397372F12";
paths = (
{
closed = 1;
nodes = (
"465 0 LINE",
"485 92 LINE",
"150 92 LINE",
"300 800 LINE",
"200 800 LINE",
"30 0 LINE"
);
}
);
width = 600;
}
);
unicode = 004C;
},
{
color = 4;
glyphname = Lslash;
lastChange = "2019-11-05 07:05:31 +0000";
layers = (
{
layerId = "7C079D0C-96CD-4BD8-8800-0621C7635A78";
paths = (
{
closed = 1;
nodes = (
"470 0 LINE",
"480 46 LINE",
"145 46 LINE",
"305 800 LINE",
"255 800 LINE",
"85 0 LINE"
);
},
{
closed = 1;
nodes = (
"380 518 LINE",
"389 565 LINE",
"83 450 LINE",
"73 403 LINE"
);
}
);
width = 600;
},
{
layerId = "291433DC-531A-45CC-B814-57D397372F12";
paths = (
{
closed = 1;
nodes = (
"495 0 LINE",
"515 92 LINE",
"180 92 LINE",
"330 800 LINE",
"230 800 LINE",
"60 0 LINE"
);
},
{
closed = 1;
nodes = (
"402 503 LINE",
"421 600 LINE",
"61 465 LINE",
"41 368 LINE"
);
}
);
width = 600;
}
);
unicode = 0141;
},
{
color = 4;
glyphname = M;
lastChange = "2019-11-05 07:05:31 +0000";
layers = (
{
anchors = (
{
name = bottom;
position = "{234, 0}";
},
{
name = top;
position = "{404, 800}";
}
);
layerId = "7C079D0C-96CD-4BD8-8800-0621C7635A78";
paths = (
{
closed = 1;
nodes = (
"44 0 LINE",
"200 674 LINE",
"266 262 LINE",
"316 262 LINE",
"556 674 LINE",
"424 0 LINE",
"474 0 LINE",
"630 800 LINE",
"579 800 LINE",
"304 334 LINE",
"229 800 LINE",
"178 800 LINE",
"-6 0 LINE"
);
}
);
width = 600;
},
{
anchors = (
{
name = bottom;
position = "{234, 0}";
},
{
name = top;
position = "{404, 800}";
}
);
layerId = "291433DC-531A-45CC-B814-57D397372F12";
paths = (
{
closed = 1;
nodes = (
"69 0 LINE",
"196 542 LINE",
"243 239 LINE",
"329 239 LINE",
"506 542 LINE",
"399 0 LINE",
"499 0 LINE",
"655 800 LINE",
"560 800 LINE",
"318 404 LINE",
"246 800 LINE",
"153 800 LINE",
"-31 0 LINE"
);
}
);
width = 600;
}
);
unicode = 004D;
},
{
color = 4;
glyphname = N;
lastChange = "2019-11-05 07:05:31 +0000";
layers = (
{
anchors = (
{
name = bottom;
position = "{234, -3}";
},
{
name = top;
position = "{405, 803}";
}
);
layerId = "7C079D0C-96CD-4BD8-8800-0621C7635A78";
paths = (
{
closed = 1;
nodes = (
"70 0 LINE",
"240 800 LINE",
"191 800 LINE",
"395 0 LINE",
"448 0 LINE",
"618 800 LINE",
"568 800 LINE",
"398 0 LINE",
"448 0 LINE",
"244 800 LINE",
"190 800 LINE",
"20 0 LINE"
);
}
);
width = 600;
},
{
anchors = (
{
name = bottom;
position = "{234, -3}";
},
{
name = top;
position = "{405, 803}";
}
);
layerId = "291433DC-531A-45CC-B814-57D397372F12";
paths = (
{
closed = 1;
nodes = (
"95 0 LINE",
"265 800 LINE",
"167 800 LINE",
"368 0 LINE",
"473 0 LINE",
"643 800 LINE",
"543 800 LINE",
"373 0 LINE",
"472 0 LINE",
"271 800 LINE",
"165 800 LINE",
"-5 0 LINE"
);
}
);
width = 600;
}
);
unicode = 004E;
},
{
color = 4;
glyphname = Eng;
lastChange = "2019-11-05 07:05:31 +0000";
layers = (
{
components = (
{
name = N;
}
);
layerId = "7C079D0C-96CD-4BD8-8800-0621C7635A78";
paths = (
{
closed = 1;
nodes = (
"383 -155 OFFCURVE",
"423 -120 OFFCURVE",
"448 -2 CURVE",
"395 2 LINE",
"398 -81 OFFCURVE",
"351 -109 OFFCURVE",
"281 -109 CURVE",
"276 -155 LINE"
);
}
);
width = 600;
},
{
components = (
{
name = N;
}
);
layerId = "291433DC-531A-45CC-B814-57D397372F12";
paths = (
{
closed = 1;
nodes = (
"397 -177 OFFCURVE",
"439 -161 OFFCURVE",
"473 -4 CURVE",
"369 3 LINE",
"391 -82 OFFCURVE",
"337 -85 OFFCURVE",
"259 -85 CURVE",
"248 -177 LINE"
);
}
);
width = 600;
}
);
unicode = 014A;
},
{
color = 4;
glyphname = O;
lastChange = "2019-11-05 07:05:31 +0000";
layers = (
{
anchors = (
{
name = bottom;
position = "{234, -3}";
},
{
name = center;
position = "{319, 400}";
},
{
name = ogonek;
position = "{496, 7}";
},
{
name = top;
position = "{405, 803}";
},
{
name = topleft;
position = "{100, 803}";
},
{
name = topright;
position = "{710, 803}";
}
);
layerId = "7C079D0C-96CD-4BD8-8800-0621C7635A78";
paths = (
{
closed = 1;
nodes = (
"410 -14 OFFCURVE",
"483 74 OFFCURVE",
"543 358 CURVE SMOOTH",
"560 438 LINE SMOOTH",
"621 722 OFFCURVE",
"582 814 OFFCURVE",
"403 814 CURVE SMOOTH",
"228 814 OFFCURVE",
"156 726 OFFCURVE",
"95 442 CURVE SMOOTH",
"78 362 LINE SMOOTH",
"18 78 OFFCURVE",
"56 -14 OFFCURVE",
"236 -14 CURVE SMOOTH"
);
},
{
closed = 1;
nodes = (
"101 32 OFFCURVE",
"75 109 OFFCURVE",
"127 358 CURVE SMOOTH",
"144 438 LINE SMOOTH",
"196 687 OFFCURVE",
"260 768 OFFCURVE",
"402 768 CURVE SMOOTH",
"539 768 OFFCURVE",
"564 691 OFFCURVE",
"511 442 CURVE SMOOTH",
"494 362 LINE SMOOTH",
"441 113 OFFCURVE",
"378 32 OFFCURVE",
"237 32 CURVE SMOOTH"
);
}
);
width = 600;
},
{
anchors = (
{
name = bottom;
position = "{234, -3}";
},
{
name = center;
position = "{319, 400}";
},
{
name = ogonek;
position = "{496, 7}";
},
{
name = top;
position = "{405, 803}";
},
{
name = topleft;
position = "{100, 803}";
},
{
name = topright;
position = "{710, 803}";
}
);
layerId = "291433DC-531A-45CC-B814-57D397372F12";
paths = (
{
closed = 1;
nodes = (
"430 -14 OFFCURVE",
"510 84 OFFCURVE",
"568 356 CURVE SMOOTH",
"585 436 LINE SMOOTH",
"643 708 OFFCURVE",
"597 814 OFFCURVE",
"399 814 CURVE SMOOTH",
"209 814 OFFCURVE",
"128 716 OFFCURVE",
"71 444 CURVE SMOOTH",
"54 364 LINE SMOOTH",
"-4 92 OFFCURVE",
"42 -14 OFFCURVE",
"240 -14 CURVE SMOOTH"
);
},
{
closed = 1;
nodes = (
"127 78 OFFCURVE",
"106 141 OFFCURVE",
"152 356 CURVE SMOOTH",
"169 436 LINE SMOOTH",
"215 651 OFFCURVE",
"270 722 OFFCURVE",
"396 722 CURVE SMOOTH",
"513 722 OFFCURVE",
"532 659 OFFCURVE",
"487 444 CURVE SMOOTH",
"470 364 LINE SMOOTH",
"424 149 OFFCURVE",
"368 78 OFFCURVE",
"243 78 CURVE SMOOTH"
);
}
);
width = 600;
}
);
unicode = 004F;
},
{
color = 4;
glyphname = Oslash;
lastChange = "2019-11-05 07:05:31 +0000";
layers = (
{
anchors = (
{
name = bottom;
position = "{234, 0}";
},
{
name = top;
position = "{404, 800}";
}
);
layerId = "7C079D0C-96CD-4BD8-8800-0621C7635A78";
paths = (
{
closed = 1;
nodes = (
"44 -50 LINE",
"651 850 LINE",
"594 850 LINE",
"-12 -50 LINE"
);
},
{
closed = 1;
nodes = (
"410 -14 OFFCURVE",
"483 74 OFFCURVE",
"543 358 CURVE SMOOTH",
"560 438 LINE SMOOTH",
"621 722 OFFCURVE",
"582 814 OFFCURVE",
"403 814 CURVE SMOOTH",
"228 814 OFFCURVE",
"156 726 OFFCURVE",
"95 442 CURVE SMOOTH",
"78 362 LINE SMOOTH",
"18 78 OFFCURVE",
"56 -14 OFFCURVE",
"236 -14 CURVE SMOOTH"
);
},
{
closed = 1;
nodes = (
"100 32 OFFCURVE",
"75 109 OFFCURVE",
"127 358 CURVE SMOOTH",
"144 438 LINE SMOOTH",
"197 687 OFFCURVE",
"261 768 OFFCURVE",
"402 768 CURVE SMOOTH",
"539 768 OFFCURVE",
"564 691 OFFCURVE",
"511 442 CURVE SMOOTH",
"494 362 LINE SMOOTH",
"441 113 OFFCURVE",
"378 32 OFFCURVE",
"237 32 CURVE SMOOTH"
);
}
);
width = 600;
},
{
anchors = (
{
name = bottom;
position = "{234, 0}";
},
{
name = top;
position = "{404, 800}";
}
);
layerId = "291433DC-531A-45CC-B814-57D397372F12";
paths = (
{
closed = 1;
nodes = (
"62 -50 LINE",
"689 850 LINE",
"577 850 LINE",
"-51 -50 LINE"
);
},
{
closed = 1;
nodes = (
"430 -14 OFFCURVE",
"510 84 OFFCURVE",
"568 356 CURVE SMOOTH",
"585 436 LINE SMOOTH",
"643 708 OFFCURVE",
"597 814 OFFCURVE",
"399 814 CURVE SMOOTH",
"209 814 OFFCURVE",
"128 716 OFFCURVE",
"71 444 CURVE SMOOTH",
"54 364 LINE SMOOTH",
"-4 92 OFFCURVE",
"42 -14 OFFCURVE",
"240 -14 CURVE SMOOTH"
);
},
{
closed = 1;
nodes = (
"126 78 OFFCURVE",
"106 141 OFFCURVE",
"152 356 CURVE SMOOTH",
"169 436 LINE SMOOTH",
"215 651 OFFCURVE",
"271 722 OFFCURVE",
"396 722 CURVE SMOOTH",
"513 722 OFFCURVE",
"532 659 OFFCURVE",
"487 444 CURVE SMOOTH",
"470 364 LINE SMOOTH",
"424 149 OFFCURVE",
"368 78 OFFCURVE",
"243 78 CURVE SMOOTH"
);
}
);
width = 600;
}
);
unicode = 00D8;
},
{
color = 4;
glyphname = OE;
lastChange = "2019-11-05 07:05:31 +0000";
layers = (
{
anchors = (
{
name = bottom;
position = "{234, 0}";
},
{
name = top;
position = "{404, 800}";
}
);
layerId = "7C079D0C-96CD-4BD8-8800-0621C7635A78";
paths = (
{
closed = 1;
nodes = (
"257 -14 OFFCURVE",
"320 82 OFFCURVE",
"386 392 CURVE SMOOTH",
"454 712 OFFCURVE",
"429 814 OFFCURVE",
"288 814 CURVE SMOOTH",
"151 814 OFFCURVE",
"88 716 OFFCURVE",
"22 403 CURVE SMOOTH",
"-45 87 OFFCURVE",
"-21 -14 OFFCURVE",
"121 -14 CURVE SMOOTH"
);
},
{
closed = 1;
nodes = (
"23 32 OFFCURVE",
"11 118 OFFCURVE",
"70 395 CURVE SMOOTH",
"130 677 OFFCURVE",
"184 768 OFFCURVE",
"287 768 CURVE SMOOTH",
"386 768 OFFCURVE",
"397 681 OFFCURVE",
"338 403 CURVE SMOOTH",
"278 122 OFFCURVE",
"225 32 OFFCURVE",
"122 32 CURVE SMOOTH"
);
},
{
closed = 1;
nodes = (
"532 0 LINE",
"542 46 LINE",
"285 46 LINE",
"306 16 LINE",
"393 430 LINE",
"359 400 LINE",
"526 400 LINE",
"536 446 LINE",
"370 446 LINE",
"392 416 LINE",
"468 784 LINE",
"434 754 LINE",
"693 754 LINE",
"702 800 LINE",
"422 800 LINE",
"252 0 LINE"
);
}
);
width = 600;
},
{
anchors = (
{
name = bottom;
position = "{234, 0}";
},
{
name = top;
position = "{404, 800}";
}
);
layerId = "291433DC-531A-45CC-B814-57D397372F12";
paths = (
{
closed = 1;
nodes = (
"291 -14 OFFCURVE",
"347 92 OFFCURVE",
"410 388 CURVE SMOOTH",
"476 698 OFFCURVE",
"458 814 OFFCURVE",
"296 814 CURVE SMOOTH",
"154 814 OFFCURVE",
"86 707 OFFCURVE",
"22 407 CURVE SMOOTH",
"-43 100 OFFCURVE",
"-13 -14 OFFCURVE",
"137 -14 CURVE SMOOTH"
);
},
{
closed = 1;
nodes = (
"76 78 OFFCURVE",
"68 152 OFFCURVE",
"118 391 CURVE SMOOTH",
"171 639 OFFCURVE",
"221 722 OFFCURVE",
"293 722 CURVE SMOOTH",
"369 722 OFFCURVE",
"365 647 OFFCURVE",
"314 407 CURVE SMOOTH",
"261 160 OFFCURVE",
"224 78 OFFCURVE",
"140 78 CURVE SMOOTH"
);
},
{
closed = 1;
nodes = (
"533 0 LINE",
"553 92 LINE",
"286 92 LINE",
"335 29 LINE",
"419 440 LINE",
"344 377 LINE",
"534 377 LINE",
"554 469 LINE",
"367 469 LINE",
"415 406 LINE",
"490 771 LINE",
"414 708 LINE",
"684 708 LINE",
"703 800 LINE",
"397 800 LINE",
"227 0 LINE"
);
}
);
width = 600;
}
);
unicode = 0152;
},
{
color = 4;
glyphname = P;
lastChange = "2019-11-05 07:05:31 +0000";
layers = (
{
anchors = (
{
name = bottom;
position = "{234, 0}";
},
{
name = top;
position = "{404, 800}";
}
);
layerId = "7C079D0C-96CD-4BD8-8800-0621C7635A78";
paths = (
{
closed = 1;
nodes = (
"90 0 LINE",
"256 785 LINE",
"219 754 LINE",
"417 754 LINE SMOOTH",
"542 754 OFFCURVE",
"571 714 OFFCURVE",
"543 581 CURVE SMOOTH",
"514 444 OFFCURVE",
"462 400 OFFCURVE",
"337 400 CURVE SMOOTH",
"153 400 LINE",
"144 354 LINE",
"332 354 LINE SMOOTH",
"495 354 OFFCURVE",
"556 406 OFFCURVE",
"591 573 CURVE SMOOTH",
"627 744 OFFCURVE",
"585 800 OFFCURVE",
"422 800 CURVE SMOOTH",
"210 800 LINE",
"40 0 LINE"
);
}
);
width = 600;
},
{
anchors = (
{
name = bottom;
position = "{234, 0}";
},
{
name = top;
position = "{404, 800}";
}
);
layerId = "291433DC-531A-45CC-B814-57D397372F12";
paths = (
{
closed = 1;
nodes = (
"115 0 LINE",
"284 801 LINE",
"171 708 LINE",
"409 708 LINE SMOOTH",
"519 708 OFFCURVE",
"539 680 OFFCURVE",
"516 572 CURVE SMOOTH",
"489 446 OFFCURVE",
"449 420 OFFCURVE",
"339 420 CURVE SMOOTH",
"133 420 LINE",
"113 328 LINE",
"328 328 LINE SMOOTH",
"505 328 OFFCURVE",
"575 378 OFFCURVE",
"613 556 CURVE SMOOTH",
"650 732 OFFCURVE",
"597 800 OFFCURVE",
"420 800 CURVE SMOOTH",
"185 800 LINE",
"15 0 LINE"
);
}
);
width = 600;
}
);
unicode = 0050;
},
{
color = 4;
glyphname = Thorn;
lastChange = "2019-11-05 07:05:31 +0000";
layers = (
{
anchors = (
{
name = bottom;
position = "{234, 0}";
},
{
name = top;
position = "{404, 800}";
}
);
layerId = "7C079D0C-96CD-4BD8-8800-0621C7635A78";
paths = (
{
closed = 1;
nodes = (
"278 196 LINE SMOOTH",
"441 196 OFFCURVE",
"501 243 OFFCURVE",
"534 396 CURVE SMOOTH",
"567 553 OFFCURVE",
"524 604 OFFCURVE",
"361 604 CURVE SMOOTH",
"198 604 LINE",
"188 558 LINE",
"355 558 LINE SMOOTH",
"480 558 OFFCURVE",
"510 522 OFFCURVE",
"485 404 CURVE SMOOTH",
"459 282 OFFCURVE",
"409 242 OFFCURVE",
"284 242 CURVE SMOOTH",
"121 242 LINE",
"111 196 LINE"
);
},
{
closed = 1;
nodes = (
"90 0 LINE",
"260 800 LINE",
"210 800 LINE",
"40 0 LINE"
);
}
);
width = 600;
},
{
anchors = (
{
name = bottom;
position = "{234, 0}";
},
{
name = top;
position = "{404, 800}";
}
);
layerId = "291433DC-531A-45CC-B814-57D397372F12";
paths = (
{
closed = 1;
nodes = (
"275 173 LINE SMOOTH",
"452 173 OFFCURVE",
"523 228 OFFCURVE",
"558 392 CURVE SMOOTH",
"594 564 OFFCURVE",
"540 627 OFFCURVE",
"363 627 CURVE SMOOTH",
"178 627 LINE",
"158 535 LINE",
"352 535 LINE SMOOTH",
"463 535 OFFCURVE",
"483 511 OFFCURVE",
"461 408 CURVE SMOOTH",
"437 297 OFFCURVE",
"397 265 OFFCURVE",
"286 265 CURVE SMOOTH",
"101 265 LINE",
"81 173 LINE"
);
},
{
closed = 1;
nodes = (
"115 0 LINE",
"285 800 LINE",
"185 800 LINE",
"15 0 LINE"
);
}
);
width = 600;
}
);
unicode = 00DE;
},
{
color = 4;
glyphname = Q;
lastChange = "2019-11-05 07:05:31 +0000";
layers = (
{
anchors = (
{
name = bottom;
position = "{234, 0}";
},
{
name = top;
position = "{404, 800}";
}
);
layerId = "7C079D0C-96CD-4BD8-8800-0621C7635A78";
paths = (
{
closed = 1;
nodes = (
"410 -14 OFFCURVE",
"483 74 OFFCURVE",
"543 358 CURVE SMOOTH",
"560 438 LINE SMOOTH",
"621 722 OFFCURVE",
"582 814 OFFCURVE",
"403 814 CURVE SMOOTH",
"228 814 OFFCURVE",
"156 726 OFFCURVE",
"95 442 CURVE SMOOTH",
"78 362 LINE SMOOTH",
"18 78 OFFCURVE",
"56 -14 OFFCURVE",
"236 -14 CURVE SMOOTH"
);
},
{
closed = 1;
nodes = (
"394 -168 OFFCURVE",
"438 -139 OFFCURVE",
"502 -139 CURVE",
"507 -93 LINE",
"450 -93 OFFCURVE",
"383 -122 OFFCURVE",
"324 -122 CURVE SMOOTH",
"277 -122 OFFCURVE",
"233 -80 OFFCURVE",
"205 -75 CURVE",
"232 -62 OFFCURVE",
"262 -23 OFFCURVE",
"270 7 CURVE",
"219 8 LINE",
"192 -28 OFFCURVE",
"152 -63 OFFCURVE",
"98 -63 CURVE",
"90 -109 LINE",
"120 -109 LINE SMOOTH",
"221 -109 OFFCURVE",
"231 -168 OFFCURVE",
"323 -168 CURVE SMOOTH"
);
},
{
closed = 1;
nodes = (
"101 32 OFFCURVE",
"75 109 OFFCURVE",
"127 358 CURVE SMOOTH",
"144 438 LINE SMOOTH",
"196 687 OFFCURVE",
"260 768 OFFCURVE",
"402 768 CURVE SMOOTH",
"539 768 OFFCURVE",
"564 691 OFFCURVE",
"511 442 CURVE SMOOTH",
"494 362 LINE SMOOTH",
"441 113 OFFCURVE",
"378 32 OFFCURVE",
"237 32 CURVE SMOOTH"
);
}
);
width = 600;
},
{
anchors = (
{
name = bottom;
position = "{234, 0}";
},
{
name = top;
position = "{404, 800}";
}
);
layerId = "291433DC-531A-45CC-B814-57D397372F12";
paths = (
{
closed = 1;
nodes = (
"430 -14 OFFCURVE",
"510 84 OFFCURVE",
"568 356 CURVE SMOOTH",
"585 436 LINE SMOOTH",
"643 708 OFFCURVE",
"597 814 OFFCURVE",
"399 814 CURVE SMOOTH",
"209 814 OFFCURVE",
"128 716 OFFCURVE",
"71 444 CURVE SMOOTH",
"54 364 LINE SMOOTH",
"-4 92 OFFCURVE",
"42 -14 OFFCURVE",
"240 -14 CURVE SMOOTH"
);
},
{
closed = 1;
nodes = (
"417 -168 OFFCURVE",
"458 -129 OFFCURVE",
"529 -140 CURVE",
"539 -50 LINE",
"471 -40 OFFCURVE",
"392 -76 OFFCURVE",
"330 -76 CURVE SMOOTH",
"307 -76 OFFCURVE",
"279 -59 OFFCURVE",
"254 -47 CURVE",
"287 -18 OFFCURVE",
"304 18 OFFCURVE",
"298 44 CURVE",
"211 47 LINE",
"179 -2 OFFCURVE",
"138 -24 OFFCURVE",
"81 -16 CURVE",
"65 -109 LINE",
"122 -109 LINE SMOOTH",
"208 -109 OFFCURVE",
"213 -168 OFFCURVE",
"327 -168 CURVE SMOOTH"
);
},
{
closed = 1;
nodes = (
"127 78 OFFCURVE",
"106 141 OFFCURVE",
"152 356 CURVE SMOOTH",
"169 436 LINE SMOOTH",
"215 651 OFFCURVE",
"270 722 OFFCURVE",
"396 722 CURVE SMOOTH",
"513 722 OFFCURVE",
"532 659 OFFCURVE",
"487 444 CURVE SMOOTH",
"470 364 LINE SMOOTH",
"424 149 OFFCURVE",
"368 78 OFFCURVE",
"243 78 CURVE SMOOTH"
);
}
);
width = 600;
}
);
unicode = 0051;
},
{
color = 4;
glyphname = R;
lastChange = "2019-11-05 07:05:31 +0000";
layers = (
{
anchors = (
{
name = bottom;
position = "{234, 0}";
},
{
name = top;
position = "{404, 800}";
}
);
layerId = "7C079D0C-96CD-4BD8-8800-0621C7635A78";
paths = (
{
closed = 1;
nodes = (
"82 0 LINE",
"243 754 LINE",
"409 754 LINE SMOOTH",
"534 754 OFFCURVE",
"563 714 OFFCURVE",
"535 581 CURVE SMOOTH",
"506 444 OFFCURVE",
"454 400 OFFCURVE",
"329 400 CURVE SMOOTH",
"135 400 LINE",
"126 354 LINE",
"324 354 LINE SMOOTH",
"487 354 OFFCURVE",
"548 406 OFFCURVE",
"583 573 CURVE SMOOTH",
"619 744 OFFCURVE",
"577 800 OFFCURVE",
"414 800 CURVE SMOOTH",
"202 800 LINE",
"32 0 LINE"
);
},
{
closed = 1;
nodes = (
"480 0 LINE",
"315 378 LINE",
"257 378 LINE",
"423 0 LINE"
);
}
);
width = 600;
},
{
anchors = (
{
name = bottom;
position = "{234, 0}";
},
{
name = top;
position = "{404, 800}";
}
);
layerId = "291433DC-531A-45CC-B814-57D397372F12";
paths = (
{
closed = 1;
nodes = (
"107 0 LINE",
"258 708 LINE",
"401 708 LINE SMOOTH",
"511 708 OFFCURVE",
"531 680 OFFCURVE",
"508 572 CURVE SMOOTH",
"481 446 OFFCURVE",
"441 420 OFFCURVE",
"331 420 CURVE SMOOTH",
"125 420 LINE",
"105 328 LINE",
"320 328 LINE SMOOTH",
"497 328 OFFCURVE",
"567 378 OFFCURVE",
"605 556 CURVE SMOOTH",
"642 732 OFFCURVE",
"589 800 OFFCURVE",
"412 800 CURVE SMOOTH",
"177 800 LINE",
"7 0 LINE"
);
},
{
closed = 1;
nodes = (
"523 0 LINE",
"335 394 LINE",
"222 394 LINE",
"410 0 LINE"
);
}
);
width = 600;
}
);
unicode = 0052;
},
{
color = 4;
glyphname = S;
lastChange = "2019-11-05 07:05:31 +0000";
layers = (
{
anchors = (
{
name = bottom;
position = "{234, 0}";
},
{
name = top;
position = "{405, 803}";
}
);
layerId = "7C079D0C-96CD-4BD8-8800-0621C7635A78";
paths = (
{
closed = 1;
nodes = (
"403 -14 OFFCURVE",
"467 39 OFFCURVE",
"503 211 CURVE SMOOTH",
"530 337 OFFCURVE",
"486 394 OFFCURVE",
"325 447 CURVE SMOOTH",
"214 485 OFFCURVE",
"185 522 OFFCURVE",
"203 604 CURVE SMOOTH",
"229 728 OFFCURVE",
"278 768 OFFCURVE",
"402 768 CURVE SMOOTH",
"501 768 OFFCURVE",
"539 750 OFFCURVE",
"559 685 CURVE",
"599 718 LINE",
"570 789 OFFCURVE",
"523 814 OFFCURVE",
"403 814 CURVE SMOOTH",
"245 814 OFFCURVE",
"187 767 OFFCURVE",
"154 612 CURVE SMOOTH",
"131 503 OFFCURVE",
"172 452 OFFCURVE",
"323 399 CURVE SMOOTH",
"444 355 OFFCURVE",
"475 313 OFFCURVE",
"455 219 CURVE SMOOTH",
"425 78 OFFCURVE",
"371 32 OFFCURVE",
"237 32 CURVE SMOOTH",
"127 32 OFFCURVE",
"87 54 OFFCURVE",
"69 128 CURVE",
"26 97 LINE",
"54 14 OFFCURVE",
"104 -14 OFFCURVE",
"236 -14 CURVE SMOOTH"
);
}
);
width = 600;
},
{
anchors = (
{
name = bottom;
position = "{234, 0}";
},
{
name = top;
position = "{405, 803}";
}
);
layerId = "291433DC-531A-45CC-B814-57D397372F12";
paths = (
{
closed = 1;
nodes = (
"421 -14 OFFCURVE",
"493 47 OFFCURVE",
"530 219 CURVE SMOOTH",
"559 358 OFFCURVE",
"506 413 OFFCURVE",
"333 468 CURVE SMOOTH",
"232 504 OFFCURVE",
"210 519 OFFCURVE",
"224 588 CURVE SMOOTH",
"246 690 OFFCURVE",
"284 722 OFFCURVE",
"396 722 CURVE SMOOTH",
"501 722 OFFCURVE",
"521 704 OFFCURVE",
"539 621 CURVE",
"623 691 LINE",
"591 781 OFFCURVE",
"536 814 OFFCURVE",
"399 814 CURVE SMOOTH",
"229 814 OFFCURVE",
"161 759 OFFCURVE",
"128 604 CURVE SMOOTH",
"102 482 OFFCURVE",
"152 433 OFFCURVE",
"315 378 CURVE SMOOTH",
"425 336 OFFCURVE",
"450 316 OFFCURVE",
"433 235 CURVE SMOOTH",
"408 116 OFFCURVE",
"364 78 OFFCURVE",
"243 78 CURVE SMOOTH",
"129 78 OFFCURVE",
"106 99 OFFCURVE",
"92 191 CURVE",
"3 126 LINE",
"32 23 OFFCURVE",
"91 -14 OFFCURVE",
"240 -14 CURVE SMOOTH"
);
}
);
width = 600;
}
);
unicode = 0053;
},
{
color = 4;
glyphname = Germandbls;
lastChange = "2019-11-05 07:05:31 +0000";
layers = (
{
anchors = (
{
name = bottom;
position = "{234, 0}";
},
{
name = top;
position = "{404, 800}";
}
);
layerId = "7C079D0C-96CD-4BD8-8800-0621C7635A78";
paths = (
{
closed = 1;
nodes = (
"20 0 LINE",
"140 565 LINE SMOOTH",
"164 677 OFFCURVE",
"255 754 OFFCURVE",
"364 754 CURVE SMOOTH",
"590 754 LINE",
"318 426 LINE",
"377 426 LINE",
"685 800 LINE",
"375 800 LINE SMOOTH",
"228 800 OFFCURVE",
"122 714 OFFCURVE",
"91 569 CURVE SMOOTH",
"-30 0 LINE"
);
},
{
closed = 1;
nodes = (
"463 -14 OFFCURVE",
"522 35 OFFCURVE",
"562 225 CURVE SMOOTH",
"601 409 OFFCURVE",
"563 472 OFFCURVE",
"404 472 CURVE SMOOTH",
"372 472 LINE",
"362 426 LINE",
"398 426 LINE SMOOTH",
"519 426 OFFCURVE",
"545 378 OFFCURVE",
"514 233 CURVE SMOOTH",
"480 74 OFFCURVE",
"431 32 OFFCURVE",
"308 32 CURVE SMOOTH",
"204 32 OFFCURVE",
"178 54 OFFCURVE",
"194 130 CURVE",
"145 134 LINE",
"121 23 OFFCURVE",
"160 -14 OFFCURVE",
"307 -14 CURVE SMOOTH"
);
}
);
width = 600;
},
{
anchors = (
{
name = bottom;
position = "{234, 0}";
},
{
name = top;
position = "{404, 800}";
}
);
layerId = "291433DC-531A-45CC-B814-57D397372F12";
paths = (
{
closed = 1;
nodes = (
"35 0 LINE",
"152 550 LINE SMOOTH",
"172 642 OFFCURVE",
"261 708 OFFCURVE",
"367 708 CURVE SMOOTH",
"510 708 LINE",
"232 382 LINE",
"351 382 LINE",
"705 800 LINE",
"384 800 LINE SMOOTH",
"209 800 OFFCURVE",
"86 711 OFFCURVE",
"54 558 CURVE SMOOTH",
"-65 0 LINE"
);
},
{
closed = 1;
nodes = (
"456 -14 OFFCURVE",
"517 33 OFFCURVE",
"558 222 CURVE SMOOTH",
"597 409 OFFCURVE",
"551 474 OFFCURVE",
"373 474 CURVE SMOOTH",
"338 474 LINE",
"319 382 LINE",
"362 382 LINE SMOOTH",
"464 382 OFFCURVE",
"484 347 OFFCURVE",
"461 238 CURVE SMOOTH",
"434 111 OFFCURVE",
"391 78 OFFCURVE",
"285 78 CURVE SMOOTH",
"234 78 OFFCURVE",
"224 96 OFFCURVE",
"238 164 CURVE",
"140 172 LINE",
"111 34 OFFCURVE",
"147 -14 OFFCURVE",
"282 -14 CURVE SMOOTH"
);
}
);
width = 600;
}
);
unicode = 1E9E;
},
{
color = 4;
glyphname = T;
lastChange = "2019-11-05 07:05:31 +0000";
layers = (
{
anchors = (
{
name = bottom;
position = "{234, 0}";
},
{
name = center;
position = "{319, 400}";
},
{
name = top;
position = "{404, 800}";
}
);
layerId = "7C079D0C-96CD-4BD8-8800-0621C7635A78";
paths = (
{
closed = 1;
nodes = (
"259 0 LINE",
"429 800 LINE",
"379 800 LINE",
"209 0 LINE"
);
},
{
closed = 1;
nodes = (
"663 754 LINE",
"672 800 LINE",
"136 800 LINE",
"127 754 LINE"
);
}
);
width = 600;
},
{
anchors = (
{
name = bottom;
position = "{234, 0}";
},
{
name = center;
position = "{319, 400}";
},
{
name = top;
position = "{404, 800}";
}
);
layerId = "291433DC-531A-45CC-B814-57D397372F12";
paths = (
{
closed = 1;
nodes = (
"284 0 LINE",
"454 800 LINE",
"354 800 LINE",
"184 0 LINE"
);
},
{
closed = 1;
nodes = (
"678 708 LINE",
"697 800 LINE",
"111 800 LINE",
"92 708 LINE"
);
}
);
width = 600;
}
);
unicode = 0054;
},
{
color = 4;
glyphname = Tbar;
lastChange = "2019-11-05 07:05:31 +0000";
layers = (
{
components = (
{
name = T;
}
);
layerId = "7C079D0C-96CD-4BD8-8800-0621C7635A78";
paths = (
{
closed = 1;
nodes = (
"509 400 LINE",
"519 446 LINE",
"139 446 LINE",
"129 400 LINE"
);
}
);
width = 600;
},
{
components = (
{
name = T;
}
);
layerId = "291433DC-531A-45CC-B814-57D397372F12";
paths = (
{
closed = 1;
nodes = (
"499 377 LINE",
"519 469 LINE",
"149 469 LINE",
"129 377 LINE"
);
}
);
width = 600;
}
);
unicode = 0166;
},
{
color = 4;
glyphname = U;
lastChange = "2020-06-27 20:12:33 +0000";
layers = (
{
anchors = (
{
name = bottom;
position = "{234, -3}";
},
{
name = ogonek;
position = "{286, 0}";
},
{
name = top;
position = "{405, 803}";
},
{
name = topright;
position = "{710, 803}";
}
);
layerId = "7C079D0C-96CD-4BD8-8800-0621C7635A78";
paths = (
{
closed = 1;
nodes = (
"394 -14 OFFCURVE",
"459 58 OFFCURVE",
"508 291 CURVE SMOOTH",
"616 800 LINE",
"566 800 LINE",
"459 295 LINE SMOOTH",
"417 97 OFFCURVE",
"362 32 OFFCURVE",
"237 32 CURVE SMOOTH",
"116 32 OFFCURVE",
"92 93 OFFCURVE",
"134 291 CURVE SMOOTH",
"242 800 LINE",
"192 800 LINE",
"85 295 LINE SMOOTH",
"36 62 OFFCURVE",
"72 -14 OFFCURVE",
"236 -14 CURVE SMOOTH"
);
}
);
width = 600;
},
{
anchors = (
{
name = bottom;
position = "{234, -3}";
},
{
name = ogonek;
position = "{286, 0}";
},
{
name = top;
position = "{405, 803}";
},
{
name = topright;
position = "{710, 803}";
}
);
layerId = "291433DC-531A-45CC-B814-57D397372F12";
paths = (
{
closed = 1;
nodes = (
"413 -14 OFFCURVE",
"487 68 OFFCURVE",
"536 302 CURVE SMOOTH",
"641 800 LINE",
"541 800 LINE",
"437 310 LINE SMOOTH",
"399 133 OFFCURVE",
"352 78 OFFCURVE",
"243 78 CURVE SMOOTH",
"142 78 OFFCURVE",
"125 125 OFFCURVE",
"162 302 CURVE SMOOTH",
"267 800 LINE",
"167 800 LINE",
"63 310 LINE SMOOTH",
"13 76 OFFCURVE",
"59 -14 OFFCURVE",
"240 -14 CURVE SMOOTH"
);
}
);
width = 600;
}
);
unicode = 0055;
},
{
color = 4;
glyphname = V;
lastChange = "2019-11-05 07:05:31 +0000";
layers = (
{
anchors = (
{
name = bottom;
position = "{234, 0}";
},
{
name = top;
position = "{404, 800}";
}
);
layerId = "7C079D0C-96CD-4BD8-8800-0621C7635A78";
paths = (
{
closed = 1;
nodes = (
"263 0 LINE",
"651 800 LINE",
"596 800 LINE",
"252 90 LINE",
"212 800 LINE",
"159 800 LINE",
"207 0 LINE"
);
}
);
width = 600;
},
{
anchors = (
{
name = bottom;
position = "{234, 0}";
},
{
name = top;
position = "{404, 800}";
}
);
layerId = "291433DC-531A-45CC-B814-57D397372F12";
paths = (
{
closed = 1;
nodes = (
"283 0 LINE",
"683 800 LINE",
"575 800 LINE",
"272 185 LINE",
"231 800 LINE",
"127 800 LINE",
"187 0 LINE"
);
}
);
width = 600;
}
);
unicode = 0056;
},
{
color = 4;
glyphname = W;
lastChange = "2019-11-05 07:05:31 +0000";
layers = (
{
anchors = (
{
name = bottom;
position = "{234, -3}";
},
{
name = top;
position = "{405, 803}";
}
);
layerId = "7C079D0C-96CD-4BD8-8800-0621C7635A78";
paths = (
{
closed = 1;
nodes = (
"128 0 LINE",
"330 445 LINE",
"342 0 LINE",
"393 0 LINE",
"670 800 LINE",
"618 800 LINE",
"383 115 LINE",
"373 536 LINE",
"323 536 LINE",
"133 115 LINE",
"190 800 LINE",
"140 800 LINE",
"77 0 LINE"
);
}
);
width = 600;
},
{
anchors = (
{
name = bottom;
position = "{234, -3}";
},
{
name = top;
position = "{405, 803}";
}
);
layerId = "291433DC-531A-45CC-B814-57D397372F12";
paths = (
{
closed = 1;
nodes = (
"153 0 LINE",
"308 339 LINE",
"322 0 LINE",
"415 0 LINE",
"698 800 LINE",
"596 800 LINE",
"405 253 LINE",
"397 559 LINE",
"307 559 LINE",
"169 253 LINE",
"212 800 LINE",
"112 800 LINE",
"55 0 LINE"
);
}
);
width = 600;
}
);
unicode = 0057;
},
{
color = 4;
glyphname = X;
lastChange = "2019-11-05 07:05:31 +0000";
layers = (
{
anchors = (
{
name = bottom;
position = "{234, 0}";
},
{
name = top;
position = "{404, 800}";
}
);
layerId = "7C079D0C-96CD-4BD8-8800-0621C7635A78";
paths = (
{
closed = 1;
nodes = (
"165 800 LINE",
"221 800 LINE",
"474 0 LINE",
"418 0 LINE"
);
},
{
closed = 1;
nodes = (
"589 800 LINE",
"643 800 LINE",
"50 0 LINE",
"-4 0 LINE"
);
}
);
width = 600;
},
{
anchors = (
{
name = bottom;
position = "{234, 0}";
},
{
name = top;
position = "{404, 800}";
}
);
layerId = "291433DC-531A-45CC-B814-57D397372F12";
paths = (
{
closed = 1;
nodes = (
"124 800 LINE",
"238 800 LINE",
"515 0 LINE",
"401 0 LINE"
);
},
{
closed = 1;
nodes = (
"574 800 LINE",
"682 800 LINE",
"65 0 LINE",
"-43 0 LINE"
);
}
);
width = 600;
}
);
unicode = 0058;
},
{
color = 4;
glyphname = Y;
lastChange = "2019-11-05 07:05:31 +0000";
layers = (
{
anchors = (
{
name = bottom;
position = "{234, -3}";
},
{
name = top;
position = "{405, 803}";
},
{
name = topleft;
position = "{100, 803}";
}
);
layerId = "7C079D0C-96CD-4BD8-8800-0621C7635A78";
paths = (
{
closed = 1;
nodes = (
"259 0 LINE",
"326 308 LINE",
"663 800 LINE",
"607 800 LINE",
"312 370 LINE",
"201 800 LINE",
"147 800 LINE",
"276 308 LINE",
"209 0 LINE"
);
}
);
width = 600;
},
{
anchors = (
{
name = bottom;
position = "{234, -3}";
},
{
name = top;
position = "{405, 803}";
},
{
name = topleft;
position = "{100, 803}";
}
);
layerId = "291433DC-531A-45CC-B814-57D397372F12";
paths = (
{
closed = 1;
nodes = (
"284 0 LINE",
"348 293 LINE",
"702 800 LINE",
"590 800 LINE",
"320 418 LINE",
"216 800 LINE",
"110 800 LINE",
"248 293 LINE",
"184 0 LINE"
);
}
);
width = 600;
}
);
unicode = 0059;
},
{
color = 4;
glyphname = Z;
lastChange = "2019-11-05 07:05:31 +0000";
layers = (
{
anchors = (
{
name = bottom;
position = "{234, 0}";
},
{
name = center;
position = "{319, 400}";
},
{
name = top;
position = "{404, 800}";
}
);
layerId = "7C079D0C-96CD-4BD8-8800-0621C7635A78";
paths = (
{
closed = 1;
nodes = (
"473 0 LINE",
"483 46 LINE",
"63 46 LINE",
"637 758 LINE",
"645 800 LINE",
"165 800 LINE",
"156 754 LINE",
"576 754 LINE",
"1 41 LINE",
"-7 0 LINE"
);
}
);
width = 600;
},
{
anchors = (
{
name = bottom;
position = "{234, 0}";
},
{
name = center;
position = "{319, 400}";
},
{
name = top;
position = "{404, 800}";
}
);
layerId = "291433DC-531A-45CC-B814-57D397372F12";
paths = (
{
closed = 1;
nodes = (
"498 0 LINE",
"518 92 LINE",
"115 92 LINE",
"657 729 LINE",
"670 800 LINE",
"140 800 LINE",
"121 708 LINE",
"523 708 LINE",
"-18 70 LINE",
"-32 0 LINE"
);
}
);
width = 600;
}
);
unicode = 005A;
},
{
color = 4;
glyphname = a;
lastChange = "2019-11-05 07:05:31 +0000";
layers = (
{
anchors = (
{
name = bottom;
position = "{234, 0}";
},
{
name = ogonek;
position = "{470, 1}";
},
{
name = top;
position = "{366, 618}";
}
);
layerId = "7C079D0C-96CD-4BD8-8800-0621C7635A78";
paths = (
{
closed = 1;
nodes = (
"303 -14 OFFCURVE",
"349 8 OFFCURVE",
"402 85 CURVE",
"399 22 OFFCURVE",
"423 0 OFFCURVE",
"496 0 CURVE",
"502 46 LINE",
"443 46 OFFCURVE",
"431 70 OFFCURVE",
"449 154 CURVE SMOOTH",
"505 417 LINE SMOOTH",
"539 579 OFFCURVE",
"499 632 OFFCURVE",
"338 632 CURVE SMOOTH",
"226 632 OFFCURVE",
"175 602 OFFCURVE",
"122 500 CURVE",
"168 484 LINE",
"207 560 OFFCURVE",
"249 586 OFFCURVE",
"337 586 CURVE SMOOTH",
"455 586 OFFCURVE",
"483 548 OFFCURVE",
"456 421 CURVE SMOOTH",
"442 354 LINE",
"281 354 LINE SMOOTH",
"123 354 OFFCURVE",
"66 311 OFFCURVE",
"36 170 CURVE SMOOTH",
"7 31 OFFCURVE",
"49 -14 OFFCURVE",
"210 -14 CURVE SMOOTH"
);
},
{
closed = 1;
nodes = (
"93 32 OFFCURVE",
"64 62 OFFCURVE",
"85 162 CURVE SMOOTH",
"108 272 OFFCURVE",
"156 308 OFFCURVE",
"276 308 CURVE SMOOTH",
"432 308 LINE",
"413 218 LINE SMOOTH",
"383 78 OFFCURVE",
"333 32 OFFCURVE",
"211 32 CURVE SMOOTH"
);
}
);
width = 600;
},
{
anchors = (
{
name = bottom;
position = "{234, 0}";
},
{
name = ogonek;
position = "{467, 1}";
},
{
name = top;
position = "{366, 618}";
}
);
layerId = "291433DC-531A-45CC-B814-57D397372F12";
paths = (
{
closed = 1;
nodes = (
"292 -14 OFFCURVE",
"342 0 OFFCURVE",
"392 50 CURVE",
"404 13 OFFCURVE",
"447 -3 OFFCURVE",
"524 1 CURVE",
"535 93 LINE",
"470 89 OFFCURVE",
"460 90 OFFCURVE",
"476 164 CURVE SMOOTH",
"527 405 LINE SMOOTH",
"560 557 OFFCURVE",
"511 632 OFFCURVE",
"334 632 CURVE SMOOTH",
"204 632 OFFCURVE",
"142 582 OFFCURVE",
"82 453 CURVE",
"173 421 LINE",
"212 505 OFFCURVE",
"242 530 OFFCURVE",
"329 530 CURVE SMOOTH",
"430 530 OFFCURVE",
"449 505 OFFCURVE",
"429 413 CURVE SMOOTH",
"421 377 LINE",
"284 377 LINE SMOOTH",
"112 377 OFFCURVE",
"47 338 OFFCURVE",
"15 186 CURVE SMOOTH",
"-16 43 OFFCURVE",
"38 -14 OFFCURVE",
"214 -14 CURVE SMOOTH"
);
},
{
closed = 1;
nodes = (
"114 78 OFFCURVE",
"96 97 OFFCURVE",
"112 170 CURVE SMOOTH",
"133 269 OFFCURVE",
"167 285 OFFCURVE",
"273 285 CURVE SMOOTH",
"402 285 LINE",
"390 230 LINE SMOOTH",
"366 115 OFFCURVE",
"326 78 OFFCURVE",
"217 78 CURVE SMOOTH"
);
}
);
width = 600;
}
);
unicode = 0061;
},
{
color = 4;
glyphname = ae;
lastChange = "2020-06-28 16:46:29 +0000";
layers = (
{
anchors = (
{
name = bottom;
position = "{234, 0}";
},
{
name = top;
position = "{366, 618}";
}
);
background = {
paths = (
{
closed = 1;
nodes = (
"387 638 OFFCURVE",
"347 602 OFFCURVE",
"332 525 CURVE",
"307 602 OFFCURVE",
"262 638 OFFCURVE",
"192 638 CURVE SMOOTH",
"119 638 OFFCURVE",
"72 594 OFFCURVE",
"45 499 CURVE",
"101 485 LINE",
"121 554 OFFCURVE",
"150 586 OFFCURVE",
"192 586 CURVE SMOOTH",
"263 586 OFFCURVE",
"296 534 OFFCURVE",
"296 422 CURVE SMOOTH",
"296 351 LINE",
"192 351 LINE SMOOTH",
"82 351 OFFCURVE",
"30 293 OFFCURVE",
"30 169 CURVE SMOOTH",
"30 45 OFFCURVE",
"82 -14 OFFCURVE",
"192 -14 CURVE SMOOTH",
"258 -14 OFFCURVE",
"303 24 OFFCURVE",
"332 104 CURVE",
"346 24 OFFCURVE",
"386 -14 OFFCURVE",
"456 -14 CURVE SMOOTH",
"503 -14 OFFCURVE",
"549 19 OFFCURVE",
"600 90 CURVE",
"554 121 LINE",
"511 65 OFFCURVE",
"479 38 OFFCURVE",
"456 38 CURVE SMOOTH",
"390 38 OFFCURVE",
"357 122 OFFCURVE",
"354 299 CURVE",
"620 299 LINE",
"621 530 OFFCURVE",
"569 638 OFFCURVE",
"456 638 CURVE SMOOTH"
);
},
{
closed = 1;
nodes = (
"364 511 OFFCURVE",
"396 586 OFFCURVE",
"456 586 CURVE SMOOTH",
"518 586 OFFCURVE",
"552 511 OFFCURVE",
"561 351 CURVE",
"355 351 LINE"
);
},
{
closed = 1;
nodes = (
"296 96 OFFCURVE",
"263 38 OFFCURVE",
"192 38 CURVE SMOOTH",
"121 38 OFFCURVE",
"88 80 OFFCURVE",
"88 169 CURVE SMOOTH",
"88 257 OFFCURVE",
"121 299 OFFCURVE",
"192 299 CURVE SMOOTH",
"296 299 LINE",
"296 219 LINE SMOOTH"
);
}
);
};
layerId = "7C079D0C-96CD-4BD8-8800-0621C7635A78";
paths = (
{
closed = 1;
nodes = (
"174 -14 OFFCURVE",
"223 12 OFFCURVE",
"259 99 CURVE",
"267 16 OFFCURVE",
"304 -14 OFFCURVE",
"375 -14 CURVE SMOOTH",
"445 -14 OFFCURVE",
"490 8 OFFCURVE",
"533 84 CURVE",
"496 115 LINE",
"460 53 OFFCURVE",
"423 32 OFFCURVE",
"376 32 CURVE SMOOTH",
"291 32 OFFCURVE",
"279 96 OFFCURVE",
"323 306 CURVE",
"583 306 LINE",
"636 552 OFFCURVE",
"616 632 OFFCURVE",
"503 632 CURVE SMOOTH",
"424 632 OFFCURVE",
"387 605 OFFCURVE",
"347 519 CURVE",
"347 601 OFFCURVE",
"307 632 OFFCURVE",
"224 632 CURVE SMOOTH",
"146 632 OFFCURVE",
"109 602 OFFCURVE",
"66 500 CURVE",
"114 484 LINE",
"145 560 OFFCURVE",
"172 586 OFFCURVE",
"223 586 CURVE SMOOTH",
"308 586 OFFCURVE",
"325 548 OFFCURVE",
"298 421 CURVE SMOOTH",
"284 354 LINE",
"197 354 LINE SMOOTH",
"65 354 OFFCURVE",
"16 311 OFFCURVE",
"-14 170 CURVE SMOOTH",
"-43 31 OFFCURVE",
"-16 -14 OFFCURVE",
"96 -14 CURVE SMOOTH"
);
},
{
closed = 1;
nodes = (
"28 32 OFFCURVE",
"14 62 OFFCURVE",
"35 162 CURVE SMOOTH",
"58 272 OFFCURVE",
"98 308 OFFCURVE",
"192 308 CURVE SMOOTH",
"274 308 LINE",
"255 218 LINE SMOOTH",
"225 78 OFFCURVE",
"186 32 OFFCURVE",
"97 32 CURVE SMOOTH"
);
},
{
closed = 1;
nodes = (
"371 528 OFFCURVE",
"413 586 OFFCURVE",
"502 586 CURVE SMOOTH",
"572 586 OFFCURVE",
"581 532 OFFCURVE",
"544 356 CURVE",
"333 352 LINE"
);
}
);
width = 600;
},
{
anchors = (
{
name = bottom;
position = "{234, 0}";
},
{
name = top;
position = "{366, 618}";
}
);
background = {
paths = (
{
closed = 1;
nodes = (
"387 638 OFFCURVE",
"347 602 OFFCURVE",
"332 525 CURVE",
"307 602 OFFCURVE",
"262 638 OFFCURVE",
"192 638 CURVE SMOOTH",
"119 638 OFFCURVE",
"72 594 OFFCURVE",
"45 499 CURVE",
"101 485 LINE",
"121 554 OFFCURVE",
"150 586 OFFCURVE",
"192 586 CURVE SMOOTH",
"263 586 OFFCURVE",
"296 534 OFFCURVE",
"296 422 CURVE SMOOTH",
"296 351 LINE",
"192 351 LINE SMOOTH",
"82 351 OFFCURVE",
"30 293 OFFCURVE",
"30 169 CURVE SMOOTH",
"30 45 OFFCURVE",
"82 -14 OFFCURVE",
"192 -14 CURVE SMOOTH",
"258 -14 OFFCURVE",
"303 24 OFFCURVE",
"332 104 CURVE",
"346 24 OFFCURVE",
"386 -14 OFFCURVE",
"456 -14 CURVE SMOOTH",
"503 -14 OFFCURVE",
"549 19 OFFCURVE",
"600 90 CURVE",
"554 121 LINE",
"511 65 OFFCURVE",
"479 38 OFFCURVE",
"456 38 CURVE SMOOTH",
"390 38 OFFCURVE",
"357 122 OFFCURVE",
"354 299 CURVE",
"620 299 LINE",
"621 530 OFFCURVE",
"569 638 OFFCURVE",
"456 638 CURVE SMOOTH"
);
},
{
closed = 1;
nodes = (
"364 511 OFFCURVE",
"396 586 OFFCURVE",
"456 586 CURVE SMOOTH",
"518 586 OFFCURVE",
"552 511 OFFCURVE",
"561 351 CURVE",
"355 351 LINE"
);
},
{
closed = 1;
nodes = (
"296 96 OFFCURVE",
"263 38 OFFCURVE",
"192 38 CURVE SMOOTH",
"121 38 OFFCURVE",
"88 80 OFFCURVE",
"88 169 CURVE SMOOTH",
"88 257 OFFCURVE",
"121 299 OFFCURVE",
"192 299 CURVE SMOOTH",
"296 299 LINE",
"296 219 LINE SMOOTH"
);
}
);
};
layerId = "291433DC-531A-45CC-B814-57D397372F12";
paths = (
{
closed = 1;
nodes = (
"172 -14 OFFCURVE",
"212 4 OFFCURVE",
"255 61 CURVE",
"276 10 OFFCURVE",
"308 -14 OFFCURVE",
"374 -14 CURVE SMOOTH",
"464 -14 OFFCURVE",
"518 16 OFFCURVE",
"562 113 CURVE",
"489 173 LINE",
"454 98 OFFCURVE",
"423 78 OFFCURVE",
"377 78 CURVE SMOOTH",
"317 78 OFFCURVE",
"312 125 OFFCURVE",
"343 281 CURVE",
"594 281 LINE",
"650 533 OFFCURVE",
"626 632 OFFCURVE",
"494 632 CURVE SMOOTH",
"428 632 OFFCURVE",
"390 616 OFFCURVE",
"350 564 CURVE",
"333 610 OFFCURVE",
"297 632 OFFCURVE",
"224 632 CURVE SMOOTH",
"133 632 OFFCURVE",
"88 591 OFFCURVE",
"38 462 CURVE",
"132 430 LINE",
"165 519 OFFCURVE",
"185 540 OFFCURVE",
"221 540 CURVE SMOOTH",
"287 540 OFFCURVE",
"295 516 OFFCURVE",
"273 420 CURVE SMOOTH",
"263 377 LINE",
"204 377 LINE SMOOTH",
"62 377 OFFCURVE",
"6 336 OFFCURVE",
"-26 185 CURVE SMOOTH",
"-56 44 OFFCURVE",
"-20 -14 OFFCURVE",
"104 -14 CURVE SMOOTH"
);
},
{
closed = 1;
nodes = (
"62 78 OFFCURVE",
"54 94 OFFCURVE",
"70 169 CURVE SMOOTH",
"92 269 OFFCURVE",
"119 285 OFFCURVE",
"193 285 CURVE SMOOTH",
"244 285 LINE",
"232 231 LINE SMOOTH",
"206 113 OFFCURVE",
"180 78 OFFCURVE",
"107 78 CURVE SMOOTH"
);
},
{
closed = 1;
nodes = (
"391 496 OFFCURVE",
"422 540 OFFCURVE",
"491 540 CURVE SMOOTH",
"532 540 OFFCURVE",
"539 504 OFFCURVE",
"515 381 CURVE",
"363 373 LINE"
);
}
);
width = 600;
}
);
unicode = 00E6;
},
{
color = 4;
glyphname = b;
lastChange = "2019-11-05 07:05:31 +0000";
layers = (
{
anchors = (
{
name = bottom;
position = "{234, 0}";
},
{
name = top;
position = "{447, 1000}";
}
);
layerId = "7C079D0C-96CD-4BD8-8800-0621C7635A78";
paths = (
{
closed = 1;
nodes = (
"403 -14 OFFCURVE",
"467 61 OFFCURVE",
"519 304 CURVE SMOOTH",
"572 552 OFFCURVE",
"537 632 OFFCURVE",
"376 632 CURVE SMOOTH",
"306 632 OFFCURVE",
"245 613 OFFCURVE",
"203 548 CURVE",
"257 800 LINE",
"207 800 LINE",
"54 73 LINE",
"94 8 OFFCURVE",
"140 -14 OFFCURVE",
"248 -14 CURVE SMOOTH"
);
},
{
closed = 1;
nodes = (
"172 32 OFFCURVE",
"137 44 OFFCURVE",
"104 86 CURVE",
"175 412 LINE SMOOTH",
"203 543 OFFCURVE",
"252 586 OFFCURVE",
"375 586 CURVE SMOOTH",
"493 586 OFFCURVE",
"515 521 OFFCURVE",
"471 312 CURVE SMOOTH",
"426 100 OFFCURVE",
"371 32 OFFCURVE",
"249 32 CURVE SMOOTH"
);
}
);
width = 600;
},
{
anchors = (
{
name = bottom;
position = "{234, 0}";
},
{
name = top;
position = "{447, 1000}";
}
);
layerId = "291433DC-531A-45CC-B814-57D397372F12";
paths = (
{
closed = 1;
nodes = (
"423 -14 OFFCURVE",
"494 71 OFFCURVE",
"543 300 CURVE SMOOTH",
"594 538 OFFCURVE",
"551 632 OFFCURVE",
"372 632 CURVE SMOOTH",
"319 632 OFFCURVE",
"274 622 OFFCURVE",
"236 597 CURVE",
"282 800 LINE",
"182 800 LINE",
"34 90 LINE",
"78 15 OFFCURVE",
"133 -14 OFFCURVE",
"252 -14 CURVE SMOOTH"
);
},
{
closed = 1;
nodes = (
"190 78 OFFCURVE",
"162 84 OFFCURVE",
"134 116 CURVE",
"195 387 LINE SMOOTH",
"220 506 OFFCURVE",
"259 540 OFFCURVE",
"369 540 CURVE SMOOTH",
"467 540 OFFCURVE",
"483 489 OFFCURVE",
"446 316 CURVE SMOOTH",
"408 136 OFFCURVE",
"361 78 OFFCURVE",
"255 78 CURVE SMOOTH"
);
}
);
width = 600;
}
);
unicode = 0062;
},
{
color = 4;
glyphname = c;
lastChange = "2019-11-05 07:05:31 +0000";
layers = (
{
anchors = (
{
name = bottom;
position = "{234, 0}";
},
{
name = top;
position = "{366, 618}";
}
);
layerId = "7C079D0C-96CD-4BD8-8800-0621C7635A78";
paths = (
{
closed = 1;
nodes = (
"348 -14 OFFCURVE",
"401 9 OFFCURVE",
"471 87 CURVE",
"432 116 LINE",
"374 54 OFFCURVE",
"331 32 OFFCURVE",
"255 32 CURVE SMOOTH",
"116 32 OFFCURVE",
"88 96 OFFCURVE",
"132 305 CURVE SMOOTH",
"177 518 OFFCURVE",
"239 586 OFFCURVE",
"385 586 CURVE SMOOTH",
"457 586 OFFCURVE",
"488 569 OFFCURVE",
"518 507 CURVE",
"563 528 LINE",
"526 606 OFFCURVE",
"485 632 OFFCURVE",
"386 632 CURVE SMOOTH",
"207 632 OFFCURVE",
"135 556 OFFCURVE",
"84 313 CURVE SMOOTH",
"31 66 OFFCURVE",
"72 -14 OFFCURVE",
"254 -14 CURVE SMOOTH"
);
}
);
width = 600;
},
{
anchors = (
{
name = bottom;
position = "{234, 0}";
},
{
name = top;
position = "{366, 618}";
}
);
layerId = "291433DC-531A-45CC-B814-57D397372F12";
paths = (
{
closed = 1;
nodes = (
"367 -14 OFFCURVE",
"428 17 OFFCURVE",
"512 116 CURVE",
"436 172 LINE",
"372 100 OFFCURVE",
"337 78 OFFCURVE",
"261 78 CURVE SMOOTH",
"141 78 OFFCURVE",
"120 128 OFFCURVE",
"156 301 CURVE SMOOTH",
"195 482 OFFCURVE",
"248 540 OFFCURVE",
"379 540 CURVE SMOOTH",
"448 540 OFFCURVE",
"469 525 OFFCURVE",
"500 453 CURVE",
"590 497 LINE",
"548 596 OFFCURVE",
"498 632 OFFCURVE",
"382 632 CURVE SMOOTH",
"188 632 OFFCURVE",
"109 547 OFFCURVE",
"60 317 CURVE SMOOTH",
"9 79 OFFCURVE",
"59 -14 OFFCURVE",
"258 -14 CURVE SMOOTH"
);
}
);
width = 600;
}
);
unicode = 0063;
},
{
color = 4;
glyphname = d;
lastChange = "2019-11-05 07:05:31 +0000";
layers = (
{
anchors = (
{
name = bottom;
position = "{234, 0}";
},
{
name = center;
position = "{300, 309}";
},
{
name = top;
position = "{447, 1000}";
},
{
name = topright;
position = "{646, 618}";
}
);
layerId = "7C079D0C-96CD-4BD8-8800-0621C7635A78";
paths = (
{
closed = 1;
nodes = (
"305 -14 OFFCURVE",
"367 0 OFFCURVE",
"407 50 CURVE",
"395 0 LINE",
"445 0 LINE",
"615 800 LINE",
"565 800 LINE",
"509 540 LINE",
"497 608 OFFCURVE",
"441 632 OFFCURVE",
"359 632 CURVE SMOOTH",
"199 632 OFFCURVE",
"132 556 OFFCURVE",
"81 312 CURVE SMOOTH",
"28 65 OFFCURVE",
"65 -14 OFFCURVE",
"231 -14 CURVE SMOOTH"
);
},
{
closed = 1;
nodes = (
"109 32 OFFCURVE",
"85 96 OFFCURVE",
"129 304 CURVE SMOOTH",
"174 517 OFFCURVE",
"231 586 OFFCURVE",
"358 586 CURVE SMOOTH",
"454 586 OFFCURVE",
"511 544 OFFCURVE",
"484 418 CURVE SMOOTH",
"421 122 LINE SMOOTH",
"407 54 OFFCURVE",
"321 32 OFFCURVE",
"232 32 CURVE SMOOTH"
);
}
);
width = 600;
},
{
anchors = (
{
name = bottom;
position = "{234, 0}";
},
{
name = center;
position = "{300, 309}";
},
{
name = top;
position = "{447, 1000}";
},
{
name = topright;
position = "{646, 618}";
}
);
layerId = "291433DC-531A-45CC-B814-57D397372F12";
paths = (
{
closed = 1;
nodes = (
"291 -14 OFFCURVE",
"339 -6 OFFCURVE",
"377 15 CURVE",
"369 0 LINE",
"470 0 LINE",
"640 800 LINE",
"540 800 LINE",
"493 591 LINE",
"464 617 OFFCURVE",
"419 632 OFFCURVE",
"355 632 CURVE SMOOTH",
"179 632 OFFCURVE",
"105 546 OFFCURVE",
"56 316 CURVE SMOOTH",
"6 79 OFFCURVE",
"51 -14 OFFCURVE",
"235 -14 CURVE SMOOTH"
);
},
{
closed = 1;
nodes = (
"135 78 OFFCURVE",
"117 128 OFFCURVE",
"153 300 CURVE SMOOTH",
"192 481 OFFCURVE",
"241 540 OFFCURVE",
"352 540 CURVE SMOOTH",
"445 540 OFFCURVE",
"476 498 OFFCURVE",
"455 397 CURVE SMOOTH",
"402 147 LINE SMOOTH",
"393 105 OFFCURVE",
"337 78 OFFCURVE",
"238 78 CURVE SMOOTH"
);
}
);
width = 600;
}
);
unicode = 0064;
},
{
color = 4;
glyphname = eth;
lastChange = "2019-11-05 07:05:31 +0000";
layers = (
{
layerId = "7C079D0C-96CD-4BD8-8800-0621C7635A78";
paths = (
{
closed = 1;
nodes = (
"404 -14 OFFCURVE",
"469 47 OFFCURVE",
"511 245 CURVE SMOOTH",
"554 447 OFFCURVE",
"512 512 OFFCURVE",
"339 512 CURVE SMOOTH",
"170 512 OFFCURVE",
"105 451 OFFCURVE",
"63 253 CURVE SMOOTH",
"20 51 OFFCURVE",
"62 -14 OFFCURVE",
"236 -14 CURVE SMOOTH"
);
},
{
closed = 1;
nodes = (
"106 32 OFFCURVE",
"77 82 OFFCURVE",
"111 245 CURVE SMOOTH",
"147 412 OFFCURVE",
"202 466 OFFCURVE",
"338 466 CURVE SMOOTH",
"468 466 OFFCURVE",
"498 416 OFFCURVE",
"463 253 CURVE SMOOTH",
"428 86 OFFCURVE",
"372 32 OFFCURVE",
"237 32 CURVE SMOOTH"
);
},
{
closed = 1;
nodes = (
"512 247 LINE",
"593 628 OFFCURVE",
"467 800 OFFCURVE",
"249 800 CURVE",
"244 754 LINE",
"431 754 OFFCURVE",
"537 603 OFFCURVE",
"463 251 CURVE"
);
},
{
closed = 1;
nodes = (
"588 760 LINE",
"572 800 LINE",
"246 638 LINE",
"263 598 LINE"
);
}
);
width = 600;
},
{
layerId = "291433DC-531A-45CC-B814-57D397372F12";
paths = (
{
closed = 1;
nodes = (
"422 -14 OFFCURVE",
"496 56 OFFCURVE",
"536 241 CURVE SMOOTH",
"577 435 OFFCURVE",
"525 513 OFFCURVE",
"335 513 CURVE SMOOTH",
"153 513 OFFCURVE",
"78 443 OFFCURVE",
"39 257 CURVE SMOOTH",
"-2 64 OFFCURVE",
"50 -14 OFFCURVE",
"240 -14 CURVE SMOOTH"
);
},
{
closed = 1;
nodes = (
"130 78 OFFCURVE",
"109 115 OFFCURVE",
"136 241 CURVE SMOOTH",
"164 376 OFFCURVE",
"211 421 OFFCURVE",
"332 421 CURVE SMOOTH",
"445 421 OFFCURVE",
"466 384 OFFCURVE",
"439 257 CURVE SMOOTH",
"410 123 OFFCURVE",
"364 78 OFFCURVE",
"243 78 CURVE SMOOTH"
);
},
{
closed = 1;
nodes = (
"534 232 LINE",
"618 599 OFFCURVE",
"501 815 OFFCURVE",
"222 800 CURVE",
"211 708 LINE",
"426 724 OFFCURVE",
"508 554 OFFCURVE",
"435 240 CURVE"
);
},
{
closed = 1;
nodes = (
"614 720 LINE",
"580 800 LINE",
"208 614 LINE",
"241 534 LINE"
);
}
);
width = 600;
}
);
unicode = 00F0;
},
{
color = 4;
glyphname = dcaron;
lastChange = "2019-11-05 07:05:31 +0000";
layers = (
{
components = (
{
name = quotesingle;
transform = "{0.8, 0, 0, 0.8, 342, 160}";
}
);
layerId = "7C079D0C-96CD-4BD8-8800-0621C7635A78";
paths = (
{
closed = 1;
nodes = (
"255 -14 OFFCURVE",
"317 0 OFFCURVE",
"357 50 CURVE",
"345 0 LINE",
"395 0 LINE",
"565 800 LINE",
"515 800 LINE",
"459 540 LINE",
"447 608 OFFCURVE",
"391 632 OFFCURVE",
"319 632 CURVE SMOOTH",
"169 632 OFFCURVE",
"102 556 OFFCURVE",
"51 312 CURVE SMOOTH",
"-2 65 OFFCURVE",
"35 -14 OFFCURVE",
"191 -14 CURVE SMOOTH"
);
},
{
closed = 1;
nodes = (
"79 32 OFFCURVE",
"55 96 OFFCURVE",
"99 304 CURVE SMOOTH",
"144 517 OFFCURVE",
"201 586 OFFCURVE",
"318 586 CURVE SMOOTH",
"404 586 OFFCURVE",
"461 544 OFFCURVE",
"434 418 CURVE SMOOTH",
"371 122 LINE SMOOTH",
"357 54 OFFCURVE",
"271 32 OFFCURVE",
"192 32 CURVE SMOOTH"
);
}
);
width = 600;
},
{
components = (
{
name = quotesingle;
transform = "{0.8, 0, 0, 0.8, 340, 160}";
}
);
layerId = "291433DC-531A-45CC-B814-57D397372F12";
paths = (
{
closed = 1;
nodes = (
"211 -14 OFFCURVE",
"249 -6 OFFCURVE",
"287 15 CURVE",
"279 0 LINE",
"380 0 LINE",
"550 800 LINE",
"450 800 LINE",
"403 591 LINE",
"374 617 OFFCURVE",
"339 632 OFFCURVE",
"285 632 CURVE SMOOTH",
"129 632 OFFCURVE",
"55 546 OFFCURVE",
"6 316 CURVE SMOOTH",
"-44 79 OFFCURVE",
"1 -14 OFFCURVE",
"165 -14 CURVE SMOOTH"
);
},
{
closed = 1;
nodes = (
"85 78 OFFCURVE",
"67 128 OFFCURVE",
"103 300 CURVE SMOOTH",
"142 481 OFFCURVE",
"191 540 OFFCURVE",
"282 540 CURVE SMOOTH",
"355 540 OFFCURVE",
"386 498 OFFCURVE",
"365 397 CURVE SMOOTH",
"312 147 LINE SMOOTH",
"303 105 OFFCURVE",
"247 78 OFFCURVE",
"168 78 CURVE SMOOTH"
);
}
);
width = 600;
}
);
unicode = 010F;
},
{
color = 4;
glyphname = dcroat;
lastChange = "2019-11-05 07:05:31 +0000";
layers = (
{
components = (
{
name = d;
}
);
layerId = "7C079D0C-96CD-4BD8-8800-0621C7635A78";
paths = (
{
closed = 1;
nodes = (
"649 682 LINE",
"659 728 LINE",
"419 728 LINE",
"409 682 LINE"
);
}
);
width = 600;
},
{
components = (
{
name = d;
}
);
layerId = "291433DC-531A-45CC-B814-57D397372F12";
paths = (
{
closed = 1;
nodes = (
"669 657 LINE",
"689 749 LINE",
"394 749 LINE",
"374 657 LINE"
);
}
);
width = 600;
}
);
unicode = 0111;
},
{
color = 4;
glyphname = e;
lastChange = "2019-11-05 07:05:31 +0000";
layers = (
{
anchors = (
{
name = bottom;
position = "{234, 0}";
},
{
name = ogonek;
position = "{307, -3}";
},
{
name = top;
position = "{366, 618}";
}
);
layerId = "7C079D0C-96CD-4BD8-8800-0621C7635A78";
paths = (
{
closed = 1;
nodes = (
"336 -14 OFFCURVE",
"389 8 OFFCURVE",
"462 84 CURVE",
"425 115 LINE",
"363 53 OFFCURVE",
"319 32 OFFCURVE",
"240 32 CURVE SMOOTH",
"104 32 OFFCURVE",
"76 99 OFFCURVE",
"122 314 CURVE SMOOTH",
"166 520 OFFCURVE",
"226 586 OFFCURVE",
"366 586 CURVE SMOOTH",
"480 586 OFFCURVE",
"506 532 OFFCURVE",
"478 356 CURVE",
"110 354 LINE",
"100 308 LINE",
"518 306 LINE",
"571 552 OFFCURVE",
"534 632 OFFCURVE",
"367 632 CURVE SMOOTH",
"194 632 OFFCURVE",
"123 556 OFFCURVE",
"72 313 CURVE SMOOTH",
"19 66 OFFCURVE",
"60 -14 OFFCURVE",
"239 -14 CURVE SMOOTH"
);
}
);
width = 600;
},
{
anchors = (
{
name = bottom;
position = "{234, 0}";
},
{
name = ogonek;
position = "{300, 3}";
},
{
name = top;
position = "{366, 618}";
}
);
layerId = "291433DC-531A-45CC-B814-57D397372F12";
paths = (
{
closed = 1;
nodes = (
"354 -14 OFFCURVE",
"417 16 OFFCURVE",
"502 112 CURVE",
"429 171 LINE",
"362 99 OFFCURVE",
"327 78 OFFCURVE",
"246 78 CURVE SMOOTH",
"130 78 OFFCURVE",
"108 131 OFFCURVE",
"146 310 CURVE SMOOTH",
"183 484 OFFCURVE",
"235 540 OFFCURVE",
"360 540 CURVE SMOOTH",
"451 540 OFFCURVE",
"473 504 OFFCURVE",
"458 381 CURVE",
"89 377 LINE",
"70 285 LINE",
"538 281 LINE",
"595 533 OFFCURVE",
"553 632 OFFCURVE",
"363 632 CURVE SMOOTH",
"175 632 OFFCURVE",
"96 546 OFFCURVE",
"48 317 CURVE SMOOTH",
"-3 80 OFFCURVE",
"47 -14 OFFCURVE",
"243 -14 CURVE SMOOTH"
);
}
);
width = 600;
}
);
unicode = 0065;
},
{
color = 4;
glyphname = f;
lastChange = "2019-11-05 07:05:31 +0000";
layers = (
{
anchors = (
{
name = bottom;
position = "{234, 0}";
},
{
name = top;
position = "{447, 1000}";
}
);
layerId = "7C079D0C-96CD-4BD8-8800-0621C7635A78";
paths = (
{
closed = 1;
nodes = (
"176 0 LINE",
"306 608 LINE SMOOTH",
"331 728 OFFCURVE",
"376 768 OFFCURVE",
"484 768 CURVE SMOOTH",
"560 768 OFFCURVE",
"586 756 OFFCURVE",
"594 711 CURVE",
"642 723 LINE",
"631 791 OFFCURVE",
"593 814 OFFCURVE",
"485 814 CURVE SMOOTH",
"343 814 OFFCURVE",
"289 767 OFFCURVE",
"256 612 CURVE SMOOTH",
"126 0 LINE"
);
},
{
closed = 1;
nodes = (
"449 446 LINE",
"459 492 LINE",
"107 492 LINE",
"97 446 LINE"
);
}
);
width = 600;
},
{
anchors = (
{
name = bottom;
position = "{234, 0}";
},
{
name = top;
position = "{447, 1000}";
}
);
layerId = "291433DC-531A-45CC-B814-57D397372F12";
paths = (
{
closed = 1;
nodes = (
"201 0 LINE",
"325 583 LINE SMOOTH",
"348 691 OFFCURVE",
"383 722 OFFCURVE",
"478 722 CURVE SMOOTH",
"555 722 OFFCURVE",
"563 713 OFFCURVE",
"568 660 CURVE",
"665 684 LINE",
"657 778 OFFCURVE",
"611 814 OFFCURVE",
"481 814 CURVE SMOOTH",
"326 814 OFFCURVE",
"262 758 OFFCURVE",
"227 591 CURVE SMOOTH",
"101 0 LINE"
);
},
{
closed = 1;
nodes = (
"469 423 LINE",
"489 515 LINE",
"87 515 LINE",
"67 423 LINE"
);
}
);
width = 600;
}
);
unicode = 0066;
},
{
color = 4;
glyphname = g;
lastChange = "2019-11-05 07:05:31 +0000";
layers = (
{
anchors = (
{
name = bottom;
position = "{181, -250}";
},
{
name = top;
position = "{366, 618}";
}
);
layerId = "7C079D0C-96CD-4BD8-8800-0621C7635A78";
paths = (
{
closed = 1;
nodes = (
"352 -196 OFFCURVE",
"412 -140 OFFCURVE",
"451 45 CURVE SMOOTH",
"573 618 LINE",
"523 618 LINE",
"510 564 LINE",
"492 614 OFFCURVE",
"435 632 OFFCURVE",
"355 632 CURVE SMOOTH",
"195 632 OFFCURVE",
"132 571 OFFCURVE",
"90 374 CURVE SMOOTH",
"37 126 OFFCURVE",
"74 46 OFFCURVE",
"239 46 CURVE SMOOTH",
"316 46 OFFCURVE",
"379 66 OFFCURVE",
"421 134 CURVE",
"400 40 LINE SMOOTH",
"369 -103 OFFCURVE",
"319 -150 OFFCURVE",
"196 -150 CURVE SMOOTH",
"143 -150 OFFCURVE",
"118 -141 OFFCURVE",
"94 -111 CURVE",
"53 -140 LINE",
"86 -182 OFFCURVE",
"120 -196 OFFCURVE",
"195 -196 CURVE SMOOTH"
);
},
{
closed = 1;
nodes = (
"118 92 OFFCURVE",
"94 157 OFFCURVE",
"138 366 CURVE SMOOTH",
"173 532 OFFCURVE",
"227 586 OFFCURVE",
"354 586 CURVE SMOOTH",
"439 586 OFFCURVE",
"512 568 OFFCURVE",
"498 500 CURVE SMOOTH",
"447 264 LINE SMOOTH",
"421 138 OFFCURVE",
"341 92 OFFCURVE",
"241 92 CURVE SMOOTH"
);
}
);
width = 600;
},
{
anchors = (
{
name = bottom;
position = "{181, -250}";
},
{
name = top;
position = "{366, 618}";
}
);
layerId = "291433DC-531A-45CC-B814-57D397372F12";
paths = (
{
closed = 1;
nodes = (
"369 -196 OFFCURVE",
"439 -131 OFFCURVE",
"478 56 CURVE SMOOTH",
"598 618 LINE",
"498 618 LINE",
"490 599 LINE",
"461 620 OFFCURVE",
"415 632 OFFCURVE",
"351 632 CURVE SMOOTH",
"177 632 OFFCURVE",
"105 562 OFFCURVE",
"66 378 CURVE SMOOTH",
"13 130 OFFCURVE",
"57 36 OFFCURVE",
"241 36 CURVE SMOOTH",
"297 36 OFFCURVE",
"346 47 OFFCURVE",
"385 73 CURVE",
"377 55 LINE SMOOTH",
"352 -66 OFFCURVE",
"311 -104 OFFCURVE",
"202 -104 CURVE SMOOTH",
"148 -104 OFFCURVE",
"133 -97 OFFCURVE",
"106 -57 CURVE",
"26 -113 LINE",
"65 -173 OFFCURVE",
"106 -196 OFFCURVE",
"199 -196 CURVE SMOOTH"
);
},
{
closed = 1;
nodes = (
"141 128 OFFCURVE",
"123 179 OFFCURVE",
"162 362 CURVE SMOOTH",
"191 495 OFFCURVE",
"235 540 OFFCURVE",
"348 540 CURVE SMOOTH",
"439 540 OFFCURVE",
"477 521 OFFCURVE",
"468 479 CURVE SMOOTH",
"426 279 LINE SMOOTH",
"404 178 OFFCURVE",
"345 128 OFFCURVE",
"244 128 CURVE SMOOTH"
);
}
);
width = 600;
}
);
unicode = 0067;
},
{
color = 4;
glyphname = h;
lastChange = "2019-11-05 07:05:31 +0000";
layers = (
{
anchors = (
{
name = bottom;
position = "{234, 0}";
},
{
name = center;
position = "{341, 500}";
},
{
name = top;
position = "{226, 750}";
}
);
layerId = "7C079D0C-96CD-4BD8-8800-0621C7635A78";
paths = (
{
closed = 1;
nodes = (
"88 0 LINE",
"176 412 LINE SMOOTH",
"205 550 OFFCURVE",
"252 586 OFFCURVE",
"373 586 CURVE SMOOTH",
"490 586 OFFCURVE",
"513 525 OFFCURVE",
"471 326 CURVE SMOOTH",
"401 0 LINE",
"451 0 LINE",
"520 322 LINE SMOOTH",
"570 556 OFFCURVE",
"534 632 OFFCURVE",
"374 632 CURVE SMOOTH",
"300 632 OFFCURVE",
"240 615 OFFCURVE",
"205 554 CURVE",
"258 800 LINE",
"208 800 LINE",
"38 0 LINE"
);
}
);
width = 600;
},
{
anchors = (
{
name = bottom;
position = "{234, 0}";
},
{
name = center;
position = "{341, 500}";
},
{
name = top;
position = "{230, 770}";
}
);
layerId = "291433DC-531A-45CC-B814-57D397372F12";
paths = (
{
closed = 1;
nodes = (
"113 0 LINE",
"196 387 LINE SMOOTH",
"222 510 OFFCURVE",
"256 540 OFFCURVE",
"367 540 CURVE SMOOTH",
"464 540 OFFCURVE",
"481 493 OFFCURVE",
"441 305 CURVE SMOOTH",
"376 0 LINE",
"476 0 LINE",
"539 297 LINE SMOOTH",
"592 542 OFFCURVE",
"548 632 OFFCURVE",
"370 632 CURVE SMOOTH",
"318 632 OFFCURVE",
"274 624 OFFCURVE",
"238 602 CURVE",
"283 800 LINE",
"183 800 LINE",
"13 0 LINE"
);
}
);
width = 600;
}
);
unicode = 0068;
},
{
color = 4;
glyphname = hbar;
lastChange = "2019-11-05 07:05:31 +0000";
layers = (
{
components = (
{
name = h;
}
);
layerId = "7C079D0C-96CD-4BD8-8800-0621C7635A78";
paths = (
{
closed = 1;
nodes = (
"349 682 LINE",
"359 728 LINE",
"119 728 LINE",
"109 682 LINE"
);
}
);
width = 600;
},
{
components = (
{
name = h;
}
);
layerId = "291433DC-531A-45CC-B814-57D397372F12";
paths = (
{
closed = 1;
nodes = (
"374 657 LINE",
"394 749 LINE",
"99 749 LINE",
"79 657 LINE"
);
}
);
width = 600;
}
);
unicode = 0127;
},
{
color = 4;
glyphname = idotless;
lastChange = "2020-01-14 06:54:31 +0000";
layers = (
{
anchors = (
{
name = bottom;
position = "{244, 0}";
},
{
name = ogonek;
position = "{296, 0}";
},
{
name = top;
position = "{374, 618}";
}
);
layerId = "7C079D0C-96CD-4BD8-8800-0621C7635A78";
paths = (
{
closed = 1;
nodes = (
"285 0 LINE",
"417 618 LINE",
"241 618 LINE",
"231 572 LINE",
"387 572 LINE",
"363 603 LINE",
"235 0 LINE"
);
},
{
closed = 1;
nodes = (
"460 0 LINE",
"470 46 LINE",
"70 46 LINE",
"60 0 LINE"
);
}
);
width = 600;
},
{
anchors = (
{
name = bottom;
position = "{244, 0}";
},
{
name = ogonek;
position = "{286, 0}";
},
{
name = top;
position = "{374, 618}";
}
);
layerId = "291433DC-531A-45CC-B814-57D397372F12";
paths = (
{
closed = 1;
nodes = (
"310 0 LINE",
"442 618 LINE",
"216 618 LINE",
"196 526 LINE",
"384 526 LINE",
"334 589 LINE",
"210 0 LINE"
);
},
{
closed = 1;
nodes = (
"485 0 LINE",
"505 92 LINE",
"55 92 LINE",
"35 0 LINE"
);
}
);
width = 600;
}
);
unicode = 0131;
},
{
color = 4;
glyphname = jdotless;
lastChange = "2020-01-14 06:55:17 +0000";
layers = (
{
anchors = (
{
name = bottom;
position = "{181, -250}";
},
{
name = top;
position = "{464, 618}";
}
);
layerId = "7C079D0C-96CD-4BD8-8800-0621C7635A78";
paths = (
{
closed = 1;
nodes = (
"292 -196 OFFCURVE",
"352 -140 OFFCURVE",
"391 45 CURVE SMOOTH",
"513 618 LINE",
"337 618 LINE",
"327 572 LINE",
"453 572 LINE",
"342 49 LINE SMOOTH",
"310 -101 OFFCURVE",
"259 -150 OFFCURVE",
"136 -150 CURVE SMOOTH",
"83 -150 OFFCURVE",
"58 -141 OFFCURVE",
"34 -111 CURVE",
"-7 -140 LINE",
"26 -182 OFFCURVE",
"60 -196 OFFCURVE",
"135 -196 CURVE SMOOTH"
);
}
);
width = 600;
},
{
anchors = (
{
name = bottom;
position = "{181, -250}";
},
{
name = top;
position = "{464, 618}";
}
);
layerId = "291433DC-531A-45CC-B814-57D397372F12";
paths = (
{
closed = 1;
nodes = (
"309 -196 OFFCURVE",
"379 -131 OFFCURVE",
"420 66 CURVE SMOOTH",
"538 618 LINE",
"312 618 LINE",
"292 526 LINE",
"418 526 LINE",
"322 74 LINE SMOOTH",
"293 -64 OFFCURVE",
"251 -104 OFFCURVE",
"142 -104 CURVE SMOOTH",
"88 -104 OFFCURVE",
"73 -97 OFFCURVE",
"46 -57 CURVE",
"-34 -113 LINE",
"5 -173 OFFCURVE",
"46 -196 OFFCURVE",
"139 -196 CURVE SMOOTH"
);
}
);
width = 600;
}
);
unicode = 0237;
},
{
color = 4;
glyphname = k;
lastChange = "2019-11-05 07:05:31 +0000";
layers = (
{
anchors = (
{
name = bottom;
position = "{234, 0}";
},
{
name = top;
position = "{447, 1000}";
}
);
layerId = "7C079D0C-96CD-4BD8-8800-0621C7635A78";
paths = (
{
closed = 1;
nodes = (
"110 0 LINE",
"176 308 LINE",
"233 308 LINE",
"404 0 LINE",
"463 0 LINE",
"278 333 LINE",
"555 618 LINE",
"494 618 LINE",
"237 354 LINE",
"186 354 LINE",
"280 800 LINE",
"230 800 LINE",
"60 0 LINE"
);
}
);
width = 600;
},
{
anchors = (
{
name = bottom;
position = "{234, 0}";
},
{
name = top;
position = "{447, 1000}";
}
);
layerId = "291433DC-531A-45CC-B814-57D397372F12";
paths = (
{
closed = 1;
nodes = (
"135 0 LINE",
"196 285 LINE",
"215 285 LINE",
"392 0 LINE",
"510 0 LINE",
"309 333 LINE",
"604 618 LINE",
"480 618 LINE",
"228 377 LINE",
"215 377 LINE",
"305 800 LINE",
"205 800 LINE",
"35 0 LINE"
);
}
);
width = 600;
}
);
unicode = 006B;
},
{
color = 4;
glyphname = l;
lastChange = "2019-12-18 07:03:36 +0000";
layers = (
{
anchors = (
{
name = bottom;
position = "{294, 0}";
},
{
name = center;
position = "{341, 500}";
},
{
name = top;
position = "{404, 800}";
},
{
name = topright;
position = "{684, 800}";
}
);
layerId = "7C079D0C-96CD-4BD8-8800-0621C7635A78";
paths = (
{
closed = 1;
nodes = (
"376 -14 OFFCURVE",
"405 -5 OFFCURVE",
"461 25 CURVE",
"438 71 LINE",
"398 42 OFFCURVE",
"375 32 OFFCURVE",
"343 32 CURVE SMOOTH",
"268 32 OFFCURVE",
"255 73 OFFCURVE",
"284 209 CURVE SMOOTH",
"409 800 LINE",
"233 800 LINE",
"224 754 LINE",
"350 754 LINE",
"235 213 LINE SMOOTH",
"198 42 OFFCURVE",
"224 -14 OFFCURVE",
"342 -14 CURVE SMOOTH"
);
}
);
width = 600;
},
{
anchors = (
{
name = bottom;
position = "{304, 0}";
},
{
name = center;
position = "{341, 500}";
},
{
name = top;
position = "{404, 800}";
},
{
name = topright;
position = "{684, 800}";
}
);
layerId = "291433DC-531A-45CC-B814-57D397372F12";
paths = (
{
closed = 1;
nodes = (
"396 -14 OFFCURVE",
"433 -2 OFFCURVE",
"499 42 CURVE",
"455 132 LINE",
"402 93 OFFCURVE",
"376 78 OFFCURVE",
"347 78 CURVE SMOOTH",
"295 78 OFFCURVE",
"287 107 OFFCURVE",
"309 210 CURVE SMOOTH",
"434 800 LINE",
"208 800 LINE",
"189 708 LINE",
"315 708 LINE",
"211 218 LINE SMOOTH",
"174 45 OFFCURVE",
"208 -14 OFFCURVE",
"344 -14 CURVE SMOOTH"
);
}
);
width = 600;
}
);
unicode = 006C;
},
{
color = 4;
glyphname = lslash;
lastChange = "2019-11-05 07:05:31 +0000";
layers = (
{
components = (
{
name = l;
}
);
layerId = "7C079D0C-96CD-4BD8-8800-0621C7635A78";
paths = (
{
closed = 1;
nodes = (
"466 518 LINE",
"475 565 LINE",
"169 450 LINE",
"159 403 LINE"
);
}
);
width = 600;
},
{
components = (
{
name = l;
}
);
layerId = "291433DC-531A-45CC-B814-57D397372F12";
paths = (
{
closed = 1;
nodes = (
"488 503 LINE",
"507 600 LINE",
"147 465 LINE",
"127 368 LINE"
);
}
);
width = 600;
}
);
unicode = 0142;
},
{
color = 4;
glyphname = m;
lastChange = "2019-11-05 07:05:31 +0000";
layers = (
{
anchors = (
{
name = bottom;
position = "{234, 0}";
},
{
name = top;
position = "{366, 618}";
}
);
layerId = "7C079D0C-96CD-4BD8-8800-0621C7635A78";
paths = (
{
closed = 1;
nodes = (
"42 0 LINE",
"128 402 LINE SMOOTH",
"156 533 OFFCURVE",
"191 576 OFFCURVE",
"267 576 CURVE SMOOTH",
"317 576 OFFCURVE",
"323 536 OFFCURVE",
"295 402 CURVE SMOOTH",
"209 0 LINE",
"259 0 LINE",
"345 402 LINE SMOOTH",
"373 533 OFFCURVE",
"408 576 OFFCURVE",
"484 576 CURVE SMOOTH",
"534 576 OFFCURVE",
"540 537 OFFCURVE",
"513 408 CURVE SMOOTH",
"426 0 LINE",
"476 0 LINE",
"562 404 LINE SMOOTH",
"599 575 OFFCURVE",
"581 631 OFFCURVE",
"493 631 CURVE SMOOTH",
"434 631 OFFCURVE",
"401 611 OFFCURVE",
"351 538 CURVE",
"348 607 OFFCURVE",
"329 631 OFFCURVE",
"276 631 CURVE SMOOTH",
"224 631 OFFCURVE",
"197 616 OFFCURVE",
"161 562 CURVE",
"174 618 LINE",
"124 618 LINE",
"-8 0 LINE"
);
}
);
width = 600;
},
{
anchors = (
{
name = bottom;
position = "{234, 0}";
},
{
name = top;
position = "{366, 618}";
}
);
layerId = "291433DC-531A-45CC-B814-57D397372F12";
paths = (
{
closed = 1;
nodes = (
"66 0 LINE",
"149 387 LINE SMOOTH",
"171 493 OFFCURVE",
"201 530 OFFCURVE",
"260 530 CURVE SMOOTH",
"290 530 OFFCURVE",
"290 497 OFFCURVE",
"265 381 CURVE SMOOTH",
"184 0 LINE",
"284 0 LINE",
"367 387 LINE SMOOTH",
"389 493 OFFCURVE",
"419 530 OFFCURVE",
"478 530 CURVE SMOOTH",
"508 530 OFFCURVE",
"508 499 OFFCURVE",
"485 387 CURVE SMOOTH",
"402 0 LINE",
"502 0 LINE",
"583 379 LINE SMOOTH",
"623 567 OFFCURVE",
"599 631 OFFCURVE",
"489 631 CURVE SMOOTH",
"436 631 OFFCURVE",
"408 620 OFFCURVE",
"361 571 CURVE",
"349 614 OFFCURVE",
"326 631 OFFCURVE",
"271 631 CURVE SMOOTH",
"244 631 OFFCURVE",
"225 627 OFFCURVE",
"192 610 CURVE",
"199 618 LINE",
"98 618 LINE",
"-34 0 LINE"
);
}
);
width = 600;
}
);
unicode = 006D;
},
{
color = 4;
glyphname = n;
lastChange = "2019-11-05 07:05:31 +0000";
layers = (
{
anchors = (
{
name = bottom;
position = "{234, 0}";
},
{
name = top;
position = "{366, 618}";
}
);
layerId = "7C079D0C-96CD-4BD8-8800-0621C7635A78";
paths = (
{
closed = 1;
nodes = (
"82 0 LINE",
"170 412 LINE SMOOTH",
"200 552 OFFCURVE",
"252 586 OFFCURVE",
"391 586 CURVE SMOOTH",
"492 586 OFFCURVE",
"513 544 OFFCURVE",
"483 405 CURVE SMOOTH",
"397 0 LINE",
"447 0 LINE",
"533 401 LINE SMOOTH",
"570 575 OFFCURVE",
"536 632 OFFCURVE",
"392 632 CURVE SMOOTH",
"295 632 OFFCURVE",
"248 611 OFFCURVE",
"199 556 CURVE",
"214 618 LINE",
"164 618 LINE",
"32 0 LINE"
);
}
);
width = 600;
},
{
anchors = (
{
name = bottom;
position = "{234, 0}";
},
{
name = top;
position = "{366, 618}";
}
);
layerId = "291433DC-531A-45CC-B814-57D397372F12";
paths = (
{
closed = 1;
nodes = (
"107 0 LINE",
"190 387 LINE SMOOTH",
"215 508 OFFCURVE",
"252 540 OFFCURVE",
"385 540 CURVE SMOOTH",
"465 540 OFFCURVE",
"480 506 OFFCURVE",
"454 384 CURVE SMOOTH",
"372 0 LINE",
"472 0 LINE",
"552 376 LINE SMOOTH",
"593 568 OFFCURVE",
"552 632 OFFCURVE",
"388 632 CURVE SMOOTH",
"320 632 OFFCURVE",
"271 619 OFFCURVE",
"230 594 CURVE",
"239 618 LINE",
"139 618 LINE",
"7 0 LINE"
);
}
);
width = 600;
}
);
unicode = 006E;
},
{
color = 4;
glyphname = eng;
lastChange = "2019-11-05 07:05:31 +0000";
layers = (
{
components = (
{
name = n;
}
);
layerId = "7C079D0C-96CD-4BD8-8800-0621C7635A78";
paths = (
{
closed = 1;
nodes = (
"382 -155 OFFCURVE",
"422 -120 OFFCURVE",
"447 0 CURVE",
"397 0 LINE",
"376 -95 OFFCURVE",
"355 -109 OFFCURVE",
"280 -109 CURVE",
"275 -155 LINE"
);
}
);
width = 600;
},
{
components = (
{
name = n;
}
);
layerId = "291433DC-531A-45CC-B814-57D397372F12";
paths = (
{
closed = 1;
nodes = (
"396 -177 OFFCURVE",
"445 -131 OFFCURVE",
"472 0 CURVE",
"372 0 LINE",
"358 -61 OFFCURVE",
"336 -85 OFFCURVE",
"258 -85 CURVE",
"247 -177 LINE"
);
}
);
width = 600;
}
);
unicode = 014B;
},
{
color = 4;
glyphname = o;
lastChange = "2019-11-05 07:05:31 +0000";
layers = (
{
anchors = (
{
name = bottom;
position = "{234, 0}";
},
{
name = center;
position = "{300, 309}";
},
{
name = ogonek;
position = "{476, 10}";
},
{
name = top;
position = "{366, 618}";
},
{
name = topright;
position = "{646, 618}";
}
);
layerId = "7C079D0C-96CD-4BD8-8800-0621C7635A78";
paths = (
{
closed = 1;
nodes = (
"396 -14 OFFCURVE",
"463 62 OFFCURVE",
"514 305 CURVE SMOOTH",
"567 552 OFFCURVE",
"530 632 OFFCURVE",
"364 632 CURVE SMOOTH",
"204 632 OFFCURVE",
"137 556 OFFCURVE",
"86 313 CURVE SMOOTH",
"33 66 OFFCURVE",
"70 -14 OFFCURVE",
"236 -14 CURVE SMOOTH"
);
},
{
closed = 1;
nodes = (
"114 32 OFFCURVE",
"90 96 OFFCURVE",
"134 305 CURVE SMOOTH",
"179 518 OFFCURVE",
"236 586 OFFCURVE",
"363 586 CURVE SMOOTH",
"486 586 OFFCURVE",
"510 522 OFFCURVE",
"466 313 CURVE SMOOTH",
"421 100 OFFCURVE",
"364 32 OFFCURVE",
"237 32 CURVE SMOOTH"
);
}
);
width = 600;
},
{
anchors = (
{
name = bottom;
position = "{234, 0}";
},
{
name = center;
position = "{300, 309}";
},
{
name = ogonek;
position = "{476, 10}";
},
{
name = top;
position = "{366, 618}";
},
{
name = topright;
position = "{646, 618}";
}
);
layerId = "291433DC-531A-45CC-B814-57D397372F12";
paths = (
{
closed = 1;
nodes = (
"416 -14 OFFCURVE",
"490 72 OFFCURVE",
"538 301 CURVE SMOOTH",
"589 538 OFFCURVE",
"544 632 OFFCURVE",
"360 632 CURVE SMOOTH",
"184 632 OFFCURVE",
"110 546 OFFCURVE",
"62 317 CURVE SMOOTH",
"11 80 OFFCURVE",
"56 -14 OFFCURVE",
"240 -14 CURVE SMOOTH"
);
},
{
closed = 1;
nodes = (
"140 78 OFFCURVE",
"122 128 OFFCURVE",
"158 301 CURVE SMOOTH",
"197 482 OFFCURVE",
"246 540 OFFCURVE",
"357 540 CURVE SMOOTH",
"460 540 OFFCURVE",
"478 490 OFFCURVE",
"442 317 CURVE SMOOTH",
"403 136 OFFCURVE",
"354 78 OFFCURVE",
"243 78 CURVE SMOOTH"
);
}
);
width = 600;
}
);
unicode = 006F;
},
{
color = 4;
glyphname = oslash;
lastChange = "2019-11-05 07:05:31 +0000";
layers = (
{
anchors = (
{
name = top;
position = "{366, 618}";
}
);
components = (
{
name = o;
}
);
layerId = "7C079D0C-96CD-4BD8-8800-0621C7635A78";
paths = (
{
closed = 1;
nodes = (
"62 -31 LINE",
"595 650 LINE",
"537 650 LINE",
"3 -31 LINE"
);
}
);
width = 600;
},
{
anchors = (
{
name = top;
position = "{366, 618}";
}
);
components = (
{
name = o;
}
);
layerId = "291433DC-531A-45CC-B814-57D397372F12";
paths = (
{
closed = 1;
nodes = (
"77 -31 LINE",
"637 650 LINE",
"521 650 LINE",
"-39 -31 LINE"
);
}
);
width = 600;
}
);
unicode = 00F8;
},
{
color = 4;
glyphname = oe;
lastChange = "2019-11-05 07:05:31 +0000";
layers = (
{
anchors = (
{
name = bottom;
position = "{234, 0}";
},
{
name = top;
position = "{366, 618}";
}
);
layerId = "7C079D0C-96CD-4BD8-8800-0621C7635A78";
paths = (
{
closed = 1;
nodes = (
"175 -14 OFFCURVE",
"210 11 OFFCURVE",
"257 97 CURVE",
"266 15 OFFCURVE",
"294 -14 OFFCURVE",
"374 -14 CURVE SMOOTH",
"431 -14 OFFCURVE",
"467 8 OFFCURVE",
"523 83 CURVE",
"486 115 LINE",
"440 53 OFFCURVE",
"413 32 OFFCURVE",
"375 32 CURVE SMOOTH",
"293 32 OFFCURVE",
"280 96 OFFCURVE",
"324 306 CURVE",
"583 306 LINE",
"636 552 OFFCURVE",
"617 632 OFFCURVE",
"502 632 CURVE SMOOTH",
"428 632 OFFCURVE",
"391 607 OFFCURVE",
"345 521 CURVE",
"335 603 OFFCURVE",
"309 632 OFFCURVE",
"236 632 CURVE SMOOTH",
"120 632 OFFCURVE",
"68 556 OFFCURVE",
"17 313 CURVE SMOOTH",
"-36 66 OFFCURVE",
"-14 -14 OFFCURVE",
"108 -14 CURVE SMOOTH"
);
},
{
closed = 1;
nodes = (
"30 32 OFFCURVE",
"21 96 OFFCURVE",
"65 305 CURVE SMOOTH",
"110 518 OFFCURVE",
"152 586 OFFCURVE",
"235 586 CURVE SMOOTH",
"311 586 OFFCURVE",
"320 522 OFFCURVE",
"276 313 CURVE SMOOTH",
"231 100 OFFCURVE",
"189 32 OFFCURVE",
"109 32 CURVE SMOOTH"
);
},
{
closed = 1;
nodes = (
"373 528 OFFCURVE",
"414 586 OFFCURVE",
"501 586 CURVE SMOOTH",
"571 586 OFFCURVE",
"580 532 OFFCURVE",
"543 356 CURVE",
"335 352 LINE"
);
}
);
width = 600;
},
{
anchors = (
{
name = bottom;
position = "{234, 0}";
},
{
name = top;
position = "{366, 618}";
}
);
layerId = "291433DC-531A-45CC-B814-57D397372F12";
paths = (
{
closed = 1;
nodes = (
"169 -37 OFFCURVE",
"205 -20 OFFCURVE",
"247 34 CURVE",
"263 -14 OFFCURVE",
"296 -37 OFFCURVE",
"368 -37 CURVE SMOOTH",
"435 -37 OFFCURVE",
"480 -6 OFFCURVE",
"547 89 CURVE",
"474 151 LINE",
"419 74 OFFCURVE",
"398 55 OFFCURVE",
"371 55 CURVE SMOOTH",
"313 55 OFFCURVE",
"308 103 OFFCURVE",
"344 281 CURVE",
"594 281 LINE",
"655 558 OFFCURVE",
"632 655 OFFCURVE",
"498 655 CURVE SMOOTH",
"434 655 OFFCURVE",
"398 638 OFFCURVE",
"355 584 CURVE",
"340 632 OFFCURVE",
"307 655 OFFCURVE",
"241 655 CURVE SMOOTH",
"113 655 OFFCURVE",
"55 570 OFFCURVE",
"2 317 CURVE SMOOTH",
"-54 56 OFFCURVE",
"-25 -37 OFFCURVE",
"111 -37 CURVE SMOOTH"
);
},
{
closed = 1;
nodes = (
"63 55 OFFCURVE",
"57 106 OFFCURVE",
"98 301 CURVE SMOOTH",
"141 504 OFFCURVE",
"179 563 OFFCURVE",
"238 563 CURVE SMOOTH",
"292 563 OFFCURVE",
"293 511 OFFCURVE",
"252 317 CURVE SMOOTH",
"209 115 OFFCURVE",
"176 55 OFFCURVE",
"114 55 CURVE SMOOTH"
);
},
{
closed = 1;
nodes = (
"398 519 OFFCURVE",
"428 563 OFFCURVE",
"495 563 CURVE SMOOTH",
"536 563 OFFCURVE",
"543 527 OFFCURVE",
"514 381 CURVE",
"365 373 LINE"
);
}
);
width = 600;
}
);
unicode = 0153;
},
{
color = 4;
glyphname = p;
lastChange = "2019-11-05 07:05:31 +0000";
layers = (
{
anchors = (
{
name = bottom;
position = "{234, 0}";
},
{
name = top;
position = "{366, 618}";
}
);
layerId = "7C079D0C-96CD-4BD8-8800-0621C7635A78";
paths = (
{
closed = 1;
nodes = (
"37 -182 LINE",
"93 78 LINE",
"105 10 OFFCURVE",
"161 -14 OFFCURVE",
"243 -14 CURVE SMOOTH",
"403 -14 OFFCURVE",
"470 62 OFFCURVE",
"521 306 CURVE SMOOTH",
"574 553 OFFCURVE",
"537 632 OFFCURVE",
"371 632 CURVE SMOOTH",
"297 632 OFFCURVE",
"235 618 OFFCURVE",
"195 568 CURVE",
"207 618 LINE",
"157 618 LINE",
"-13 -182 LINE"
);
},
{
closed = 1;
nodes = (
"148 32 OFFCURVE",
"91 74 OFFCURVE",
"118 200 CURVE SMOOTH",
"181 496 LINE SMOOTH",
"195 564 OFFCURVE",
"281 586 OFFCURVE",
"370 586 CURVE SMOOTH",
"493 586 OFFCURVE",
"517 522 OFFCURVE",
"473 314 CURVE SMOOTH",
"428 101 OFFCURVE",
"371 32 OFFCURVE",
"244 32 CURVE SMOOTH"
);
}
);
width = 600;
},
{
anchors = (
{
name = bottom;
position = "{234, 0}";
},
{
name = top;
position = "{366, 618}";
}
);
layerId = "291433DC-531A-45CC-B814-57D397372F12";
paths = (
{
closed = 1;
nodes = (
"62 -182 LINE",
"109 27 LINE",
"138 1 OFFCURVE",
"183 -14 OFFCURVE",
"247 -14 CURVE SMOOTH",
"423 -14 OFFCURVE",
"497 72 OFFCURVE",
"546 302 CURVE SMOOTH",
"596 539 OFFCURVE",
"551 632 OFFCURVE",
"367 632 CURVE SMOOTH",
"311 632 OFFCURVE",
"263 624 OFFCURVE",
"225 603 CURVE",
"233 618 LINE",
"132 618 LINE",
"-38 -182 LINE"
);
},
{
closed = 1;
nodes = (
"157 78 OFFCURVE",
"126 120 OFFCURVE",
"147 221 CURVE SMOOTH",
"200 471 LINE SMOOTH",
"209 513 OFFCURVE",
"265 540 OFFCURVE",
"364 540 CURVE SMOOTH",
"467 540 OFFCURVE",
"485 490 OFFCURVE",
"449 318 CURVE SMOOTH",
"410 137 OFFCURVE",
"361 78 OFFCURVE",
"250 78 CURVE SMOOTH"
);
}
);
width = 600;
}
);
unicode = 0070;
},
{
color = 4;
glyphname = thorn;
lastChange = "2019-11-05 07:05:31 +0000";
layers = (
{
anchors = (
{
name = bottom;
position = "{234, 0}";
},
{
name = top;
position = "{366, 618}";
}
);
layerId = "7C079D0C-96CD-4BD8-8800-0621C7635A78";
paths = (
{
closed = 1;
nodes = (
"37 -182 LINE",
"93 78 LINE",
"105 10 OFFCURVE",
"161 -14 OFFCURVE",
"243 -14 CURVE SMOOTH",
"403 -14 OFFCURVE",
"470 62 OFFCURVE",
"521 306 CURVE SMOOTH",
"574 553 OFFCURVE",
"537 632 OFFCURVE",
"371 632 CURVE SMOOTH",
"297 632 OFFCURVE",
"235 618 OFFCURVE",
"195 568 CURVE",
"245 800 LINE",
"195 800 LINE",
"-13 -182 LINE"
);
},
{
closed = 1;
nodes = (
"148 32 OFFCURVE",
"91 74 OFFCURVE",
"118 200 CURVE SMOOTH",
"181 496 LINE SMOOTH",
"195 564 OFFCURVE",
"281 586 OFFCURVE",
"370 586 CURVE SMOOTH",
"493 586 OFFCURVE",
"517 522 OFFCURVE",
"473 314 CURVE SMOOTH",
"428 101 OFFCURVE",
"371 32 OFFCURVE",
"244 32 CURVE SMOOTH"
);
}
);
width = 600;
},
{
anchors = (
{
name = bottom;
position = "{234, 0}";
},
{
name = top;
position = "{366, 618}";
}
);
layerId = "291433DC-531A-45CC-B814-57D397372F12";
paths = (
{
closed = 1;
nodes = (
"62 -182 LINE",
"109 27 LINE",
"138 1 OFFCURVE",
"183 -14 OFFCURVE",
"247 -14 CURVE SMOOTH",
"423 -14 OFFCURVE",
"497 72 OFFCURVE",
"546 302 CURVE SMOOTH",
"596 539 OFFCURVE",
"551 632 OFFCURVE",
"367 632 CURVE SMOOTH",
"311 632 OFFCURVE",
"263 624 OFFCURVE",
"225 603 CURVE",
"270 800 LINE",
"170 800 LINE",
"-38 -182 LINE"
);
},
{
closed = 1;
nodes = (
"157 78 OFFCURVE",
"126 120 OFFCURVE",
"147 221 CURVE SMOOTH",
"200 471 LINE SMOOTH",
"209 513 OFFCURVE",
"265 540 OFFCURVE",
"364 540 CURVE SMOOTH",
"467 540 OFFCURVE",
"485 490 OFFCURVE",
"449 318 CURVE SMOOTH",
"410 137 OFFCURVE",
"361 78 OFFCURVE",
"250 78 CURVE SMOOTH"
);
}
);
width = 600;
}
);
unicode = 00FE;
},
{
color = 4;
glyphname = q;
lastChange = "2019-11-05 07:05:31 +0000";
layers = (
{
anchors = (
{
name = bottom;
position = "{234, 0}";
},
{
name = top;
position = "{366, 618}";
}
);
layerId = "7C079D0C-96CD-4BD8-8800-0621C7635A78";
paths = (
{
closed = 1;
nodes = (
"405 -182 LINE",
"575 618 LINE",
"525 618 LINE",
"512 564 LINE",
"494 614 OFFCURVE",
"437 632 OFFCURVE",
"357 632 CURVE SMOOTH",
"197 632 OFFCURVE",
"131 557 OFFCURVE",
"79 314 CURVE SMOOTH",
"26 66 OFFCURVE",
"63 -14 OFFCURVE",
"229 -14 CURVE SMOOTH",
"305 -14 OFFCURVE",
"368 6 OFFCURVE",
"410 74 CURVE",
"355 -182 LINE"
);
},
{
closed = 1;
nodes = (
"107 32 OFFCURVE",
"83 97 OFFCURVE",
"127 306 CURVE SMOOTH",
"172 518 OFFCURVE",
"229 586 OFFCURVE",
"356 586 CURVE SMOOTH",
"441 586 OFFCURVE",
"514 568 OFFCURVE",
"500 500 CURVE SMOOTH",
"437 204 LINE SMOOTH",
"410 78 OFFCURVE",
"330 32 OFFCURVE",
"230 32 CURVE SMOOTH"
);
}
);
width = 600;
},
{
anchors = (
{
name = bottom;
position = "{234, 0}";
},
{
name = top;
position = "{366, 618}";
}
);
layerId = "291433DC-531A-45CC-B814-57D397372F12";
paths = (
{
closed = 1;
nodes = (
"430 -182 LINE",
"600 618 LINE",
"500 618 LINE",
"492 599 LINE",
"463 620 OFFCURVE",
"417 632 OFFCURVE",
"353 632 CURVE SMOOTH",
"177 632 OFFCURVE",
"104 547 OFFCURVE",
"55 318 CURVE SMOOTH",
"4 80 OFFCURVE",
"49 -14 OFFCURVE",
"233 -14 CURVE SMOOTH",
"289 -14 OFFCURVE",
"337 -3 OFFCURVE",
"376 23 CURVE",
"330 -182 LINE"
);
},
{
closed = 1;
nodes = (
"133 78 OFFCURVE",
"115 129 OFFCURVE",
"152 302 CURVE SMOOTH",
"190 482 OFFCURVE",
"239 540 OFFCURVE",
"350 540 CURVE SMOOTH",
"441 540 OFFCURVE",
"479 521 OFFCURVE",
"470 479 CURVE SMOOTH",
"417 229 LINE SMOOTH",
"395 128 OFFCURVE",
"337 78 OFFCURVE",
"236 78 CURVE SMOOTH"
);
}
);
width = 600;
}
);
unicode = 0071;
},
{
color = 4;
glyphname = r;
lastChange = "2019-11-05 07:05:31 +0000";
layers = (
{
anchors = (
{
name = bottom;
position = "{234, 0}";
},
{
name = top;
position = "{366, 618}";
}
);
layerId = "7C079D0C-96CD-4BD8-8800-0621C7635A78";
paths = (
{
closed = 1;
nodes = (
"109 0 LINE",
"185 358 LINE SMOOTH",
"201 432 OFFCURVE",
"278 586 OFFCURVE",
"415 586 CURVE SMOOTH",
"482 586 OFFCURVE",
"507 566 OFFCURVE",
"520 497 CURVE",
"566 513 LINE",
"547 602 OFFCURVE",
"511 632 OFFCURVE",
"416 632 CURVE SMOOTH",
"331 632 OFFCURVE",
"250 566 OFFCURVE",
"215 499 CURVE",
"241 618 LINE",
"191 618 LINE",
"59 0 LINE"
);
}
);
width = 600;
},
{
anchors = (
{
name = bottom;
position = "{234, 0}";
},
{
name = top;
position = "{366, 618}";
}
);
layerId = "291433DC-531A-45CC-B814-57D397372F12";
paths = (
{
closed = 1;
nodes = (
"134 0 LINE",
"203 323 LINE SMOOTH",
"227 438 OFFCURVE",
"289 540 OFFCURVE",
"409 540 CURVE SMOOTH",
"471 540 OFFCURVE",
"484 524 OFFCURVE",
"494 444 CURVE",
"589 477 LINE",
"569 589 OFFCURVE",
"525 632 OFFCURVE",
"412 632 CURVE SMOOTH",
"346 632 OFFCURVE",
"283 591 OFFCURVE",
"250 554 CURVE",
"266 618 LINE",
"166 618 LINE",
"34 0 LINE"
);
}
);
width = 600;
}
);
unicode = 0072;
},
{
color = 4;
glyphname = s;
lastChange = "2019-11-05 07:05:31 +0000";
layers = (
{
anchors = (
{
name = bottom;
position = "{234, 0}";
},
{
name = top;
position = "{366, 618}";
}
);
layerId = "7C079D0C-96CD-4BD8-8800-0621C7635A78";
paths = (
{
closed = 1;
nodes = (
"396 -14 OFFCURVE",
"463 27 OFFCURVE",
"492 163 CURVE SMOOTH",
"517 282 OFFCURVE",
"473 327 OFFCURVE",
"309 348 CURVE SMOOTH",
"200 364 OFFCURVE",
"173 400 OFFCURVE",
"185 456 CURVE SMOOTH",
"206 554 OFFCURVE",
"256 586 OFFCURVE",
"388 586 CURVE SMOOTH",
"465 586 OFFCURVE",
"497 570 OFFCURVE",
"520 515 CURVE",
"561 546 LINE",
"530 610 OFFCURVE",
"489 632 OFFCURVE",
"389 632 CURVE SMOOTH",
"224 632 OFFCURVE",
"164 593 OFFCURVE",
"137 464 CURVE SMOOTH",
"118 375 OFFCURVE",
"155 320 OFFCURVE",
"308 301 CURVE SMOOTH",
"430 285 OFFCURVE",
"462 256 OFFCURVE",
"444 171 CURVE SMOOTH",
"421 66 OFFCURVE",
"364 32 OFFCURVE",
"212 32 CURVE SMOOTH",
"141 32 OFFCURVE",
"112 51 OFFCURVE",
"93 116 CURVE",
"49 88 LINE",
"77 12 OFFCURVE",
"115 -14 OFFCURVE",
"211 -14 CURVE SMOOTH"
);
}
);
width = 600;
},
{
anchors = (
{
name = bottom;
position = "{234, 0}";
},
{
name = top;
position = "{366, 618}";
}
);
layerId = "291433DC-531A-45CC-B814-57D397372F12";
paths = (
{
closed = 1;
nodes = (
"412 -14 OFFCURVE",
"490 34 OFFCURVE",
"518 169 CURVE SMOOTH",
"547 303 OFFCURVE",
"490 346 OFFCURVE",
"313 371 CURVE SMOOTH",
"226 384 OFFCURVE",
"197 395 OFFCURVE",
"207 441 CURVE SMOOTH",
"223 515 OFFCURVE",
"261 540 OFFCURVE",
"382 540 CURVE SMOOTH",
"460 540 OFFCURVE",
"478 525 OFFCURVE",
"502 454 CURVE",
"586 519 LINE",
"551 601 OFFCURVE",
"502 632 OFFCURVE",
"385 632 CURVE SMOOTH",
"208 632 OFFCURVE",
"138 586 OFFCURVE",
"110 457 CURVE SMOOTH",
"87 345 OFFCURVE",
"150 297 OFFCURVE",
"304 279 CURVE SMOOTH",
"414 264 OFFCURVE",
"436 254 OFFCURVE",
"422 185 CURVE SMOOTH",
"405 106 OFFCURVE",
"361 78 OFFCURVE",
"218 78 CURVE SMOOTH",
"149 78 OFFCURVE",
"133 94 OFFCURVE",
"114 175 CURVE",
"25 117 LINE",
"56 22 OFFCURVE",
"103 -14 OFFCURVE",
"215 -14 CURVE SMOOTH"
);
}
);
width = 600;
}
);
unicode = 0073;
},
{
color = 4;
glyphname = germandbls;
lastChange = "2019-11-05 07:05:31 +0000";
layers = (
{
anchors = (
{
name = bottom;
position = "{234, 0}";
},
{
name = top;
position = "{366, 618}";
}
);
layerId = "7C079D0C-96CD-4BD8-8800-0621C7635A78";
paths = (
{
closed = 1;
nodes = (
"73 0 LINE",
"201 600 LINE SMOOTH",
"228 726 OFFCURVE",
"273 768 OFFCURVE",
"381 768 CURVE SMOOTH",
"504 768 OFFCURVE",
"533 730 OFFCURVE",
"507 606 CURVE SMOOTH",
"482 487 OFFCURVE",
"431 448 OFFCURVE",
"306 448 CURVE SMOOTH",
"299 448 LINE",
"289 402 LINE",
"326 402 LINE SMOOTH",
"451 402 OFFCURVE",
"480 361 OFFCURVE",
"452 228 CURVE SMOOTH",
"423 91 OFFCURVE",
"371 46 OFFCURVE",
"246 46 CURVE SMOOTH",
"193 46 LINE",
"183 0 LINE",
"240 0 LINE SMOOTH",
"403 0 OFFCURVE",
"464 52 OFFCURVE",
"500 220 CURVE SMOOTH",
"527 345 OFFCURVE",
"510 396 OFFCURVE",
"437 428 CURVE",
"508 462 OFFCURVE",
"535 503 OFFCURVE",
"555 598 CURVE SMOOTH",
"590 761 OFFCURVE",
"547 814 OFFCURVE",
"382 814 CURVE SMOOTH",
"240 814 OFFCURVE",
"186 765 OFFCURVE",
"152 604 CURVE SMOOTH",
"23 0 LINE"
);
}
);
width = 600;
},
{
anchors = (
{
name = bottom;
position = "{234, 0}";
},
{
name = top;
position = "{366, 618}";
}
);
layerId = "291433DC-531A-45CC-B814-57D397372F12";
paths = (
{
closed = 1;
nodes = (
"98 0 LINE",
"223 587 LINE SMOOTH",
"245 689 OFFCURVE",
"281 722 OFFCURVE",
"375 722 CURVE SMOOTH",
"482 722 OFFCURVE",
"501 696 OFFCURVE",
"481 599 CURVE SMOOTH",
"458 491 OFFCURVE",
"420 471 OFFCURVE",
"309 471 CURVE SMOOTH",
"278 471 LINE",
"259 379 LINE",
"323 379 LINE SMOOTH",
"433 379 OFFCURVE",
"455 362 OFFCURVE",
"430 243 CURVE SMOOTH",
"405 128 OFFCURVE",
"364 92 OFFCURVE",
"254 92 CURVE SMOOTH",
"198 92 LINE",
"178 0 LINE",
"243 0 LINE SMOOTH",
"421 0 OFFCURVE",
"491 60 OFFCURVE",
"527 227 CURVE SMOOTH",
"551 343 OFFCURVE",
"536 393 OFFCURVE",
"484 429 CURVE",
"540 466 OFFCURVE",
"560 502 OFFCURVE",
"577 583 CURVE SMOOTH",
"613 749 OFFCURVE",
"559 814 OFFCURVE",
"378 814 CURVE SMOOTH",
"223 814 OFFCURVE",
"159 756 OFFCURVE",
"125 595 CURVE SMOOTH",
"-2 0 LINE"
);
}
);
width = 600;
}
);
unicode = 00DF;
},
{
color = 4;
glyphname = t;
lastChange = "2019-11-05 07:05:31 +0000";
layers = (
{
anchors = (
{
name = bottom;
position = "{294, 0}";
},
{
name = center;
position = "{300, 309}";
},
{
name = top;
position = "{366, 618}";
},
{
name = topright;
position = "{646, 618}";
}
);
layerId = "7C079D0C-96CD-4BD8-8800-0621C7635A78";
paths = (
{
closed = 1;
nodes = (
"396 -14 OFFCURVE",
"438 5 OFFCURVE",
"479 73 CURVE",
"434 93 LINE",
"407 48 OFFCURVE",
"374 32 OFFCURVE",
"302 32 CURVE SMOOTH",
"213 32 OFFCURVE",
"197 82 OFFCURVE",
"222 202 CURVE SMOOTH",
"301 572 LINE",
"509 572 LINE",
"519 618 LINE",
"311 618 LINE",
"349 800 LINE",
"299 800 LINE",
"261 618 LINE",
"137 618 LINE",
"127 572 LINE",
"251 572 LINE",
"173 206 LINE SMOOTH",
"140 51 OFFCURVE",
"169 -14 OFFCURVE",
"301 -14 CURVE SMOOTH"
);
}
);
width = 600;
},
{
anchors = (
{
name = bottom;
position = "{294, 0}";
},
{
name = center;
position = "{300, 309}";
},
{
name = top;
position = "{366, 618}";
},
{
name = topright;
position = "{646, 618}";
}
);
layerId = "291433DC-531A-45CC-B814-57D397372F12";
paths = (
{
closed = 1;
nodes = (
"419 -14 OFFCURVE",
"469 14 OFFCURVE",
"518 108 CURVE",
"429 148 LINE",
"401 94 OFFCURVE",
"384 78 OFFCURVE",
"308 78 CURVE SMOOTH",
"241 78 OFFCURVE",
"228 109 OFFCURVE",
"252 223 CURVE SMOOTH",
"318 535 LINE",
"526 535 LINE",
"546 627 LINE",
"338 627 LINE",
"374 800 LINE",
"274 800 LINE",
"238 627 LINE",
"114 627 LINE",
"94 535 LINE",
"218 535 LINE",
"153 231 LINE SMOOTH",
"117 59 OFFCURVE",
"160 -14 OFFCURVE",
"305 -14 CURVE SMOOTH"
);
}
);
width = 600;
}
);
unicode = 0074;
},
{
color = 4;
glyphname = tbar;
lastChange = "2019-11-05 07:05:31 +0000";
layers = (
{
components = (
{
name = t;
}
);
layerId = "7C079D0C-96CD-4BD8-8800-0621C7635A78";
paths = (
{
closed = 1;
nodes = (
"463 354 LINE",
"472 400 LINE",
"90 400 LINE",
"81 354 LINE"
);
}
);
width = 600;
},
{
components = (
{
name = t;
}
);
layerId = "291433DC-531A-45CC-B814-57D397372F12";
paths = (
{
closed = 1;
nodes = (
"478 308 LINE",
"497 400 LINE",
"65 400 LINE",
"46 308 LINE"
);
}
);
width = 600;
}
);
unicode = 0167;
},
{
color = 4;
glyphname = u;
lastChange = "2019-11-05 07:05:31 +0000";
layers = (
{
anchors = (
{
name = bottom;
position = "{234, 0}";
},
{
name = ogonek;
position = "{420, 0}";
},
{
name = top;
position = "{366, 618}";
},
{
name = topright;
position = "{646, 618}";
}
);
layerId = "7C079D0C-96CD-4BD8-8800-0621C7635A78";
paths = (
{
closed = 1;
nodes = (
"316 -14 OFFCURVE",
"362 2 OFFCURVE",
"411 57 CURVE",
"397 0 LINE",
"447 0 LINE",
"579 618 LINE",
"529 618 LINE",
"437 185 LINE SMOOTH",
"412 70 OFFCURVE",
"359 32 OFFCURVE",
"220 32 CURVE SMOOTH",
"119 32 OFFCURVE",
"98 73 OFFCURVE",
"127 208 CURVE SMOOTH",
"214 618 LINE",
"164 618 LINE",
"77 212 LINE SMOOTH",
"41 42 OFFCURVE",
"75 -14 OFFCURVE",
"219 -14 CURVE SMOOTH"
);
}
);
width = 600;
},
{
anchors = (
{
name = bottom;
position = "{234, 0}";
},
{
name = ogonek;
position = "{416, -1}";
},
{
name = top;
position = "{366, 618}";
},
{
name = topright;
position = "{646, 618}";
}
);
layerId = "291433DC-531A-45CC-B814-57D397372F12";
paths = (
{
closed = 1;
nodes = (
"291 -14 OFFCURVE",
"338 -6 OFFCURVE",
"380 19 CURVE",
"372 0 LINE",
"472 0 LINE",
"604 618 LINE",
"504 618 LINE",
"417 210 LINE SMOOTH",
"395 109 OFFCURVE",
"354 78 OFFCURVE",
"226 78 CURVE SMOOTH",
"144 78 OFFCURVE",
"130 105 OFFCURVE",
"156 229 CURVE SMOOTH",
"239 618 LINE",
"139 618 LINE",
"58 237 LINE SMOOTH",
"19 54 OFFCURVE",
"63 -14 OFFCURVE",
"223 -14 CURVE SMOOTH"
);
}
);
width = 600;
}
);
unicode = 0075;
},
{
color = 4;
glyphname = v;
lastChange = "2019-11-05 07:05:31 +0000";
layers = (
{
anchors = (
{
name = bottom;
position = "{234, 0}";
},
{
name = top;
position = "{366, 618}";
}
);
layerId = "7C079D0C-96CD-4BD8-8800-0621C7635A78";
paths = (
{
closed = 1;
nodes = (
"261 0 LINE",
"597 618 LINE",
"544 618 LINE",
"250 83 LINE",
"184 618 LINE",
"134 618 LINE",
"207 0 LINE"
);
}
);
width = 600;
},
{
anchors = (
{
name = bottom;
position = "{234, 0}";
},
{
name = top;
position = "{366, 618}";
}
);
layerId = "291433DC-531A-45CC-B814-57D397372F12";
paths = (
{
closed = 1;
nodes = (
"281 0 LINE",
"632 618 LINE",
"525 618 LINE",
"263 151 LINE",
"201 618 LINE",
"101 618 LINE",
"189 0 LINE"
);
}
);
width = 600;
}
);
unicode = 0076;
},
{
color = 4;
glyphname = w;
lastChange = "2019-11-05 07:05:31 +0000";
layers = (
{
anchors = (
{
name = bottom;
position = "{234, 0}";
},
{
name = top;
position = "{366, 618}";
}
);
layerId = "7C079D0C-96CD-4BD8-8800-0621C7635A78";
paths = (
{
closed = 1;
nodes = (
"129 0 LINE",
"308 343 LINE",
"340 0 LINE",
"390 0 LINE",
"627 618 LINE",
"575 618 LINE",
"377 97 LINE",
"348 418 LINE",
"298 418 LINE",
"130 97 LINE",
"155 618 LINE",
"105 618 LINE",
"79 0 LINE"
);
}
);
width = 600;
},
{
anchors = (
{
name = bottom;
position = "{234, 0}";
},
{
name = top;
position = "{366, 618}";
}
);
layerId = "291433DC-531A-45CC-B814-57D397372F12";
paths = (
{
closed = 1;
nodes = (
"149 0 LINE",
"292 259 LINE",
"321 0 LINE",
"411 0 LINE",
"656 618 LINE",
"554 618 LINE",
"392 206 LINE",
"371 441 LINE",
"283 441 LINE",
"159 205 LINE",
"176 618 LINE",
"76 618 LINE",
"58 0 LINE"
);
}
);
width = 600;
}
);
unicode = 0077;
},
{
color = 4;
glyphname = x;
lastChange = "2019-11-05 07:05:31 +0000";
layers = (
{
anchors = (
{
name = bottom;
position = "{234, 0}";
},
{
name = top;
position = "{366, 618}";
}
);
layerId = "7C079D0C-96CD-4BD8-8800-0621C7635A78";
paths = (
{
closed = 1;
nodes = (
"524 618 LINE",
"580 618 LINE",
"76 0 LINE",
"20 0 LINE"
);
},
{
closed = 1;
nodes = (
"150 618 LINE",
"208 618 LINE",
"450 0 LINE",
"392 0 LINE"
);
}
);
width = 600;
},
{
anchors = (
{
name = bottom;
position = "{234, 0}";
},
{
name = top;
position = "{366, 618}";
}
);
layerId = "291433DC-531A-45CC-B814-57D397372F12";
paths = (
{
closed = 1;
nodes = (
"510 618 LINE",
"621 618 LINE",
"90 0 LINE",
"-21 0 LINE"
);
},
{
closed = 1;
nodes = (
"107 618 LINE",
"224 618 LINE",
"493 0 LINE",
"376 0 LINE"
);
}
);
width = 600;
}
);
unicode = 0078;
},
{
color = 4;
glyphname = y;
lastChange = "2019-11-05 07:05:31 +0000";
layers = (
{
anchors = (
{
name = bottom;
position = "{364, 0}";
},
{
name = top;
position = "{366, 618}";
}
);
layerId = "7C079D0C-96CD-4BD8-8800-0621C7635A78";
paths = (
{
closed = 1;
nodes = (
"144 -196 OFFCURVE",
"204 -151 OFFCURVE",
"283 -4 CURVE SMOOTH",
"617 618 LINE",
"564 618 LINE",
"272 71 LINE",
"216 618 LINE",
"165 618 LINE",
"231 -1 LINE",
"170 -113 OFFCURVE",
"121 -150 OFFCURVE",
"32 -150 CURVE SMOOTH",
"10 -150 OFFCURVE",
"-6 -146 OFFCURVE",
"-31 -130 CURVE",
"-57 -170 LINE",
"-30 -189 OFFCURVE",
"-9 -196 OFFCURVE",
"31 -196 CURVE SMOOTH"
);
}
);
width = 600;
},
{
anchors = (
{
name = bottom;
position = "{414, 0}";
},
{
name = top;
position = "{366, 618}";
}
);
layerId = "291433DC-531A-45CC-B814-57D397372F12";
paths = (
{
closed = 1;
nodes = (
"158 -196 OFFCURVE",
"223 -146 OFFCURVE",
"311 10 CURVE SMOOTH",
"652 618 LINE",
"544 618 LINE",
"288 153 LINE",
"235 618 LINE",
"133 618 LINE",
"210 24 LINE",
"155 -74 OFFCURVE",
"115 -104 OFFCURVE",
"38 -104 CURVE SMOOTH",
"17 -104 OFFCURVE",
"6 -100 OFFCURVE",
"-32 -74 CURVE",
"-83 -154 LINE",
"-47 -183 OFFCURVE",
"-19 -196 OFFCURVE",
"35 -196 CURVE SMOOTH"
);
}
);
width = 600;
}
);
unicode = 0079;
},
{
color = 4;
glyphname = z;
lastChange = "2019-11-05 07:05:31 +0000";
layers = (
{
anchors = (
{
name = bottom;
position = "{234, 0}";
},
{
name = center;
position = "{300, 309}";
},
{
name = top;
position = "{366, 618}";
}
);
layerId = "7C079D0C-96CD-4BD8-8800-0621C7635A78";
paths = (
{
closed = 1;
nodes = (
"432 0 LINE",
"442 46 LINE",
"114 46 LINE",
"557 587 LINE",
"563 618 LINE",
"168 618 LINE",
"158 572 LINE",
"484 572 LINE",
"41 31 LINE",
"35 0 LINE"
);
}
);
width = 600;
},
{
anchors = (
{
name = bottom;
position = "{234, 0}";
},
{
name = center;
position = "{300, 309}";
},
{
name = top;
position = "{366, 618}";
}
);
layerId = "291433DC-531A-45CC-B814-57D397372F12";
paths = (
{
closed = 1;
nodes = (
"457 0 LINE",
"477 92 LINE",
"167 92 LINE",
"576 558 LINE",
"588 618 LINE",
"143 618 LINE",
"123 526 LINE",
"431 526 LINE",
"22 60 LINE",
"10 0 LINE"
);
}
);
width = 600;
}
);
unicode = 007A;
},
{
color = 4;
glyphname = ordfeminine;
lastChange = "2019-11-05 07:05:31 +0000";
layers = (
{
components = (
{
name = hyphen;
transform = "{1, 0, 0, 1, -25, -141}";
}
);
layerId = "7C079D0C-96CD-4BD8-8800-0621C7635A78";
paths = (
{
closed = 1;
nodes = (
"359 371 OFFCURVE",
"388 385 OFFCURVE",
"426 439 CURVE",
"424 396 OFFCURVE",
"441 380 OFFCURVE",
"492 380 CURVE",
"498 427 LINE",
"469 428 OFFCURVE",
"464 434 OFFCURVE",
"469 459 CURVE SMOOTH",
"512 663 LINE SMOOTH",
"536 776 OFFCURVE",
"505 814 OFFCURVE",
"387 814 CURVE SMOOTH",
"304 814 OFFCURVE",
"267 791 OFFCURVE",
"226 711 CURVE",
"274 699 LINE",
"300 750 OFFCURVE",
"329 768 OFFCURVE",
"386 768 CURVE SMOOTH",
"462 768 OFFCURVE",
"480 745 OFFCURVE",
"463 667 CURVE SMOOTH",
"452 615 LINE",
"347 615 LINE SMOOTH",
"230 615 OFFCURVE",
"190 589 OFFCURVE",
"171 502 CURVE SMOOTH",
"150 403 OFFCURVE",
"182 371 OFFCURVE",
"301 371 CURVE SMOOTH"
);
},
{
closed = 1;
nodes = (
"226 417 OFFCURVE",
"207 434 OFFCURVE",
"219 494 CURVE SMOOTH",
"233 556 OFFCURVE",
"264 577 OFFCURVE",
"343 577 CURVE SMOOTH",
"444 577 LINE",
"435 533 LINE SMOOTH",
"416 446 OFFCURVE",
"383 417 OFFCURVE",
"303 417 CURVE SMOOTH"
);
}
);
width = 600;
},
{
components = (
{
name = hyphen;
transform = "{1, 0, 0, 1, -38, -200}";
}
);
layerId = "291433DC-531A-45CC-B814-57D397372F12";
paths = (
{
closed = 1;
nodes = (
"348 325 OFFCURVE",
"374 332 OFFCURVE",
"416 366 CURVE",
"425 342 OFFCURVE",
"452 332 OFFCURVE",
"520 335 CURVE",
"530 425 LINE",
"502 428 OFFCURVE",
"497 427 OFFCURVE",
"499 434 CURVE SMOOTH",
"542 638 LINE SMOOTH",
"570 769 OFFCURVE",
"532 814 OFFCURVE",
"393 814 CURVE SMOOTH",
"291 814 OFFCURVE",
"246 783 OFFCURVE",
"196 672 CURVE",
"291 648 LINE",
"316 701 OFFCURVE",
"342 722 OFFCURVE",
"390 722 CURVE SMOOTH",
"445 722 OFFCURVE",
"457 707 OFFCURVE",
"444 646 CURVE SMOOTH",
"437 615 LINE",
"355 615 LINE SMOOTH",
"219 615 OFFCURVE",
"174 585 OFFCURVE",
"152 483 CURVE SMOOTH",
"127 365 OFFCURVE",
"166 325 OFFCURVE",
"306 325 CURVE SMOOTH"
);
},
{
closed = 1;
nodes = (
"253 417 OFFCURVE",
"240 427 OFFCURVE",
"249 467 CURVE SMOOTH",
"259 514 OFFCURVE",
"285 531 OFFCURVE",
"345 531 CURVE SMOOTH",
"419 531 LINE",
"413 502 LINE SMOOTH",
"400 440 OFFCURVE",
"372 417 OFFCURVE",
"309 417 CURVE SMOOTH"
);
}
);
width = 600;
}
);
unicode = 00AA;
},
{
color = 4;
glyphname = ordmasculine;
lastChange = "2019-11-05 07:05:31 +0000";
layers = (
{
components = (
{
name = hyphen;
transform = "{1, 0, 0, 1, -30, -141}";
}
);
layerId = "7C079D0C-96CD-4BD8-8800-0621C7635A78";
paths = (
{
closed = 1;
nodes = (
"440 371 OFFCURVE",
"489 422 OFFCURVE",
"525 589 CURVE SMOOTH",
"561 759 OFFCURVE",
"530 814 OFFCURVE",
"403 814 CURVE SMOOTH",
"280 814 OFFCURVE",
"231 763 OFFCURVE",
"196 597 CURVE SMOOTH",
"160 426 OFFCURVE",
"190 371 OFFCURVE",
"317 371 CURVE SMOOTH"
);
},
{
closed = 1;
nodes = (
"234 417 OFFCURVE",
"216 457 OFFCURVE",
"245 589 CURVE SMOOTH",
"273 724 OFFCURVE",
"313 768 OFFCURVE",
"402 768 CURVE SMOOTH",
"487 768 OFFCURVE",
"504 728 OFFCURVE",
"476 597 CURVE SMOOTH",
"447 461 OFFCURVE",
"408 417 OFFCURVE",
"319 417 CURVE SMOOTH"
);
}
);
width = 600;
},
{
components = (
{
name = hyphen;
transform = "{1, 0, 0, 1, -43, -200}";
}
);
layerId = "291433DC-531A-45CC-B814-57D397372F12";
paths = (
{
closed = 1;
nodes = (
"452 325 OFFCURVE",
"505 380 OFFCURVE",
"544 562 CURVE SMOOTH",
"584 751 OFFCURVE",
"547 814 OFFCURVE",
"399 814 CURVE SMOOTH",
"259 814 OFFCURVE",
"206 759 OFFCURVE",
"167 578 CURVE SMOOTH",
"127 388 OFFCURVE",
"164 325 OFFCURVE",
"312 325 CURVE SMOOTH"
);
},
{
closed = 1;
nodes = (
"251 417 OFFCURVE",
"240 450 OFFCURVE",
"264 562 CURVE SMOOTH",
"289 682 OFFCURVE",
"324 722 OFFCURVE",
"396 722 CURVE SMOOTH",
"460 722 OFFCURVE",
"471 690 OFFCURVE",
"447 578 CURVE SMOOTH",
"422 458 OFFCURVE",
"387 417 OFFCURVE",
"315 417 CURVE SMOOTH"
);
}
);
width = 600;
}
);
unicode = 00BA;
},
{
color = 4;
glyphname = ainferior;
lastChange = "2019-11-05 07:05:31 +0000";
layers = (
{
layerId = "7C079D0C-96CD-4BD8-8800-0621C7635A78";
paths = (
{
closed = 1;
nodes = (
"269 -64 OFFCURVE",
"297 -51 OFFCURVE",
"333 0 CURVE",
"330 -43 OFFCURVE",
"348 -59 OFFCURVE",
"399 -59 CURVE",
"405 -12 LINE",
"376 -11 OFFCURVE",
"370 -5 OFFCURVE",
"376 20 CURVE SMOOTH",
"420 228 LINE SMOOTH",
"444 341 OFFCURVE",
"413 379 OFFCURVE",
"295 379 CURVE SMOOTH",
"212 379 OFFCURVE",
"174 356 OFFCURVE",
"133 276 CURVE",
"181 264 LINE",
"208 315 OFFCURVE",
"236 333 OFFCURVE",
"293 333 CURVE SMOOTH",
"369 333 OFFCURVE",
"387 310 OFFCURVE",
"371 232 CURVE SMOOTH",
"360 180 LINE",
"254 180 LINE SMOOTH",
"137 180 OFFCURVE",
"97 154 OFFCURVE",
"79 67 CURVE SMOOTH",
"58 -32 OFFCURVE",
"90 -64 OFFCURVE",
"209 -64 CURVE SMOOTH"
);
},
{
closed = 1;
nodes = (
"133 -18 OFFCURVE",
"114 -1 OFFCURVE",
"127 59 CURVE SMOOTH",
"140 121 OFFCURVE",
"172 142 OFFCURVE",
"251 142 CURVE SMOOTH",
"352 142 LINE",
"342 98 LINE SMOOTH",
"324 11 OFFCURVE",
"290 -18 OFFCURVE",
"210 -18 CURVE SMOOTH"
);
}
);
width = 600;
},
{
layerId = "291433DC-531A-45CC-B814-57D397372F12";
paths = (
{
closed = 1;
nodes = (
"270 -64 OFFCURVE",
"295 -59 OFFCURVE",
"333 -28 CURVE",
"340 -49 OFFCURVE",
"367 -59 OFFCURVE",
"436 -59 CURVE",
"447 32 LINE",
"419 35 OFFCURVE",
"414 34 OFFCURVE",
"415 41 CURVE SMOOTH",
"459 249 LINE SMOOTH",
"487 380 OFFCURVE",
"449 425 OFFCURVE",
"310 425 CURVE SMOOTH",
"208 425 OFFCURVE",
"163 394 OFFCURVE",
"113 283 CURVE",
"209 259 LINE",
"234 312 OFFCURVE",
"259 333 OFFCURVE",
"307 333 CURVE SMOOTH",
"362 333 OFFCURVE",
"374 318 OFFCURVE",
"361 257 CURVE SMOOTH",
"354 226 LINE",
"272 226 LINE SMOOTH",
"136 226 OFFCURVE",
"91 196 OFFCURVE",
"69 94 CURVE SMOOTH",
"44 -24 OFFCURVE",
"83 -64 OFFCURVE",
"223 -64 CURVE SMOOTH"
);
},
{
closed = 1;
nodes = (
"170 28 OFFCURVE",
"157 38 OFFCURVE",
"166 78 CURVE SMOOTH",
"176 125 OFFCURVE",
"203 142 OFFCURVE",
"263 142 CURVE SMOOTH",
"337 142 LINE",
"330 113 LINE SMOOTH",
"317 51 OFFCURVE",
"289 28 OFFCURVE",
"226 28 CURVE SMOOTH"
);
}
);
width = 600;
}
);
unicode = 2090;
},
{
color = 4;
glyphname = einferior;
lastChange = "2019-11-05 07:05:31 +0000";
layers = (
{
layerId = "7C079D0C-96CD-4BD8-8800-0621C7635A78";
paths = (
{
closed = 1;
nodes = (
"315 -64 OFFCURVE",
"352 -44 OFFCURVE",
"398 24 CURVE",
"363 55 LINE",
"328 1 OFFCURVE",
"296 -18 OFFCURVE",
"239 -18 CURVE SMOOTH",
"148 -18 OFFCURVE",
"130 22 OFFCURVE",
"158 152 CURVE SMOOTH",
"187 289 OFFCURVE",
"227 333 OFFCURVE",
"322 333 CURVE SMOOTH",
"389 333 OFFCURVE",
"405 301 OFFCURVE",
"394 194 CURVE",
"145 192 LINE",
"135 146 LINE",
"434 144 LINE",
"472 321 OFFCURVE",
"445 379 OFFCURVE",
"324 379 CURVE SMOOTH",
"195 379 OFFCURVE",
"144 325 OFFCURVE",
"107 151 CURVE SMOOTH",
"73 -11 OFFCURVE",
"105 -64 OFFCURVE",
"238 -64 CURVE SMOOTH"
);
}
);
width = 600;
},
{
layerId = "291433DC-531A-45CC-B814-57D397372F12";
paths = (
{
closed = 1;
nodes = (
"336 -64 OFFCURVE",
"380 -41 OFFCURVE",
"433 43 CURVE",
"361 106 LINE",
"326 50 OFFCURVE",
"297 28 OFFCURVE",
"245 28 CURVE SMOOTH",
"175 28 OFFCURVE",
"163 61 OFFCURVE",
"187 174 CURVE SMOOTH",
"213 293 OFFCURVE",
"248 333 OFFCURVE",
"326 333 CURVE SMOOTH",
"370 333 OFFCURVE",
"382 315 OFFCURVE",
"377 245 CURVE",
"131 241 LINE",
"111 149 LINE",
"459 145 LINE",
"504 355 OFFCURVE",
"475 425 OFFCURVE",
"329 425 CURVE SMOOTH",
"183 425 OFFCURVE",
"129 369 OFFCURVE",
"89 181 CURVE SMOOTH",
"50 -3 OFFCURVE",
"88 -64 OFFCURVE",
"242 -64 CURVE SMOOTH"
);
}
);
width = 600;
}
);
unicode = 2091;
},
{
color = 4;
glyphname = imod;
lastChange = "2019-11-05 07:05:31 +0000";
layers = (
{
layerId = "7C079D0C-96CD-4BD8-8800-0621C7635A78";
paths = (
{
closed = 1;
nodes = (
"346 284 LINE",
"436 708 LINE",
"302 708 LINE",
"292 662 LINE",
"406 662 LINE",
"382 693 LINE",
"296 284 LINE"
);
},
{
closed = 1;
nodes = (
"461 284 LINE",
"470 330 LINE",
"190 330 LINE",
"181 284 LINE"
);
},
{
closed = 1;
nodes = (
"446 795 OFFCURVE",
"456 802 OFFCURVE",
"462 830 CURVE SMOOTH",
"468 860 OFFCURVE",
"458 871 OFFCURVE",
"425 871 CURVE SMOOTH",
"396 871 OFFCURVE",
"387 864 OFFCURVE",
"381 838 CURVE SMOOTH",
"375 806 OFFCURVE",
"384 795 OFFCURVE",
"417 795 CURVE SMOOTH"
);
}
);
width = 600;
},
{
layerId = "291433DC-531A-45CC-B814-57D397372F12";
paths = (
{
closed = 1;
nodes = (
"359 228 LINE",
"459 698 LINE",
"275 698 LINE",
"255 606 LINE",
"401 606 LINE",
"351 669 LINE",
"259 228 LINE"
);
},
{
closed = 1;
nodes = (
"474 228 LINE",
"493 320 LINE",
"163 320 LINE",
"144 228 LINE"
);
},
{
closed = 1;
nodes = (
"464 775 OFFCURVE",
"481 787 OFFCURVE",
"488 823 CURVE SMOOTH",
"497 865 OFFCURVE",
"479 885 OFFCURVE",
"434 885 CURVE SMOOTH",
"397 885 OFFCURVE",
"381 873 OFFCURVE",
"374 839 CURVE SMOOTH",
"364 795 OFFCURVE",
"382 775 OFFCURVE",
"427 775 CURVE SMOOTH"
);
}
);
width = 600;
}
);
unicode = 2071;
},
{
color = 4;
glyphname = nmod;
lastChange = "2019-11-05 07:05:31 +0000";
layers = (
{
layerId = "7C079D0C-96CD-4BD8-8800-0621C7635A78";
paths = (
{
closed = 1;
nodes = (
"183 284 LINE",
"235 532 LINE SMOOTH",
"258 640 OFFCURVE",
"299 676 OFFCURVE",
"400 676 CURVE SMOOTH",
"470 676 OFFCURVE",
"482 636 OFFCURVE",
"455 505 CURVE SMOOTH",
"408 284 LINE",
"458 284 LINE",
"504 501 LINE SMOOTH",
"539 667 OFFCURVE",
"514 722 OFFCURVE",
"402 722 CURVE SMOOTH",
"335 722 OFFCURVE",
"302 710 OFFCURVE",
"263 666 CURVE",
"275 717 LINE",
"225 717 LINE",
"133 284 LINE"
);
}
);
width = 600;
},
{
layerId = "291433DC-531A-45CC-B814-57D397372F12";
paths = (
{
closed = 1;
nodes = (
"196 228 LINE",
"249 477 LINE SMOOTH",
"271 583 OFFCURVE",
"308 620 OFFCURVE",
"392 620 CURVE SMOOTH",
"441 620 OFFCURVE",
"447 588 OFFCURVE",
"423 474 CURVE SMOOTH",
"371 228 LINE",
"471 228 LINE",
"521 466 LINE SMOOTH",
"561 650 OFFCURVE",
"528 712 OFFCURVE",
"395 712 CURVE SMOOTH",
"367 712 OFFCURVE",
"341 704 OFFCURVE",
"287 674 CURVE",
"298 707 LINE",
"198 707 LINE",
"96 228 LINE"
);
}
);
width = 600;
}
);
unicode = 207F;
},
{
color = 4;
glyphname = oinferior;
lastChange = "2019-11-05 07:05:31 +0000";
layers = (
{
layerId = "7C079D0C-96CD-4BD8-8800-0621C7635A78";
paths = (
{
closed = 1;
nodes = (
"348 -64 OFFCURVE",
"397 -13 OFFCURVE",
"432 154 CURVE SMOOTH",
"468 324 OFFCURVE",
"438 379 OFFCURVE",
"311 379 CURVE SMOOTH",
"188 379 OFFCURVE",
"139 328 OFFCURVE",
"104 162 CURVE SMOOTH",
"67 -9 OFFCURVE",
"98 -64 OFFCURVE",
"225 -64 CURVE SMOOTH"
);
},
{
closed = 1;
nodes = (
"141 -18 OFFCURVE",
"124 22 OFFCURVE",
"152 154 CURVE SMOOTH",
"181 289 OFFCURVE",
"220 333 OFFCURVE",
"309 333 CURVE SMOOTH",
"394 333 OFFCURVE",
"412 293 OFFCURVE",
"384 162 CURVE SMOOTH",
"355 26 OFFCURVE",
"315 -18 OFFCURVE",
"226 -18 CURVE SMOOTH"
);
}
);
width = 600;
},
{
layerId = "291433DC-531A-45CC-B814-57D397372F12";
paths = (
{
closed = 1;
nodes = (
"369 -64 OFFCURVE",
"422 -9 OFFCURVE",
"461 173 CURVE SMOOTH",
"501 362 OFFCURVE",
"464 425 OFFCURVE",
"316 425 CURVE SMOOTH",
"176 425 OFFCURVE",
"123 370 OFFCURVE",
"84 189 CURVE SMOOTH",
"44 -1 OFFCURVE",
"81 -64 OFFCURVE",
"229 -64 CURVE SMOOTH"
);
},
{
closed = 1;
nodes = (
"168 28 OFFCURVE",
"157 61 OFFCURVE",
"181 173 CURVE SMOOTH",
"207 293 OFFCURVE",
"241 333 OFFCURVE",
"313 333 CURVE SMOOTH",
"377 333 OFFCURVE",
"388 301 OFFCURVE",
"364 189 CURVE SMOOTH",
"339 69 OFFCURVE",
"304 28 OFFCURVE",
"232 28 CURVE SMOOTH"
);
}
);
width = 600;
}
);
unicode = 2092;
},
{
color = 4;
glyphname = schwainferior;
lastChange = "2019-11-05 07:05:31 +0000";
layers = (
{
layerId = "7C079D0C-96CD-4BD8-8800-0621C7635A78";
paths = (
{
closed = 1;
nodes = (
"221 379 OFFCURVE",
"184 359 OFFCURVE",
"137 291 CURVE",
"173 260 LINE",
"208 314 OFFCURVE",
"239 333 OFFCURVE",
"296 333 CURVE SMOOTH",
"387 333 OFFCURVE",
"406 293 OFFCURVE",
"378 163 CURVE SMOOTH",
"349 26 OFFCURVE",
"308 -18 OFFCURVE",
"213 -18 CURVE SMOOTH",
"146 -18 OFFCURVE",
"130 14 OFFCURVE",
"142 121 CURVE",
"390 123 LINE",
"400 169 LINE",
"102 171 LINE",
"64 -6 OFFCURVE",
"91 -64 OFFCURVE",
"212 -64 CURVE SMOOTH",
"341 -64 OFFCURVE",
"391 -10 OFFCURVE",
"428 164 CURVE SMOOTH",
"463 326 OFFCURVE",
"431 379 OFFCURVE",
"298 379 CURVE SMOOTH"
);
}
);
width = 600;
},
{
layerId = "291433DC-531A-45CC-B814-57D397372F12";
paths = (
{
closed = 1;
nodes = (
"209 425 OFFCURVE",
"165 402 OFFCURVE",
"112 318 CURVE",
"184 255 LINE",
"219 311 OFFCURVE",
"248 333 OFFCURVE",
"300 333 CURVE SMOOTH",
"370 333 OFFCURVE",
"382 300 OFFCURVE",
"358 187 CURVE SMOOTH",
"333 68 OFFCURVE",
"297 28 OFFCURVE",
"219 28 CURVE SMOOTH",
"175 28 OFFCURVE",
"164 46 OFFCURVE",
"168 116 CURVE",
"415 120 LINE",
"434 212 LINE",
"86 216 LINE",
"42 6 OFFCURVE",
"70 -64 OFFCURVE",
"216 -64 CURVE SMOOTH",
"362 -64 OFFCURVE",
"417 -8 OFFCURVE",
"457 180 CURVE SMOOTH",
"496 364 OFFCURVE",
"457 425 OFFCURVE",
"303 425 CURVE SMOOTH"
);
}
);
width = 600;
}
);
unicode = 2094;
},
{
color = 4;
glyphname = xinferior;
lastChange = "2019-11-05 07:05:31 +0000";
layers = (
{
layerId = "7C079D0C-96CD-4BD8-8800-0621C7635A78";
paths = (
{
closed = 1;
nodes = (
"423 374 LINE",
"478 374 LINE",
"113 -59 LINE",
"58 -59 LINE"
);
},
{
closed = 1;
nodes = (
"148 374 LINE",
"207 374 LINE",
"388 -59 LINE",
"329 -59 LINE"
);
}
);
width = 600;
},
{
layerId = "291433DC-531A-45CC-B814-57D397372F12";
paths = (
{
closed = 1;
nodes = (
"418 420 LINE",
"529 420 LINE",
"127 -59 LINE",
"16 -59 LINE"
);
},
{
closed = 1;
nodes = (
"115 420 LINE",
"232 420 LINE",
"430 -59 LINE",
"313 -59 LINE"
);
}
);
width = 600;
}
);
unicode = 2093;
},
{
color = 4;
glyphname = "Be-cy";
lastChange = "2020-01-07 12:18:05 +0000";
layers = (
{
layerId = "7C079D0C-96CD-4BD8-8800-0621C7635A78";
paths = (
{
closed = 1;
nodes = (
"245 0 LINE SMOOTH",
"408 0 OFFCURVE",
"470 57 OFFCURVE",
"510 243 CURVE SMOOTH",
"550 431 OFFCURVE",
"509 492 OFFCURVE",
"346 492 CURVE SMOOTH",
"183 492 LINE",
"239 754 LINE",
"539 754 LINE",
"548 800 LINE",
"198 800 LINE",
"28 0 LINE"
);
},
{
closed = 1;
nodes = (
"173 446 LINE",
"340 446 LINE SMOOTH",
"465 446 OFFCURVE",
"493 400 OFFCURVE",
"462 251 CURVE SMOOTH",
"429 96 OFFCURVE",
"376 46 OFFCURVE",
"251 46 CURVE SMOOTH",
"88 46 LINE"
);
}
);
width = 600;
},
{
layerId = "291433DC-531A-45CC-B814-57D397372F12";
paths = (
{
closed = 1;
nodes = (
"248 0 LINE SMOOTH",
"430 0 OFFCURVE",
"496 58 OFFCURVE",
"537 252 CURVE SMOOTH",
"579 452 OFFCURVE",
"531 518 OFFCURVE",
"349 518 CURVE SMOOTH",
"213 518 LINE",
"254 708 LINE",
"554 708 LINE",
"573 800 LINE",
"173 800 LINE",
"3 0 LINE"
);
},
{
closed = 1;
nodes = (
"194 426 LINE",
"338 426 LINE SMOOTH",
"444 426 OFFCURVE",
"466 390 OFFCURVE",
"440 268 CURVE SMOOTH",
"412 136 OFFCURVE",
"365 92 OFFCURVE",
"259 92 CURVE SMOOTH",
"123 92 LINE"
);
}
);
width = 600;
}
);
unicode = 0411;
},
{
color = 4;
glyphname = "Ge-cy";
lastChange = "2020-01-07 12:18:05 +0000";
layers = (
{
anchors = (
{
name = bottomright;
position = "{514, 0}";
},
{
name = top;
position = "{404, 800}";
}
);
layerId = "7C079D0C-96CD-4BD8-8800-0621C7635A78";
paths = (
{
closed = 1;
nodes = (
"87 0 LINE",
"253 785 LINE",
"216 754 LINE",
"622 754 LINE",
"631 800 LINE",
"207 800 LINE",
"37 0 LINE"
);
}
);
width = 600;
},
{
anchors = (
{
name = bottomright;
position = "{514, 0}";
},
{
name = top;
position = "{404, 800}";
}
);
layerId = "291433DC-531A-45CC-B814-57D397372F12";
paths = (
{
closed = 1;
nodes = (
"112 0 LINE",
"277 781 LINE",
"188 708 LINE",
"637 708 LINE",
"656 800 LINE",
"182 800 LINE",
"12 0 LINE"
);
}
);
width = 600;
}
);
unicode = 0413;
},
{
color = 4;
glyphname = "Gheupturn-cy";
lastChange = "2020-01-07 12:18:05 +0000";
layers = (
{
components = (
{
name = "Ge-cy";
}
);
layerId = "7C079D0C-96CD-4BD8-8800-0621C7635A78";
paths = (
{
closed = 1;
nodes = (
"657 925 LINE",
"631 800 LINE",
"581 800 LINE",
"607 925 LINE"
);
}
);
width = 600;
},
{
components = (
{
name = "Ge-cy";
}
);
layerId = "291433DC-531A-45CC-B814-57D397372F12";
paths = (
{
closed = 1;
nodes = (
"686 945 LINE",
"656 800 LINE",
"556 800 LINE",
"586 945 LINE"
);
}
);
width = 600;
}
);
unicode = 0490;
},
{
color = 4;
glyphname = "De-cy";
lastChange = "2020-01-07 12:18:05 +0000";
layers = (
{
layerId = "7C079D0C-96CD-4BD8-8800-0621C7635A78";
paths = (
{
closed = 1;
nodes = (
"78 45 LINE",
"167 115 OFFCURVE",
"249 342 OFFCURVE",
"359 752 CURVE",
"561 754 LINE",
"410 46 LINE",
"460 46 LINE",
"620 800 LINE",
"325 802 LINE",
"201 346 OFFCURVE",
"124 117 OFFCURVE",
"8 47 CURVE"
);
},
{
closed = 1;
nodes = (
"0 -88 LINE",
"18 0 LINE",
"450 0 LINE",
"432 -88 LINE",
"482 -88 LINE",
"510 46 LINE",
"-22 46 LINE",
"-50 -88 LINE"
);
}
);
width = 600;
},
{
layerId = "291433DC-531A-45CC-B814-57D397372F12";
paths = (
{
closed = 1;
nodes = (
"155 89 LINE",
"239 154 OFFCURVE",
"268 258 OFFCURVE",
"389 704 CURVE",
"510 708 LINE",
"379 92 LINE",
"479 92 LINE",
"629 800 LINE",
"317 804 LINE",
"172 270 OFFCURVE",
"139 160 OFFCURVE",
"7 94 CURVE"
);
},
{
closed = 1;
nodes = (
"41 -88 LINE",
"59 0 LINE",
"409 0 LINE",
"391 -88 LINE",
"491 -88 LINE",
"529 92 LINE",
"-21 92 LINE",
"-59 -88 LINE"
);
}
);
width = 600;
}
);
unicode = 0414;
},
{
color = 4;
glyphname = "Zhe-cy";
lastChange = "2020-01-07 12:18:05 +0000";
layers = (
{
anchors = (
{
name = bottomright;
position = "{514, 0}";
},
{
name = top;
position = "{404, 800}";
}
);
layerId = "7C079D0C-96CD-4BD8-8800-0621C7635A78";
paths = (
{
closed = 1;
nodes = (
"400 400 LINE",
"705 800 LINE",
"649 800 LINE",
"344 400 LINE"
);
},
{
closed = 1;
nodes = (
"-10 0 LINE",
"295 400 LINE",
"239 400 LINE",
"-66 0 LINE"
);
},
{
closed = 1;
nodes = (
"534 0 LINE",
"399 400 LINE",
"345 400 LINE",
"480 0 LINE"
);
},
{
closed = 1;
nodes = (
"259 0 LINE",
"429 800 LINE",
"379 800 LINE",
"209 0 LINE"
);
},
{
closed = 1;
nodes = (
"294 400 LINE",
"159 800 LINE",
"105 800 LINE",
"240 400 LINE"
);
}
);
width = 600;
},
{
anchors = (
{
name = bottomright;
position = "{514, 0}";
},
{
name = top;
position = "{404, 800}";
}
);
layerId = "291433DC-531A-45CC-B814-57D397372F12";
paths = (
{
closed = 1;
nodes = (
"482 400 LINE",
"706 800 LINE",
"592 800 LINE",
"368 400 LINE"
);
},
{
closed = 1;
nodes = (
"47 0 LINE",
"271 400 LINE",
"157 400 LINE",
"-67 0 LINE"
);
},
{
closed = 1;
nodes = (
"533 0 LINE",
"479 400 LINE",
"371 400 LINE",
"425 0 LINE"
);
},
{
closed = 1;
nodes = (
"284 0 LINE",
"454 800 LINE",
"354 800 LINE",
"184 0 LINE"
);
},
{
closed = 1;
nodes = (
"268 400 LINE",
"214 800 LINE",
"106 800 LINE",
"160 400 LINE"
);
}
);
width = 600;
}
);
unicode = 0416;
},
{
color = 4;
glyphname = "Ii-cy";
lastChange = "2020-01-07 12:18:05 +0000";
layers = (
{
anchors = (
{
name = bottom;
position = "{234, -3}";
},
{
name = bottomright;
position = "{514, 0}";
},
{
name = top;
position = "{404, 800}";
}
);
layerId = "7C079D0C-96CD-4BD8-8800-0621C7635A78";
paths = (
{
closed = 1;
nodes = (
"75 0 LINE",
"619 800 LINE",
"568 800 LINE",
"398 0 LINE",
"448 0 LINE",
"618 800 LINE",
"564 800 LINE",
"20 0 LINE",
"70 0 LINE",
"240 800 LINE",
"190 800 LINE",
"20 0 LINE"
);
}
);
width = 600;
},
{
anchors = (
{
name = bottom;
position = "{234, -3}";
},
{
name = bottomright;
position = "{514, 0}";
},
{
name = top;
position = "{404, 800}";
}
);
layerId = "291433DC-531A-45CC-B814-57D397372F12";
paths = (
{
closed = 1;
nodes = (
"104 0 LINE",
"645 800 LINE",
"543 800 LINE",
"373 0 LINE",
"473 0 LINE",
"643 800 LINE",
"535 800 LINE",
"-6 0 LINE",
"95 0 LINE",
"265 800 LINE",
"165 800 LINE",
"-5 0 LINE"
);
}
);
width = 600;
}
);
unicode = 0418;
},
{
color = 4;
glyphname = "Ka-cy";
lastChange = "2020-01-07 12:18:05 +0000";
layers = (
{
anchors = (
{
name = bottomright;
position = "{514, 0}";
},
{
name = top;
position = "{404, 800}";
}
);
layerId = "7C079D0C-96CD-4BD8-8800-0621C7635A78";
paths = (
{
closed = 1;
nodes = (
"247 400 LINE",
"449 415 OFFCURVE",
"459 684 OFFCURVE",
"659 799 CURVE",
"585 801 LINE",
"417 686 OFFCURVE",
"411 455 OFFCURVE",
"229 446 CURVE",
"141 446 LINE",
"131 400 LINE"
);
},
{
closed = 1;
nodes = (
"74 0 LINE",
"244 800 LINE",
"194 800 LINE",
"24 0 LINE"
);
},
{
closed = 1;
nodes = (
"492 0 LINE",
"279 433 LINE",
"228 420 LINE",
"433 0 LINE"
);
}
);
width = 600;
},
{
anchors = (
{
name = bottomright;
position = "{514, 0}";
},
{
name = top;
position = "{404, 800}";
}
);
layerId = "291433DC-531A-45CC-B814-57D397372F12";
paths = (
{
closed = 1;
nodes = (
"195 377 LINE SMOOTH",
"411 377 OFFCURVE",
"472 674 OFFCURVE",
"687 798 CURVE",
"541 802 LINE",
"427 754 OFFCURVE",
"344 469 OFFCURVE",
"180 469 CURVE SMOOTH",
"90 469 LINE",
"70 377 LINE"
);
},
{
closed = 1;
nodes = (
"68 0 LINE",
"238 800 LINE",
"138 800 LINE",
"-32 0 LINE"
);
},
{
closed = 1;
nodes = (
"486 0 LINE",
"244 460 LINE",
"142 434 LINE",
"369 0 LINE"
);
}
);
width = 600;
}
);
unicode = 041A;
},
{
color = 4;
glyphname = "El-cy";
lastChange = "2020-01-07 12:18:05 +0000";
layers = (
{
layerId = "7C079D0C-96CD-4BD8-8800-0621C7635A78";
paths = (
{
closed = 1;
nodes = (
"474 0 LINE",
"644 800 LINE",
"340 800 LINE",
"331 754 LINE",
"585 754 LINE",
"424 0 LINE"
);
},
{
closed = 1;
nodes = (
"155 0 OFFCURVE",
"199 165 OFFCURVE",
"368 798 CURVE",
"320 802 LINE",
"162 212 OFFCURVE",
"111 46 OFFCURVE",
"-8 46 CURVE",
"-13 0 LINE"
);
}
);
width = 600;
},
{
layerId = "291433DC-531A-45CC-B814-57D397372F12";
paths = (
{
closed = 1;
nodes = (
"484 0 LINE",
"654 800 LINE",
"330 800 LINE",
"311 708 LINE",
"535 708 LINE",
"384 0 LINE"
);
},
{
closed = 1;
nodes = (
"197 0 OFFCURVE",
"232 139 OFFCURVE",
"409 796 CURVE",
"310 804 LINE",
"148 169 OFFCURVE",
"93 93 OFFCURVE",
"-10 93 CURVE",
"-21 0 LINE"
);
}
);
width = 600;
}
);
unicode = 041B;
},
{
color = 4;
glyphname = "Pe-cy";
lastChange = "2020-01-07 12:18:05 +0000";
layers = (
{
layerId = "7C079D0C-96CD-4BD8-8800-0621C7635A78";
paths = (
{
closed = 1;
nodes = (
"54 0 LINE",
"215 754 LINE",
"575 754 LINE",
"414 0 LINE",
"464 0 LINE",
"634 800 LINE",
"174 800 LINE",
"4 0 LINE"
);
}
);
width = 600;
},
{
layerId = "291433DC-531A-45CC-B814-57D397372F12";
paths = (
{
closed = 1;
nodes = (
"89 0 LINE",
"240 708 LINE",
"530 708 LINE",
"379 0 LINE",
"479 0 LINE",
"649 800 LINE",
"159 800 LINE",
"-11 0 LINE"
);
}
);
width = 600;
}
);
unicode = 041F;
},
{
color = 4;
glyphname = "U-cy";
lastChange = "2020-01-07 12:18:05 +0000";
layers = (
{
anchors = (
{
name = bottom;
position = "{256, -3}";
},
{
name = top;
position = "{424, 800}";
}
);
layerId = "7C079D0C-96CD-4BD8-8800-0621C7635A78";
paths = (
{
closed = 1;
nodes = (
"220 -14 OFFCURVE",
"289 30 OFFCURVE",
"362 177 CURVE SMOOTH",
"669 800 LINE",
"617 800 LINE",
"322 204 LINE SMOOTH",
"253 64 OFFCURVE",
"208 32 OFFCURVE",
"109 32 CURVE SMOOTH",
"87 32 OFFCURVE",
"71 36 OFFCURVE",
"46 52 CURVE",
"20 12 LINE",
"47 -7 OFFCURVE",
"67 -14 OFFCURVE",
"108 -14 CURVE SMOOTH"
);
},
{
closed = 1;
nodes = (
"293 111 LINE",
"211 800 LINE",
"160 800 LINE",
"249 61 LINE"
);
}
);
width = 600;
},
{
anchors = (
{
name = bottom;
position = "{256, -3}";
},
{
name = top;
position = "{424, 800}";
}
);
layerId = "291433DC-531A-45CC-B814-57D397372F12";
paths = (
{
closed = 1;
nodes = (
"240 -14 OFFCURVE",
"316 40 OFFCURVE",
"389 192 CURVE SMOOTH",
"681 800 LINE",
"577 800 LINE",
"303 235 LINE SMOOTH",
"242 106 OFFCURVE",
"205 78 OFFCURVE",
"115 78 CURVE SMOOTH",
"94 78 OFFCURVE",
"83 82 OFFCURVE",
"45 108 CURVE",
"-7 28 LINE",
"30 -1 OFFCURVE",
"58 -14 OFFCURVE",
"112 -14 CURVE SMOOTH"
);
},
{
closed = 1;
nodes = (
"320 159 LINE",
"247 800 LINE",
"147 800 LINE",
"232 45 LINE"
);
}
);
width = 600;
}
);
unicode = 0423;
},
{
color = 4;
glyphname = "Ef-cy";
lastChange = "2020-06-18 17:25:46 +0000";
layers = (
{
layerId = "7C079D0C-96CD-4BD8-8800-0621C7635A78";
paths = (
{
closed = 1;
nodes = (
"475 98 OFFCURVE",
"558 170 OFFCURVE",
"607 397 CURVE SMOOTH",
"657 630 OFFCURVE",
"603 703 OFFCURVE",
"381 703 CURVE SMOOTH",
"166 703 OFFCURVE",
"82 631 OFFCURVE",
"32 405 CURVE SMOOTH",
"-20 172 OFFCURVE",
"35 98 OFFCURVE",
"259 98 CURVE SMOOTH"
);
},
{
closed = 1;
nodes = (
"82 144 OFFCURVE",
"39 205 OFFCURVE",
"81 397 CURVE SMOOTH",
"124 595 OFFCURVE",
"196 657 OFFCURVE",
"380 657 CURVE SMOOTH",
"558 657 OFFCURVE",
"601 597 OFFCURVE",
"558 405 CURVE SMOOTH",
"513 207 OFFCURVE",
"442 144 OFFCURVE",
"261 144 CURVE SMOOTH"
);
},
{
closed = 1;
nodes = (
"259 0 LINE",
"429 800 LINE",
"379 800 LINE",
"209 0 LINE"
);
}
);
width = 600;
},
{
layerId = "291433DC-531A-45CC-B814-57D397372F12";
paths = (
{
closed = 1;
nodes = (
"476 85 OFFCURVE",
"559 159 OFFCURVE",
"608 393 CURVE SMOOTH",
"660 638 OFFCURVE",
"605 716 OFFCURVE",
"380 716 CURVE SMOOTH",
"164 716 OFFCURVE",
"80 642 OFFCURVE",
"31 409 CURVE SMOOTH",
"-21 163 OFFCURVE",
"35 85 OFFCURVE",
"264 85 CURVE SMOOTH"
);
},
{
closed = 1;
nodes = (
"127 177 OFFCURVE",
"94 229 OFFCURVE",
"128 393 CURVE SMOOTH",
"165 569 OFFCURVE",
"225 624 OFFCURVE",
"377 624 CURVE SMOOTH",
"513 624 OFFCURVE",
"545 572 OFFCURVE",
"511 409 CURVE SMOOTH",
"474 233 OFFCURVE",
"416 177 OFFCURVE",
"267 177 CURVE SMOOTH"
);
},
{
closed = 1;
nodes = (
"284 0 LINE",
"454 800 LINE",
"354 800 LINE",
"184 0 LINE"
);
}
);
width = 600;
}
);
unicode = 0424;
},
{
color = 4;
glyphname = "Sha-cy";
lastChange = "2020-01-07 12:18:05 +0000";
layers = (
{
layerId = "7C079D0C-96CD-4BD8-8800-0621C7635A78";
paths = (
{
closed = 1;
nodes = (
"489 0 LINE",
"659 800 LINE",
"609 800 LINE",
"449 46 LINE",
"269 46 LINE",
"429 800 LINE",
"379 800 LINE",
"219 46 LINE",
"39 46 LINE",
"199 800 LINE",
"149 800 LINE",
"-21 0 LINE"
);
}
);
width = 600;
},
{
layerId = "291433DC-531A-45CC-B814-57D397372F12";
paths = (
{
closed = 1;
nodes = (
"504 0 LINE",
"674 800 LINE",
"574 800 LINE",
"424 92 LINE",
"304 92 LINE",
"454 800 LINE",
"354 800 LINE",
"204 92 LINE",
"84 92 LINE",
"234 800 LINE",
"134 800 LINE",
"-36 0 LINE"
);
}
);
width = 600;
}
);
unicode = 0428;
},
{
color = 4;
glyphname = "Shcha-cy";
lastChange = "2020-01-07 12:18:05 +0000";
layers = (
{
layerId = "7C079D0C-96CD-4BD8-8800-0621C7635A78";
paths = (
{
closed = 1;
nodes = (
"454 0 LINE",
"624 800 LINE",
"574 800 LINE",
"414 46 LINE",
"244 46 LINE",
"404 800 LINE",
"354 800 LINE",
"194 46 LINE",
"24 46 LINE",
"184 800 LINE",
"134 800 LINE",
"-36 0 LINE"
);
},
{
closed = 1;
nodes = (
"481 -108 LINE",
"514 46 LINE",
"372 46 LINE",
"362 0 LINE",
"454 0 LINE",
"431 -108 LINE"
);
}
);
width = 600;
},
{
layerId = "291433DC-531A-45CC-B814-57D397372F12";
paths = (
{
closed = 1;
nodes = (
"434 0 LINE",
"604 800 LINE",
"504 800 LINE",
"354 92 LINE",
"254 92 LINE",
"404 800 LINE",
"304 800 LINE",
"154 92 LINE",
"54 92 LINE",
"204 800 LINE",
"104 800 LINE",
"-66 0 LINE"
);
},
{
closed = 1;
nodes = (
"511 -108 LINE",
"554 92 LINE",
"362 92 LINE",
"342 0 LINE",
"434 0 LINE",
"411 -108 LINE"
);
}
);
width = 600;
}
);
unicode = 0429;
},
{
color = 4;
glyphname = "Softsign-cy";
lastChange = "2020-01-07 12:18:05 +0000";
layers = (
{
layerId = "7C079D0C-96CD-4BD8-8800-0621C7635A78";
paths = (
{
closed = 1;
nodes = (
"256 0 LINE SMOOTH",
"419 0 OFFCURVE",
"481 57 OFFCURVE",
"521 242 CURVE SMOOTH",
"561 431 OFFCURVE",
"520 492 OFFCURVE",
"357 492 CURVE SMOOTH",
"173 492 LINE",
"163 446 LINE",
"351 446 LINE SMOOTH",
"476 446 OFFCURVE",
"504 400 OFFCURVE",
"472 250 CURVE SMOOTH",
"440 96 OFFCURVE",
"387 46 OFFCURVE",
"262 46 CURVE SMOOTH",
"70 46 LINE",
"94 15 LINE",
"260 800 LINE",
"210 800 LINE",
"40 0 LINE"
);
}
);
width = 600;
},
{
layerId = "291433DC-531A-45CC-B814-57D397372F12";
paths = (
{
closed = 1;
nodes = (
"259 0 LINE SMOOTH",
"441 0 OFFCURVE",
"507 58 OFFCURVE",
"548 251 CURVE SMOOTH",
"590 452 OFFCURVE",
"542 518 OFFCURVE",
"360 518 CURVE SMOOTH",
"153 518 LINE",
"134 426 LINE",
"349 426 LINE SMOOTH",
"455 426 OFFCURVE",
"477 390 OFFCURVE",
"451 267 CURVE SMOOTH",
"423 136 OFFCURVE",
"376 92 OFFCURVE",
"270 92 CURVE SMOOTH",
"63 92 LINE",
"121 19 LINE",
"285 800 LINE",
"185 800 LINE",
"15 0 LINE"
);
}
);
width = 600;
}
);
unicode = 042C;
},
{
color = 4;
glyphname = "Hardsign-cy";
lastChange = "2020-04-13 09:18:03 +0000";
layers = (
{
layerId = "7C079D0C-96CD-4BD8-8800-0621C7635A78";
paths = (
{
closed = 1;
nodes = (
"271 754 LINE",
"280 800 LINE",
"109 800 LINE",
"100 754 LINE"
);
},
{
closed = 1;
nodes = (
"276 0 LINE SMOOTH",
"439 0 OFFCURVE",
"501 57 OFFCURVE",
"541 242 CURVE SMOOTH",
"581 431 OFFCURVE",
"540 492 OFFCURVE",
"377 492 CURVE SMOOTH",
"193 492 LINE",
"183 446 LINE",
"371 446 LINE SMOOTH",
"496 446 OFFCURVE",
"524 400 OFFCURVE",
"492 250 CURVE SMOOTH",
"460 96 OFFCURVE",
"407 46 OFFCURVE",
"282 46 CURVE SMOOTH",
"90 46 LINE",
"114 15 LINE",
"280 800 LINE",
"230 800 LINE",
"60 0 LINE"
);
}
);
width = 600;
},
{
layerId = "291433DC-531A-45CC-B814-57D397372F12";
paths = (
{
closed = 1;
nodes = (
"296 708 LINE",
"315 800 LINE",
"115 800 LINE",
"96 708 LINE"
);
},
{
closed = 1;
nodes = (
"289 0 LINE SMOOTH",
"471 0 OFFCURVE",
"537 58 OFFCURVE",
"578 251 CURVE SMOOTH",
"620 452 OFFCURVE",
"572 518 OFFCURVE",
"390 518 CURVE SMOOTH",
"183 518 LINE",
"164 426 LINE",
"379 426 LINE SMOOTH",
"485 426 OFFCURVE",
"507 390 OFFCURVE",
"481 267 CURVE SMOOTH",
"453 136 OFFCURVE",
"406 92 OFFCURVE",
"300 92 CURVE SMOOTH",
"93 92 LINE",
"151 19 LINE",
"315 800 LINE",
"215 800 LINE",
"45 0 LINE"
);
}
);
width = 600;
}
);
unicode = 042A;
},
{
color = 4;
glyphname = "Yeru-cy";
lastChange = "2020-01-07 12:18:05 +0000";
layers = (
{
anchors = (
{
name = top;
position = "{404, 800}";
}
);
layerId = "7C079D0C-96CD-4BD8-8800-0621C7635A78";
paths = (
{
closed = 1;
nodes = (
"166 0 LINE SMOOTH",
"314 0 OFFCURVE",
"371 57 OFFCURVE",
"411 242 CURVE SMOOTH",
"451 431 OFFCURVE",
"415 492 OFFCURVE",
"267 492 CURVE SMOOTH",
"122 492 LINE",
"112 446 LINE",
"261 446 LINE SMOOTH",
"371 446 OFFCURVE",
"394 400 OFFCURVE",
"362 250 CURVE SMOOTH",
"330 96 OFFCURVE",
"282 46 OFFCURVE",
"172 46 CURVE SMOOTH",
"19 46 LINE",
"43 15 LINE",
"209 800 LINE",
"159 800 LINE",
"-11 0 LINE"
);
},
{
closed = 1;
nodes = (
"479 0 LINE",
"649 800 LINE",
"599 800 LINE",
"429 0 LINE"
);
}
);
width = 600;
},
{
anchors = (
{
name = top;
position = "{404, 800}";
}
);
layerId = "291433DC-531A-45CC-B814-57D397372F12";
paths = (
{
closed = 1;
nodes = (
"149 0 LINE SMOOTH",
"309 0 OFFCURVE",
"367 58 OFFCURVE",
"408 251 CURVE SMOOTH",
"450 452 OFFCURVE",
"410 518 OFFCURVE",
"250 518 CURVE SMOOTH",
"92 518 LINE",
"73 426 LINE",
"239 426 LINE SMOOTH",
"323 426 OFFCURVE",
"337 390 OFFCURVE",
"311 267 CURVE SMOOTH",
"283 136 OFFCURVE",
"244 92 OFFCURVE",
"160 92 CURVE SMOOTH",
"12 92 LINE",
"60 19 LINE",
"224 800 LINE",
"124 800 LINE",
"-46 0 LINE"
);
},
{
closed = 1;
nodes = (
"514 0 LINE",
"684 800 LINE",
"584 800 LINE",
"414 0 LINE"
);
}
);
width = 600;
}
);
unicode = 042B;
},
{
color = 4;
glyphname = "Lje-cy";
lastChange = "2020-01-07 12:18:05 +0000";
layers = (
{
layerId = "7C079D0C-96CD-4BD8-8800-0621C7635A78";
paths = (
{
closed = 1;
nodes = (
"294 0 LINE",
"464 800 LINE",
"290 800 LINE",
"281 754 LINE",
"405 754 LINE",
"244 0 LINE"
);
},
{
closed = 1;
nodes = (
"105 0 OFFCURVE",
"149 165 OFFCURVE",
"318 798 CURVE",
"270 802 LINE",
"112 212 OFFCURVE",
"61 46 OFFCURVE",
"-58 46 CURVE",
"-63 0 LINE"
);
},
{
closed = 1;
nodes = (
"361 0 LINE SMOOTH",
"486 0 OFFCURVE",
"536 57 OFFCURVE",
"576 242 CURVE SMOOTH",
"616 431 OFFCURVE",
"587 492 OFFCURVE",
"462 492 CURVE SMOOTH",
"377 492 LINE",
"367 446 LINE",
"456 446 LINE SMOOTH",
"543 446 OFFCURVE",
"559 400 OFFCURVE",
"527 250 CURVE SMOOTH",
"495 96 OFFCURVE",
"454 46 OFFCURVE",
"367 46 CURVE SMOOTH",
"274 46 LINE",
"298 15 LINE",
"464 800 LINE",
"414 800 LINE",
"244 0 LINE"
);
}
);
width = 600;
},
{
layerId = "291433DC-531A-45CC-B814-57D397372F12";
paths = (
{
closed = 1;
nodes = (
"340 0 LINE",
"510 800 LINE",
"290 800 LINE",
"271 708 LINE",
"391 708 LINE",
"240 0 LINE"
);
},
{
closed = 1;
nodes = (
"157 0 OFFCURVE",
"192 139 OFFCURVE",
"369 796 CURVE",
"270 804 LINE",
"108 169 OFFCURVE",
"53 93 OFFCURVE",
"-50 93 CURVE",
"-61 0 LINE"
);
},
{
closed = 1;
nodes = (
"374 0 LINE SMOOTH",
"499 0 OFFCURVE",
"547 58 OFFCURVE",
"588 251 CURVE SMOOTH",
"630 452 OFFCURVE",
"600 518 OFFCURVE",
"475 518 CURVE SMOOTH",
"378 518 LINE",
"359 426 LINE",
"464 426 LINE SMOOTH",
"513 426 OFFCURVE",
"517 390 OFFCURVE",
"491 267 CURVE SMOOTH",
"463 136 OFFCURVE",
"434 92 OFFCURVE",
"385 92 CURVE SMOOTH",
"288 92 LINE",
"346 19 LINE",
"510 800 LINE",
"410 800 LINE",
"240 0 LINE"
);
}
);
width = 600;
}
);
unicode = 0409;
},
{
color = 4;
glyphname = "Nje-cy";
lastChange = "2020-01-07 12:18:05 +0000";
layers = (
{
layerId = "7C079D0C-96CD-4BD8-8800-0621C7635A78";
paths = (
{
closed = 1;
nodes = (
"8 0 LINE",
"178 800 LINE",
"128 800 LINE",
"-42 0 LINE"
);
},
{
closed = 1;
nodes = (
"351 0 LINE SMOOTH",
"484 0 OFFCURVE",
"536 57 OFFCURVE",
"576 242 CURVE SMOOTH",
"616 431 OFFCURVE",
"585 492 OFFCURVE",
"452 492 CURVE SMOOTH",
"90 492 LINE",
"80 446 LINE",
"446 446 LINE SMOOTH",
"541 446 OFFCURVE",
"559 400 OFFCURVE",
"527 250 CURVE SMOOTH",
"495 96 OFFCURVE",
"452 46 OFFCURVE",
"357 46 CURVE SMOOTH",
"236 46 LINE",
"260 15 LINE",
"426 800 LINE",
"376 800 LINE",
"206 0 LINE"
);
}
);
width = 600;
},
{
layerId = "291433DC-531A-45CC-B814-57D397372F12";
paths = (
{
closed = 1;
nodes = (
"39 0 LINE",
"209 800 LINE",
"109 800 LINE",
"-61 0 LINE"
);
},
{
closed = 1;
nodes = (
"350 0 LINE SMOOTH",
"494 0 OFFCURVE",
"547 58 OFFCURVE",
"588 251 CURVE SMOOTH",
"630 452 OFFCURVE",
"595 518 OFFCURVE",
"451 518 CURVE SMOOTH",
"99 518 LINE",
"80 426 LINE",
"440 426 LINE SMOOTH",
"508 426 OFFCURVE",
"517 390 OFFCURVE",
"491 267 CURVE SMOOTH",
"463 136 OFFCURVE",
"429 92 OFFCURVE",
"361 92 CURVE SMOOTH",
"227 92 LINE",
"285 19 LINE",
"449 800 LINE",
"349 800 LINE",
"179 0 LINE"
);
}
);
width = 600;
}
);
unicode = 040A;
},
{
color = 4;
glyphname = "E-cy";
lastChange = "2020-06-27 17:02:19 +0000";
layers = (
{
anchors = (
{
name = top;
position = "{405, 803}";
}
);
layerId = "7C079D0C-96CD-4BD8-8800-0621C7635A78";
paths = (
{
closed = 1;
nodes = (
"341 -14 OFFCURVE",
"410 18 OFFCURVE",
"462 109 CURVE",
"404 113 LINE",
"364 56 OFFCURVE",
"312 32 OFFCURVE",
"237 32 CURVE SMOOTH",
"100 32 OFFCURVE",
"75 109 OFFCURVE",
"127 358 CURVE SMOOTH",
"144 438 LINE SMOOTH",
"197 687 OFFCURVE",
"261 768 OFFCURVE",
"402 768 CURVE SMOOTH",
"474 768 OFFCURVE",
"515 748 OFFCURVE",
"531 691 CURVE",
"584 687 LINE",
"570 778 OFFCURVE",
"513 814 OFFCURVE",
"403 814 CURVE SMOOTH",
"228 814 OFFCURVE",
"156 726 OFFCURVE",
"95 442 CURVE SMOOTH",
"78 362 LINE SMOOTH",
"18 78 OFFCURVE",
"56 -14 OFFCURVE",
"236 -14 CURVE SMOOTH"
);
},
{
closed = 1;
nodes = (
"386 423 LINE",
"116 423 LINE",
"106 377 LINE",
"376 377 LINE"
);
}
);
width = 600;
},
{
anchors = (
{
name = top;
position = "{405, 803}";
}
);
layerId = "291433DC-531A-45CC-B814-57D397372F12";
paths = (
{
closed = 1;
nodes = (
"370 -14 OFFCURVE",
"449 34 OFFCURVE",
"505 153 CURVE",
"397 161 LINE",
"362 104 OFFCURVE",
"319 78 OFFCURVE",
"243 78 CURVE SMOOTH",
"126 78 OFFCURVE",
"106 141 OFFCURVE",
"152 356 CURVE SMOOTH",
"169 436 LINE SMOOTH",
"215 651 OFFCURVE",
"271 722 OFFCURVE",
"396 722 CURVE SMOOTH",
"466 722 OFFCURVE",
"494 704 OFFCURVE",
"505 647 CURVE",
"606 639 LINE",
"600 758 OFFCURVE",
"537 814 OFFCURVE",
"399 814 CURVE SMOOTH",
"209 814 OFFCURVE",
"128 716 OFFCURVE",
"71 444 CURVE SMOOTH",
"54 364 LINE SMOOTH",
"-4 92 OFFCURVE",
"42 -14 OFFCURVE",
"240 -14 CURVE SMOOTH"
);
},
{
closed = 1;
nodes = (
"416 446 LINE",
"96 446 LINE",
"77 354 LINE",
"397 354 LINE"
);
}
);
width = 600;
}
);
unicode = 0404;
},
{
color = 4;
glyphname = "Ereversed-cy";
lastChange = "2020-01-07 12:18:05 +0000";
layers = (
{
anchors = (
{
name = bottom;
position = "{234, -3}";
},
{
name = center;
position = "{319, 400}";
},
{
name = ogonek;
position = "{496, 7}";
},
{
name = top;
position = "{405, 803}";
},
{
name = topleft;
position = "{100, 803}";
},
{
name = topright;
position = "{710, 803}";
}
);
layerId = "7C079D0C-96CD-4BD8-8800-0621C7635A78";
paths = (
{
closed = 1;
nodes = (
"410 -14 OFFCURVE",
"483 74 OFFCURVE",
"543 358 CURVE SMOOTH",
"560 438 LINE SMOOTH",
"621 722 OFFCURVE",
"582 814 OFFCURVE",
"403 814 CURVE SMOOTH",
"297 814 OFFCURVE",
"229 782 OFFCURVE",
"176 691 CURVE",
"232 687 LINE",
"272 744 OFFCURVE",
"326 768 OFFCURVE",
"402 768 CURVE SMOOTH",
"539 768 OFFCURVE",
"564 691 OFFCURVE",
"511 442 CURVE SMOOTH",
"494 362 LINE SMOOTH",
"441 113 OFFCURVE",
"378 32 OFFCURVE",
"237 32 CURVE SMOOTH",
"166 32 OFFCURVE",
"126 52 OFFCURVE",
"110 109 CURVE",
"55 113 LINE",
"69 22 OFFCURVE",
"125 -14 OFFCURVE",
"236 -14 CURVE SMOOTH"
);
},
{
closed = 1;
nodes = (
"522 377 LINE",
"532 423 LINE",
"262 423 LINE",
"252 377 LINE"
);
}
);
width = 600;
},
{
anchors = (
{
name = bottom;
position = "{234, -3}";
},
{
name = center;
position = "{319, 400}";
},
{
name = ogonek;
position = "{496, 7}";
},
{
name = top;
position = "{405, 803}";
},
{
name = topleft;
position = "{100, 803}";
},
{
name = topright;
position = "{710, 803}";
}
);
layerId = "291433DC-531A-45CC-B814-57D397372F12";
paths = (
{
closed = 1;
nodes = (
"430 -14 OFFCURVE",
"510 84 OFFCURVE",
"568 356 CURVE SMOOTH",
"585 436 LINE SMOOTH",
"643 708 OFFCURVE",
"597 814 OFFCURVE",
"399 814 CURVE SMOOTH",
"269 814 OFFCURVE",
"190 766 OFFCURVE",
"134 647 CURVE",
"240 639 LINE",
"275 696 OFFCURVE",
"318 722 OFFCURVE",
"396 722 CURVE SMOOTH",
"513 722 OFFCURVE",
"532 659 OFFCURVE",
"487 444 CURVE SMOOTH",
"470 364 LINE SMOOTH",
"424 149 OFFCURVE",
"368 78 OFFCURVE",
"243 78 CURVE SMOOTH",
"175 78 OFFCURVE",
"146 96 OFFCURVE",
"135 153 CURVE",
"33 161 LINE",
"38 42 OFFCURVE",
"102 -14 OFFCURVE",
"240 -14 CURVE SMOOTH"
);
},
{
closed = 1;
nodes = (
"543 354 LINE",
"562 446 LINE",
"242 446 LINE",
"223 354 LINE"
);
}
);
width = 600;
}
);
unicode = 042D;
},
{
color = 4;
glyphname = "Tshe-cy";
lastChange = "2020-01-07 12:18:05 +0000";
layers = (
{
layerId = "7C079D0C-96CD-4BD8-8800-0621C7635A78";
paths = (
{
closed = 1;
nodes = (
"104 800 LINE",
"95 754 LINE",
"434 754 LINE",
"443 800 LINE"
);
},
{
closed = 1;
nodes = (
"128 0 LINE",
"186 272 LINE SMOOTH",
"215 410 OFFCURVE",
"262 446 OFFCURVE",
"383 446 CURVE SMOOTH",
"500 446 OFFCURVE",
"526 397 OFFCURVE",
"491 236 CURVE SMOOTH",
"441 0 LINE",
"491 0 LINE",
"541 232 LINE SMOOTH",
"582 428 OFFCURVE",
"544 492 OFFCURVE",
"385 492 CURVE SMOOTH",
"310 492 OFFCURVE",
"251 475 OFFCURVE",
"216 414 CURVE",
"298 800 LINE",
"248 800 LINE",
"78 0 LINE"
);
}
);
width = 600;
},
{
layerId = "291433DC-531A-45CC-B814-57D397372F12";
paths = (
{
closed = 1;
nodes = (
"104 800 LINE",
"85 708 LINE",
"424 708 LINE",
"443 800 LINE"
);
},
{
closed = 1;
nodes = (
"153 0 LINE",
"209 263 LINE SMOOTH",
"238 396 OFFCURVE",
"272 426 OFFCURVE",
"383 426 CURVE SMOOTH",
"479 426 OFFCURVE",
"497 382 OFFCURVE",
"465 228 CURVE SMOOTH",
"416 0 LINE",
"516 0 LINE",
"563 220 LINE SMOOTH",
"611 443 OFFCURVE",
"566 518 OFFCURVE",
"386 518 CURVE SMOOTH",
"334 518 OFFCURVE",
"289 510 OFFCURVE",
"254 488 CURVE",
"323 800 LINE",
"223 800 LINE",
"53 0 LINE"
);
}
);
width = 600;
}
);
unicode = 040B;
},
{
color = 4;
glyphname = "Iu-cy";
lastChange = "2020-01-07 12:18:05 +0000";
layers = (
{
anchors = (
{
name = top;
position = "{404, 800}";
},
{
name = topleft;
position = "{700, 803}";
}
);
layerId = "7C079D0C-96CD-4BD8-8800-0621C7635A78";
paths = (
{
closed = 1;
nodes = (
"467 -14 OFFCURVE",
"530 74 OFFCURVE",
"590 358 CURVE SMOOTH",
"607 438 LINE SMOOTH",
"668 722 OFFCURVE",
"639 814 OFFCURVE",
"490 814 CURVE SMOOTH",
"345 814 OFFCURVE",
"283 726 OFFCURVE",
"222 442 CURVE SMOOTH",
"205 362 LINE SMOOTH",
"145 78 OFFCURVE",
"173 -14 OFFCURVE",
"323 -14 CURVE SMOOTH"
);
},
{
closed = 1;
nodes = (
"19 0 LINE",
"189 800 LINE",
"139 800 LINE",
"-31 0 LINE"
);
},
{
closed = 1;
nodes = (
"239 377 LINE",
"249 423 LINE",
"82 423 LINE",
"72 377 LINE"
);
},
{
closed = 1;
nodes = (
"217 32 OFFCURVE",
"202 109 OFFCURVE",
"254 358 CURVE SMOOTH",
"271 438 LINE SMOOTH",
"324 687 OFFCURVE",
"378 768 OFFCURVE",
"489 768 CURVE SMOOTH",
"596 768 OFFCURVE",
"611 691 OFFCURVE",
"558 442 CURVE SMOOTH",
"541 362 LINE SMOOTH",
"488 113 OFFCURVE",
"435 32 OFFCURVE",
"324 32 CURVE SMOOTH"
);
}
);
width = 600;
},
{
anchors = (
{
name = top;
position = "{404, 800}";
},
{
name = topleft;
position = "{700, 803}";
}
);
layerId = "291433DC-531A-45CC-B814-57D397372F12";
paths = (
{
closed = 1;
nodes = (
"481 -14 OFFCURVE",
"545 72 OFFCURVE",
"605 356 CURVE SMOOTH",
"622 436 LINE SMOOTH",
"682 720 OFFCURVE",
"648 814 OFFCURVE",
"486 814 CURVE SMOOTH",
"332 814 OFFCURVE",
"268 728 OFFCURVE",
"208 444 CURVE SMOOTH",
"191 364 LINE SMOOTH",
"130 80 OFFCURVE",
"165 -14 OFFCURVE",
"327 -14 CURVE SMOOTH"
);
},
{
closed = 1;
nodes = (
"44 0 LINE",
"214 800 LINE",
"114 800 LINE",
"-56 0 LINE"
);
},
{
closed = 1;
nodes = (
"245 354 LINE",
"264 446 LINE",
"85 446 LINE",
"66 354 LINE"
);
},
{
closed = 1;
nodes = (
"252 78 OFFCURVE",
"244 142 OFFCURVE",
"289 356 CURVE SMOOTH",
"306 436 LINE SMOOTH",
"352 650 OFFCURVE",
"397 722 OFFCURVE",
"483 722 CURVE SMOOTH",
"561 722 OFFCURVE",
"569 658 OFFCURVE",
"524 444 CURVE SMOOTH",
"507 364 LINE SMOOTH",
"461 150 OFFCURVE",
"416 78 OFFCURVE",
"330 78 CURVE SMOOTH"
);
}
);
width = 600;
}
);
unicode = 042E;
},
{
color = 4;
glyphname = "Ia-cy";
lastChange = "2020-01-07 12:18:05 +0000";
layers = (
{
anchors = (
{
name = bottom;
position = "{234, 0}";
},
{
name = top;
position = "{404, 800}";
}
);
layerId = "7C079D0C-96CD-4BD8-8800-0621C7635A78";
paths = (
{
closed = 1;
nodes = (
"606 800 LINE",
"390 800 LINE SMOOTH",
"227 800 OFFCURVE",
"166 748 OFFCURVE",
"131 581 CURVE SMOOTH",
"94 410 OFFCURVE",
"137 354 OFFCURVE",
"300 354 CURVE SMOOTH",
"494 354 LINE",
"503 400 LINE",
"305 400 LINE SMOOTH",
"180 400 OFFCURVE",
"151 440 OFFCURVE",
"179 573 CURVE SMOOTH",
"208 710 OFFCURVE",
"260 754 OFFCURVE",
"385 754 CURVE SMOOTH",
"547 754 LINE",
"386 0 LINE",
"436 0 LINE"
);
},
{
closed = 1;
nodes = (
"373 378 LINE",
"313 378 LINE",
"-12 0 LINE",
"47 0 LINE"
);
}
);
width = 600;
},
{
anchors = (
{
name = bottom;
position = "{234, 0}";
},
{
name = top;
position = "{404, 800}";
}
);
layerId = "291433DC-531A-45CC-B814-57D397372F12";
paths = (
{
closed = 1;
nodes = (
"631 800 LINE",
"388 800 LINE SMOOTH",
"211 800 OFFCURVE",
"140 740 OFFCURVE",
"104 572 CURVE SMOOTH",
"64 386 OFFCURVE",
"119 328 OFFCURVE",
"296 328 CURVE SMOOTH",
"503 328 LINE",
"523 420 LINE",
"307 420 LINE SMOOTH",
"197 420 OFFCURVE",
"175 438 OFFCURVE",
"201 556 CURVE SMOOTH",
"225 672 OFFCURVE",
"267 708 OFFCURVE",
"377 708 CURVE SMOOTH",
"512 708 LINE",
"361 0 LINE",
"461 0 LINE"
);
},
{
closed = 1;
nodes = (
"418 394 LINE",
"297 394 LINE",
"-57 0 LINE",
"62 0 LINE"
);
}
);
width = 600;
}
);
unicode = 042F;
},
{
color = 4;
glyphname = "Dje-cy";
lastChange = "2020-01-07 12:18:05 +0000";
layers = (
{
layerId = "7C079D0C-96CD-4BD8-8800-0621C7635A78";
paths = (
{
closed = 1;
nodes = (
"453 -14 OFFCURVE",
"514 44 OFFCURVE",
"554 234 CURVE SMOOTH",
"596 429 OFFCURVE",
"557 492 OFFCURVE",
"397 492 CURVE SMOOTH",
"326 492 OFFCURVE",
"265 473 OFFCURVE",
"223 408 CURVE",
"307 800 LINE",
"257 800 LINE",
"87 0 LINE",
"137 0 LINE",
"195 272 LINE SMOOTH",
"223 403 OFFCURVE",
"272 446 OFFCURVE",
"395 446 CURVE SMOOTH",
"513 446 OFFCURVE",
"539 398 OFFCURVE",
"506 242 CURVE SMOOTH",
"472 83 OFFCURVE",
"421 32 OFFCURVE",
"309 32 CURVE SMOOTH",
"277 32 OFFCURVE",
"265 34 OFFCURVE",
"252 43 CURVE",
"246 -1 LINE",
"259 -10 OFFCURVE",
"271 -14 OFFCURVE",
"308 -14 CURVE SMOOTH"
);
},
{
closed = 1;
nodes = (
"454 754 LINE",
"463 800 LINE",
"104 800 LINE",
"95 754 LINE"
);
}
);
width = 600;
},
{
layerId = "291433DC-531A-45CC-B814-57D397372F12";
paths = (
{
closed = 1;
nodes = (
"482 -14 OFFCURVE",
"539 46 OFFCURVE",
"581 243 CURVE SMOOTH",
"625 450 OFFCURVE",
"579 518 OFFCURVE",
"398 518 CURVE SMOOTH",
"345 518 OFFCURVE",
"300 508 OFFCURVE",
"262 483 CURVE",
"332 800 LINE",
"232 800 LINE",
"62 0 LINE",
"162 0 LINE",
"220 270 LINE SMOOTH",
"246 392 OFFCURVE",
"285 426 OFFCURVE",
"395 426 CURVE SMOOTH",
"492 426 OFFCURVE",
"512 388 OFFCURVE",
"484 259 CURVE SMOOTH",
"456 124 OFFCURVE",
"417 78 OFFCURVE",
"315 78 CURVE SMOOTH",
"281 78 OFFCURVE",
"270 79 OFFCURVE",
"260 89 CURVE",
"248 0 LINE",
"258 -9 OFFCURVE",
"271 -14 OFFCURVE",
"312 -14 CURVE SMOOTH"
);
},
{
closed = 1;
nodes = (
"444 708 LINE",
"463 800 LINE",
"104 800 LINE",
"85 708 LINE"
);
}
);
width = 600;
}
);
unicode = 0402;
},
{
color = 4;
glyphname = "Yat-cy";
lastChange = "2020-01-07 12:18:05 +0000";
layers = (
{
components = (
{
name = "Softsign-cy";
transform = "{1, 0, 0, 1, 20, 0}";
}
);
layerId = "7C079D0C-96CD-4BD8-8800-0621C7635A78";
paths = (
{
closed = 1;
nodes = (
"427 631 LINE",
"437 677 LINE",
"98 677 LINE",
"88 631 LINE"
);
}
);
width = 600;
},
{
components = (
{
name = "Softsign-cy";
transform = "{1, 0, 0, 1, 10, 0}";
}
);
layerId = "291433DC-531A-45CC-B814-57D397372F12";
paths = (
{
closed = 1;
nodes = (
"415 618 LINE",
"434 710 LINE",
"95 710 LINE",
"76 618 LINE"
);
}
);
width = 600;
}
);
unicode = 0462;
},
{
color = 4;
glyphname = "Yusbig-cy";
lastChange = "2020-01-07 12:18:05 +0000";
layers = (
{
layerId = "7C079D0C-96CD-4BD8-8800-0621C7635A78";
paths = (
{
closed = 1;
nodes = (
"400 400 LINE",
"667 754 LINE",
"611 754 LINE",
"344 400 LINE"
);
},
{
closed = 1;
nodes = (
"259 0 LINE",
"344 400 LINE",
"294 400 LINE",
"209 0 LINE"
);
},
{
closed = 1;
nodes = (
"294 400 LINE",
"177 754 LINE",
"123 754 LINE",
"240 400 LINE"
);
},
{
closed = 1;
nodes = (
"415 386 OFFCURVE",
"446 324 OFFCURVE",
"449 123 CURVE SMOOTH",
"449 58 OFFCURVE",
"456 29 OFFCURVE",
"477 1 CURVE",
"524 -1 LINE",
"502 25 OFFCURVE",
"497 52 OFFCURVE",
"496 115 CURVE SMOOTH",
"496 355 OFFCURVE",
"454 432 OFFCURVE",
"324 432 CURVE",
"319 386 LINE"
);
},
{
closed = 1;
nodes = (
"132 800 LINE",
"123 754 LINE",
"667 754 LINE",
"676 800 LINE"
);
},
{
closed = 1;
nodes = (
"324 432 LINE",
"194 432 OFFCURVE",
"123 359 OFFCURVE",
"22 123 CURVE SMOOTH",
"-6 56 OFFCURVE",
"-25 27 OFFCURVE",
"-58 1 CURVE",
"-6 -1 LINE",
"27 27 OFFCURVE",
"44 54 OFFCURVE",
"72 115 CURVE SMOOTH",
"160 320 OFFCURVE",
"221 386 OFFCURVE",
"318 386 CURVE"
);
}
);
width = 600;
},
{
layerId = "291433DC-531A-45CC-B814-57D397372F12";
paths = (
{
closed = 1;
nodes = (
"411 377 LINE",
"683 708 LINE",
"570 708 LINE",
"298 377 LINE"
);
},
{
closed = 1;
nodes = (
"284 0 LINE",
"374 423 LINE",
"274 423 LINE",
"184 0 LINE"
);
},
{
closed = 1;
nodes = (
"328 377 LINE",
"196 708 LINE",
"89 708 LINE",
"221 377 LINE"
);
},
{
closed = 1;
nodes = (
"393 362 OFFCURVE",
"397 351 OFFCURVE",
"400 142 CURVE SMOOTH",
"399 66 OFFCURVE",
"407 37 OFFCURVE",
"417 3 CURVE",
"520 -3 LINE",
"495 58 OFFCURVE",
"496 77 OFFCURVE",
"494 136 CURVE SMOOTH",
"493 401 OFFCURVE",
"470 454 OFFCURVE",
"327 454 CURVE",
"316 362 LINE"
);
},
{
closed = 1;
nodes = (
"107 800 LINE",
"88 708 LINE",
"682 708 LINE",
"701 800 LINE"
);
},
{
closed = 1;
nodes = (
"327 454 LINE",
"184 454 OFFCURVE",
"146 409 OFFCURVE",
"33 152 CURVE SMOOTH",
"6 85 OFFCURVE",
"-5 64 OFFCURVE",
"-56 3 CURVE",
"55 -3 LINE",
"80 31 OFFCURVE",
"98 58 OFFCURVE",
"129 126 CURVE SMOOTH",
"221 343 OFFCURVE",
"237 362 OFFCURVE",
"315 362 CURVE"
);
}
);
width = 600;
}
);
unicode = 046A;
},
{
color = 4;
glyphname = "De-cy.loclBGR";
lastChange = "2020-01-07 12:18:05 +0000";
layers = (
{
layerId = "7C079D0C-96CD-4BD8-8800-0621C7635A78";
paths = (
{
closed = 1;
nodes = (
"0 -88 LINE",
"18 0 LINE",
"450 0 LINE",
"432 -88 LINE",
"482 -88 LINE",
"510 46 LINE",
"-22 46 LINE",
"-50 -88 LINE"
);
},
{
closed = 1;
nodes = (
"58 46 LINE",
"389 725 LINE",
"432 46 LINE",
"482 46 LINE",
"434 800 LINE",
"374 800 LINE",
"6 46 LINE"
);
}
);
width = 600;
},
{
layerId = "291433DC-531A-45CC-B814-57D397372F12";
paths = (
{
closed = 1;
nodes = (
"41 -88 LINE",
"59 0 LINE",
"409 0 LINE",
"391 -88 LINE",
"491 -88 LINE",
"529 92 LINE",
"-21 92 LINE",
"-59 -88 LINE"
);
},
{
closed = 1;
nodes = (
"120 92 LINE",
"369 624 LINE",
"390 92 LINE",
"483 92 LINE",
"453 800 LINE",
"353 800 LINE",
"23 92 LINE"
);
}
);
width = 600;
}
);
},
{
color = 4;
glyphname = "Ef-cy.loclBGR";
lastChange = "2020-01-07 12:18:05 +0000";
layers = (
{
layerId = "7C079D0C-96CD-4BD8-8800-0621C7635A78";
paths = (
{
closed = 1;
nodes = (
"452 -14 OFFCURVE",
"540 84 OFFCURVE",
"607 397 CURVE SMOOTH",
"674 713 OFFCURVE",
"624 814 OFFCURVE",
"404 814 CURVE SMOOTH",
"186 814 OFFCURVE",
"99 717 OFFCURVE",
"32 405 CURVE SMOOTH",
"-35 88 OFFCURVE",
"14 -14 OFFCURVE",
"237 -14 CURVE SMOOTH"
);
},
{
closed = 1;
nodes = (
"58 32 OFFCURVE",
"22 119 OFFCURVE",
"81 397 CURVE SMOOTH",
"140 678 OFFCURVE",
"219 768 OFFCURVE",
"403 768 CURVE SMOOTH",
"581 768 OFFCURVE",
"617 682 OFFCURVE",
"558 405 CURVE SMOOTH",
"498 123 OFFCURVE",
"420 32 OFFCURVE",
"238 32 CURVE SMOOTH"
);
},
{
closed = 1;
nodes = (
"233 -122 LINE",
"455 921 LINE",
"405 921 LINE",
"183 -122 LINE"
);
}
);
width = 600;
},
{
layerId = "291433DC-531A-45CC-B814-57D397372F12";
paths = (
{
closed = 1;
nodes = (
"457 -14 OFFCURVE",
"542 82 OFFCURVE",
"608 393 CURVE SMOOTH",
"675 711 OFFCURVE",
"624 814 OFFCURVE",
"400 814 CURVE SMOOTH",
"183 814 OFFCURVE",
"97 719 OFFCURVE",
"31 409 CURVE SMOOTH",
"-37 90 OFFCURVE",
"16 -14 OFFCURVE",
"241 -14 CURVE SMOOTH"
);
},
{
closed = 1;
nodes = (
"103 78 OFFCURVE",
"77 152 OFFCURVE",
"128 393 CURVE SMOOTH",
"181 641 OFFCURVE",
"248 722 OFFCURVE",
"397 722 CURVE SMOOTH",
"537 722 OFFCURVE",
"562 649 OFFCURVE",
"511 409 CURVE SMOOTH",
"458 160 OFFCURVE",
"392 78 OFFCURVE",
"244 78 CURVE SMOOTH"
);
},
{
closed = 1;
nodes = (
"261 -109 LINE",
"477 908 LINE",
"377 908 LINE",
"161 -109 LINE"
);
}
);
width = 600;
}
);
},
{
color = 4;
glyphname = "a-cy";
lastChange = "2020-04-13 13:05:23 +0000";
layers = (
{
anchors = (
{
name = top;
position = "{365.68, 618}";
}
);
layerId = "7C079D0C-96CD-4BD8-8800-0621C7635A78";
paths = (
{
closed = 1;
nodes = (
"482 40 OFFCURVE",
"464 32 OFFCURVE",
"449 32 CURVE SMOOTH",
"410 32 OFFCURVE",
"410 57 OFFCURVE",
"416 95 CURVE",
"494 463 OFFCURVE",
"508 530 OFFCURVE",
"508 545 CURVE SMOOTH",
"508 614 OFFCURVE",
"447 632 OFFCURVE",
"363 632 CURVE SMOOTH",
"212 632 OFFCURVE",
"32 363 OFFCURVE",
"32 159 CURVE SMOOTH",
"32 55 OFFCURVE",
"99 -14 OFFCURVE",
"200 -14 CURVE SMOOTH",
"265 -14 OFFCURVE",
"333 37 OFFCURVE",
"371 113 CURVE",
"366 99 OFFCURVE",
"362 72 OFFCURVE",
"362 44 CURVE SMOOTH",
"362 9 OFFCURVE",
"390 -14 OFFCURVE",
"431 -14 CURVE SMOOTH",
"465 -14 OFFCURVE",
"500 -2 OFFCURVE",
"519 16 CURVE",
"495 53 LINE"
);
},
{
closed = 1;
nodes = (
"129 32 OFFCURVE",
"82 83 OFFCURVE",
"82 159 CURVE SMOOTH",
"82 335 OFFCURVE",
"242 586 OFFCURVE",
"363 586 CURVE SMOOTH",
"430 586 OFFCURVE",
"458 576 OFFCURVE",
"458 540 CURVE SMOOTH",
"458 518 OFFCURVE",
"436 415 OFFCURVE",
"402 257 CURVE",
"360 122 OFFCURVE",
"279 32 OFFCURVE",
"200 32 CURVE SMOOTH"
);
}
);
width = 600;
},
{
anchors = (
{
name = top;
position = "{365.68, 618}";
}
);
layerId = "291433DC-531A-45CC-B814-57D397372F12";
paths = (
{
closed = 1;
nodes = (
"496 95 OFFCURVE",
"476 78 OFFCURVE",
"459 78 CURVE SMOOTH",
"434 78 OFFCURVE",
"436 89 OFFCURVE",
"442 120 CURVE",
"522 481 OFFCURVE",
"527 510 OFFCURVE",
"525 527 CURVE SMOOTH",
"525 599 OFFCURVE",
"474 632 OFFCURVE",
"363 632 CURVE SMOOTH",
"198 632 OFFCURVE",
"15 402 OFFCURVE",
"16 177 CURVE SMOOTH",
"13 63 OFFCURVE",
"87 -14 OFFCURVE",
"200 -14 CURVE SMOOTH",
"248 -14 OFFCURVE",
"299 9 OFFCURVE",
"339 50 CURVE",
"337 52 OFFCURVE",
"340 50 OFFCURVE",
"342 54 CURVE",
"344 17 OFFCURVE",
"379 -14 OFFCURVE",
"431 -14 CURVE SMOOTH",
"478 -14 OFFCURVE",
"533 7 OFFCURVE",
"551 40 CURVE",
"510 121 LINE"
);
},
{
closed = 1;
nodes = (
"151 78 OFFCURVE",
"110 121 OFFCURVE",
"108 187 CURVE SMOOTH",
"110 350 OFFCURVE",
"253 540 OFFCURVE",
"353 540 CURVE SMOOTH",
"412 540 OFFCURVE",
"429 534 OFFCURVE",
"431 513 CURVE SMOOTH",
"430 492 OFFCURVE",
"407 391 OFFCURVE",
"381 259 CURVE",
"346 160 OFFCURVE",
"274 78 OFFCURVE",
"210 78 CURVE SMOOTH"
);
}
);
width = 600;
}
);
unicode = 0430;
},
{
color = 4;
glyphname = "be-cy";
lastChange = "2020-01-07 12:25:29 +0000";
layers = (
{
layerId = "7C079D0C-96CD-4BD8-8800-0621C7635A78";
paths = (
{
closed = 1;
nodes = (
"405 -14 OFFCURVE",
"470 45 OFFCURVE",
"510 235 CURVE SMOOTH",
"552 429 OFFCURVE",
"509 492 OFFCURVE",
"335 492 CURVE SMOOTH",
"242 492 OFFCURVE",
"197 475 OFFCURVE",
"145 413 CURVE",
"160 478 LINE SMOOTH",
"189 614 OFFCURVE",
"281 707 OFFCURVE",
"388 707 CURVE SMOOTH",
"522 707 OFFCURVE",
"617 742 OFFCURVE",
"629 798 CURVE",
"580 802 LINE",
"574 774 OFFCURVE",
"497 753 OFFCURVE",
"389 753 CURVE SMOOTH",
"256 753 OFFCURVE",
"146 646 OFFCURVE",
"111 482 CURVE SMOOTH",
"59 240 LINE SMOOTH",
"19 48 OFFCURVE",
"61 -14 OFFCURVE",
"236 -14 CURVE SMOOTH"
);
},
{
closed = 1;
nodes = (
"105 32 OFFCURVE",
"75 79 OFFCURVE",
"108 234 CURVE SMOOTH",
"142 394 OFFCURVE",
"197 446 OFFCURVE",
"333 446 CURVE SMOOTH",
"465 446 OFFCURVE",
"495 398 OFFCURVE",
"462 243 CURVE SMOOTH",
"428 84 OFFCURVE",
"373 32 OFFCURVE",
"237 32 CURVE SMOOTH"
);
}
);
width = 600;
},
{
layerId = "291433DC-531A-45CC-B814-57D397372F12";
paths = (
{
closed = 1;
nodes = (
"423 -14 OFFCURVE",
"494 42 OFFCURVE",
"537 243 CURVE SMOOTH",
"581 452 OFFCURVE",
"527 515 OFFCURVE",
"335 515 CURVE SMOOTH",
"270 515 OFFCURVE",
"224 506 OFFCURVE",
"182 479 CURVE",
"185 476 LINE SMOOTH",
"208 586 OFFCURVE",
"289 664 OFFCURVE",
"383 664 CURVE SMOOTH",
"528 664 OFFCURVE",
"634 714 OFFCURVE",
"652 796 CURVE",
"548 804 LINE",
"543 778 OFFCURVE",
"476 756 OFFCURVE",
"386 756 CURVE SMOOTH",
"240 756 OFFCURVE",
"121 650 OFFCURVE",
"86 484 CURVE SMOOTH",
"37 254 LINE SMOOTH",
"-6 50 OFFCURVE",
"49 -14 OFFCURVE",
"240 -14 CURVE SMOOTH"
);
},
{
closed = 1;
nodes = (
"129 78 OFFCURVE",
"105 101 OFFCURVE",
"135 242 CURVE SMOOTH",
"167 392 OFFCURVE",
"210 423 OFFCURVE",
"333 423 CURVE SMOOTH",
"446 423 OFFCURVE",
"470 400 OFFCURVE",
"440 259 CURVE SMOOTH",
"409 110 OFFCURVE",
"365 78 OFFCURVE",
"243 78 CURVE SMOOTH"
);
}
);
width = 600;
}
);
unicode = 0431;
},
{
color = 4;
glyphname = "ve-cy";
lastChange = "2020-04-11 08:13:57 +0000";
layers = (
{
layerId = "7C079D0C-96CD-4BD8-8800-0621C7635A78";
paths = (
{
closed = 1;
nodes = (
"408 -14 OFFCURVE",
"467 27 OFFCURVE",
"495 167 CURVE SMOOTH",
"516 273 OFFCURVE",
"494 320 OFFCURVE",
"403 336 CURVE",
"487 356 OFFCURVE",
"517 400 OFFCURVE",
"531 468 CURVE SMOOTH",
"557 593 OFFCURVE",
"511 632 OFFCURVE",
"368 632 CURVE SMOOTH",
"42 632 OFFCURVE",
"-50 -14 OFFCURVE",
"265 -14 CURVE SMOOTH"
);
},
{
closed = 1;
nodes = (
"107 32 OFFCURVE",
"105 214 OFFCURVE",
"124 309 CURVE",
"311 309 LINE SMOOTH",
"436 309 OFFCURVE",
"467 273 OFFCURVE",
"447 175 CURVE SMOOTH",
"425 66 OFFCURVE",
"376 32 OFFCURVE",
"271 32 CURVE SMOOTH"
);
},
{
closed = 1;
nodes = (
"149 427 OFFCURVE",
"220 586 OFFCURVE",
"362 586 CURVE SMOOTH",
"467 586 OFFCURVE",
"500 562 OFFCURVE",
"483 476 CURVE SMOOTH",
"468 400 OFFCURVE",
"417 355 OFFCURVE",
"292 355 CURVE SMOOTH",
"134 355 LINE"
);
}
);
width = 600;
},
{
layerId = "291433DC-531A-45CC-B814-57D397372F12";
paths = (
{
closed = 1;
nodes = (
"415 -14 OFFCURVE",
"484 34 OFFCURVE",
"512 174 CURVE SMOOTH",
"530 265 OFFCURVE",
"514 312 OFFCURVE",
"465 336 CURVE",
"513 363 OFFCURVE",
"531 395 OFFCURVE",
"543 453 CURVE SMOOTH",
"570 582 OFFCURVE",
"511 632 OFFCURVE",
"365 632 CURVE SMOOTH",
"14 632 OFFCURVE",
"-49 -14 OFFCURVE",
"270 -14 CURVE SMOOTH"
);
},
{
closed = 1;
nodes = (
"162 78 OFFCURVE",
"136 199 OFFCURVE",
"154 286 CURVE",
"308 286 LINE SMOOTH",
"410 286 OFFCURVE",
"430 272 OFFCURVE",
"415 190 CURVE SMOOTH",
"399 105 OFFCURVE",
"371 78 OFFCURVE",
"291 78 CURVE SMOOTH"
);
},
{
closed = 1;
nodes = (
"194 465 OFFCURVE",
"247 540 OFFCURVE",
"364 540 CURVE SMOOTH",
"448 540 OFFCURVE",
"457 526 OFFCURVE",
"446 469 CURVE SMOOTH",
"432 396 OFFCURVE",
"398 378 OFFCURVE",
"294 378 CURVE SMOOTH",
"174 378 LINE"
);
}
);
width = 600;
}
);
unicode = 0432;
},
{
color = 4;
glyphname = "ge-cy";
lastChange = "2020-04-11 08:14:51 +0000";
layers = (
{
anchors = (
{
name = bottomright;
position = "{514.32, 0}";
},
{
name = top;
position = "{365.68, 618}";
}
);
layerId = "7C079D0C-96CD-4BD8-8800-0621C7635A78";
paths = (
{
closed = 1;
nodes = (
"336 -14 OFFCURVE",
"434 59 OFFCURVE",
"464 169 CURVE",
"414 177 LINE",
"388 90 OFFCURVE",
"310 32 OFFCURVE",
"219 32 CURVE SMOOTH",
"133 32 OFFCURVE",
"85 77 OFFCURVE",
"98 144 CURVE SMOOTH",
"129 301 OFFCURVE",
"476 272 OFFCURVE",
"517 448 CURVE SMOOTH",
"543 558 OFFCURVE",
"474 632 OFFCURVE",
"345 632 CURVE SMOOTH",
"245 632 OFFCURVE",
"161 564 OFFCURVE",
"134 461 CURVE",
"182 449 LINE",
"204 531 OFFCURVE",
"269 586 OFFCURVE",
"345 586 CURVE SMOOTH",
"436 586 OFFCURVE",
"486 535 OFFCURVE",
"469 458 CURVE SMOOTH",
"440 328 OFFCURVE",
"89 342 OFFCURVE",
"50 154 CURVE SMOOTH",
"29 53 OFFCURVE",
"97 -14 OFFCURVE",
"219 -14 CURVE SMOOTH"
);
}
);
width = 600;
},
{
anchors = (
{
name = bottomright;
position = "{514.32, 0}";
},
{
name = top;
position = "{365.68, 618}";
}
);
layerId = "291433DC-531A-45CC-B814-57D397372F12";
paths = (
{
closed = 1;
nodes = (
"357 -14 OFFCURVE",
"467 72 OFFCURVE",
"494 201 CURVE",
"395 216 LINE",
"375 133 OFFCURVE",
"305 78 OFFCURVE",
"219 78 CURVE SMOOTH",
"151 78 OFFCURVE",
"112 112 OFFCURVE",
"122 162 CURVE SMOOTH",
"149 300 OFFCURVE",
"495 224 OFFCURVE",
"541 420 CURVE SMOOTH",
"571 547 OFFCURVE",
"493 632 OFFCURVE",
"345 632 CURVE SMOOTH",
"227 632 OFFCURVE",
"131 552 OFFCURVE",
"105 432 CURVE",
"201 407 LINE",
"218 487 OFFCURVE",
"276 540 OFFCURVE",
"345 540 CURVE SMOOTH",
"418 540 OFFCURVE",
"458 500 OFFCURVE",
"445 440 CURVE SMOOTH",
"421 328 OFFCURVE",
"70 388 OFFCURVE",
"26 182 CURVE SMOOTH",
"1 64 OFFCURVE",
"78 -14 OFFCURVE",
"219 -14 CURVE SMOOTH"
);
}
);
width = 600;
}
);
unicode = 0433;
},
{
color = 4;
glyphname = "gheupturn-cy";
lastChange = "2020-04-11 08:15:17 +0000";
layers = (
{
anchors = (
{
name = bottomright;
position = "{514, 0}";
},
{
name = top;
position = "{366, 618}";
}
);
layerId = "7C079D0C-96CD-4BD8-8800-0621C7635A78";
paths = (
{
closed = 1;
nodes = (
"619 743 LINE",
"593 618 LINE",
"543 618 LINE",
"569 743 LINE"
);
},
{
closed = 1;
nodes = (
"87 0 LINE",
"215 603 LINE",
"177 572 LINE",
"583 572 LINE",
"593 618 LINE",
"169 618 LINE",
"37 0 LINE"
);
}
);
width = 600;
},
{
anchors = (
{
name = bottomright;
position = "{514, 0}";
},
{
name = top;
position = "{366, 618}";
}
);
layerId = "291433DC-531A-45CC-B814-57D397372F12";
paths = (
{
closed = 1;
nodes = (
"648 763 LINE",
"618 618 LINE",
"518 618 LINE",
"548 763 LINE"
);
},
{
closed = 1;
nodes = (
"112 0 LINE",
"238 599 LINE",
"150 526 LINE",
"598 526 LINE",
"618 618 LINE",
"144 618 LINE",
"12 0 LINE"
);
}
);
width = 600;
}
);
unicode = 0491;
},
{
color = 4;
glyphname = "de-cy";
lastChange = "2020-04-11 08:35:39 +0000";
layers = (
{
layerId = "7C079D0C-96CD-4BD8-8800-0621C7635A78";
paths = (
{
closed = 1;
nodes = (
"405 -14 OFFCURVE",
"470 44 OFFCURVE",
"510 236 CURVE SMOOTH",
"541 378 LINE SMOOTH",
"564 487 OFFCURVE",
"519 610 OFFCURVE",
"434 700 CURVE SMOOTH",
"400 741 OFFCURVE",
"348 781 OFFCURVE",
"306 802 CURVE",
"278 762 LINE",
"330 731 OFFCURVE",
"387 683 OFFCURVE",
"425 643 CURVE SMOOTH",
"483 571 OFFCURVE",
"506 451 OFFCURVE",
"497 411 CURVE",
"470 471 OFFCURVE",
"432 492 OFFCURVE",
"335 492 CURVE SMOOTH",
"165 492 OFFCURVE",
"100 433 OFFCURVE",
"60 243 CURVE SMOOTH",
"19 49 OFFCURVE",
"61 -14 OFFCURVE",
"236 -14 CURVE SMOOTH"
);
},
{
closed = 1;
nodes = (
"105 32 OFFCURVE",
"75 80 OFFCURVE",
"108 235 CURVE SMOOTH",
"142 394 OFFCURVE",
"197 446 OFFCURVE",
"333 446 CURVE SMOOTH",
"465 446 OFFCURVE",
"495 398 OFFCURVE",
"462 242 CURVE SMOOTH",
"428 83 OFFCURVE",
"373 32 OFFCURVE",
"237 32 CURVE SMOOTH"
);
}
);
width = 600;
},
{
layerId = "291433DC-531A-45CC-B814-57D397372F12";
paths = (
{
closed = 1;
nodes = (
"423 -14 OFFCURVE",
"496 48 OFFCURVE",
"536 240 CURVE SMOOTH",
"563 366 LINE SMOOTH",
"594 509 OFFCURVE",
"535 601 OFFCURVE",
"446 693 CURVE SMOOTH",
"406 742 OFFCURVE",
"338 781 OFFCURVE",
"291 799 CURVE",
"238 721 LINE",
"293 691 OFFCURVE",
"360 650 OFFCURVE",
"403 606 CURVE SMOOTH",
"438 559 OFFCURVE",
"464 526 OFFCURVE",
"468 480 CURVE",
"437 495 OFFCURVE",
"396 505 OFFCURVE",
"333 505 CURVE SMOOTH",
"150 505 OFFCURVE",
"78 444 OFFCURVE",
"37 253 CURVE SMOOTH",
"-5 56 OFFCURVE",
"49 -14 OFFCURVE",
"240 -14 CURVE SMOOTH"
);
},
{
closed = 1;
nodes = (
"129 78 OFFCURVE",
"106 108 OFFCURVE",
"134 237 CURVE SMOOTH",
"163 376 OFFCURVE",
"208 413 OFFCURVE",
"330 413 CURVE SMOOTH",
"444 413 OFFCURVE",
"467 384 OFFCURVE",
"439 252 CURVE SMOOTH",
"410 115 OFFCURVE",
"365 78 OFFCURVE",
"243 78 CURVE SMOOTH"
);
}
);
width = 600;
}
);
unicode = 0434;
},
{
color = 4;
glyphname = "zhe-cy";
lastChange = "2020-06-28 17:06:49 +0000";
layers = (
{
anchors = (
{
name = bottomright;
position = "{514.32, 0}";
},
{
name = top;
position = "{365.68, 618}";
}
);
layerId = "7C079D0C-96CD-4BD8-8800-0621C7635A78";
paths = (
{
closed = 1;
nodes = (
"413 309 LINE",
"436 412 OFFCURVE",
"531 515 OFFCURVE",
"644 618 CURVE",
"585 618 LINE",
"471 515 OFFCURVE",
"388 412 OFFCURVE",
"365 309 CURVE"
);
},
{
closed = 1;
nodes = (
"15 0 LINE",
"129 103 OFFCURVE",
"211 206 OFFCURVE",
"235 309 CURVE",
"187 309 LINE",
"162 206 OFFCURVE",
"69 103 OFFCURVE",
"-44 0 CURVE"
);
},
{
closed = 1;
nodes = (
"235 309 LINE",
"253 412 OFFCURVE",
"215 515 OFFCURVE",
"145 618 CURVE",
"88 618 LINE",
"158 515 OFFCURVE",
"207 412 OFFCURVE",
"187 309 CURVE"
);
},
{
closed = 1;
nodes = (
"259 0 LINE",
"391 618 LINE",
"341 618 LINE",
"209 0 LINE"
);
},
{
closed = 1;
nodes = (
"512 0 LINE",
"452 103 OFFCURVE",
"391 206 OFFCURVE",
"413 309 CURVE",
"365 309 LINE",
"346 206 OFFCURVE",
"395 103 OFFCURVE",
"455 0 CURVE"
);
},
{
closed = 1;
nodes = (
"387 285 LINE",
"400 331 LINE",
"214 331 LINE",
"202 285 LINE"
);
}
);
width = 600;
},
{
anchors = (
{
name = bottomright;
position = "{514.32, 0}";
},
{
name = top;
position = "{365.68, 618}";
}
);
layerId = "291433DC-531A-45CC-B814-57D397372F12";
paths = (
{
closed = 1;
nodes = (
"466 309 LINE",
"480 379 OFFCURVE",
"501 457 OFFCURVE",
"658 618 CURVE",
"540 618 LINE",
"412 486 OFFCURVE",
"384 393 OFFCURVE",
"370 309 CURVE"
);
},
{
closed = 1;
nodes = (
"71 0 LINE",
"197 131 OFFCURVE",
"226 224 OFFCURVE",
"242 309 CURVE",
"146 309 LINE",
"123 228 OFFCURVE",
"83 137 OFFCURVE",
"-58 0 CURVE"
);
},
{
closed = 1;
nodes = (
"242 309 LINE",
"263 395 OFFCURVE",
"266 487 OFFCURVE",
"205 618 CURVE",
"90 618 LINE",
"162 481 OFFCURVE",
"169 391 OFFCURVE",
"146 309 CURVE"
);
},
{
closed = 1;
nodes = (
"286 0 LINE",
"427 618 LINE",
"326 618 LINE",
"185 0 LINE"
);
},
{
closed = 1;
nodes = (
"513 0 LINE",
"456 126 OFFCURVE",
"445 218 OFFCURVE",
"466 309 CURVE",
"370 309 LINE",
"345 210 OFFCURVE",
"350 113 OFFCURVE",
"404 0 CURVE"
);
},
{
closed = 1;
nodes = (
"417 262 LINE",
"443 354 LINE",
"195 354 LINE",
"171 262 LINE"
);
}
);
width = 600;
}
);
unicode = 0436;
},
{
color = 4;
glyphname = "ze-cy";
lastChange = "2020-01-07 12:25:29 +0000";
layers = (
{
layerId = "7C079D0C-96CD-4BD8-8800-0621C7635A78";
paths = (
{
closed = 1;
nodes = (
"399 -14 OFFCURVE",
"458 23 OFFCURVE",
"484 144 CURVE SMOOTH",
"503 235 OFFCURVE",
"486 276 OFFCURVE",
"421 311 CURVE",
"505 348 OFFCURVE",
"535 385 OFFCURVE",
"553 467 CURVE SMOOTH",
"579 591 OFFCURVE",
"533 632 OFFCURVE",
"364 632 CURVE SMOOTH",
"201 632 OFFCURVE",
"143 600 OFFCURVE",
"120 493 CURVE",
"169 489 LINE",
"185 561 OFFCURVE",
"233 586 OFFCURVE",
"363 586 CURVE SMOOTH",
"489 586 OFFCURVE",
"522 560 OFFCURVE",
"504 475 CURVE SMOOTH",
"484 378 OFFCURVE",
"438 344 OFFCURVE",
"324 336 CURVE",
"256 336 LINE",
"246 290 LINE",
"318 290 LINE",
"429 282 OFFCURVE",
"456 250 OFFCURVE",
"436 152 CURVE SMOOTH",
"416 62 OFFCURVE",
"367 32 OFFCURVE",
"237 32 CURVE SMOOTH",
"111 32 OFFCURVE",
"77 54 OFFCURVE",
"93 130 CURVE",
"44 134 LINE",
"20 23 OFFCURVE",
"67 -14 OFFCURVE",
"236 -14 CURVE SMOOTH"
);
}
);
width = 600;
},
{
layerId = "291433DC-531A-45CC-B814-57D397372F12";
paths = (
{
closed = 1;
nodes = (
"421 -14 OFFCURVE",
"483 24 OFFCURVE",
"511 152 CURVE SMOOTH",
"528 234 OFFCURVE",
"515 273 OFFCURVE",
"469 309 CURVE",
"538 348 OFFCURVE",
"559 381 OFFCURVE",
"574 451 CURVE SMOOTH",
"603 586 OFFCURVE",
"549 632 OFFCURVE",
"360 632 CURVE SMOOTH",
"179 632 OFFCURVE",
"118 594 OFFCURVE",
"89 459 CURVE",
"187 451 LINE",
"201 516 OFFCURVE",
"244 540 OFFCURVE",
"357 540 CURVE SMOOTH",
"462 540 OFFCURVE",
"490 525 OFFCURVE",
"478 467 CURVE SMOOTH",
"462 394 OFFCURVE",
"422 366 OFFCURVE",
"326 359 CURVE",
"236 359 LINE",
"216 267 LINE",
"314 267 LINE",
"408 260 OFFCURVE",
"429 238 OFFCURVE",
"414 168 CURVE SMOOTH",
"400 102 OFFCURVE",
"356 78 OFFCURVE",
"243 78 CURVE SMOOTH",
"138 78 OFFCURVE",
"112 96 OFFCURVE",
"126 164 CURVE",
"28 172 LINE",
"-1 34 OFFCURVE",
"51 -14 OFFCURVE",
"240 -14 CURVE SMOOTH"
);
}
);
width = 600;
}
);
unicode = 0437;
},
{
color = 4;
glyphname = "ii-cy";
lastChange = "2020-04-11 08:51:17 +0000";
layers = (
{
anchors = (
{
name = bottomright;
position = "{514, 0}";
},
{
name = top;
position = "{356, 618}";
}
);
layerId = "7C079D0C-96CD-4BD8-8800-0621C7635A78";
paths = (
{
closed = 1;
nodes = (
"89 578 OFFCURVE",
"107 586 OFFCURVE",
"122 586 CURVE SMOOTH",
"144 586 OFFCURVE",
"159 573 OFFCURVE",
"159 553 CURVE SMOOTH",
"159 499 OFFCURVE",
"127 365 OFFCURVE",
"79 217 CURVE SMOOTH",
"26 54 OFFCURVE",
"78 -14 OFFCURVE",
"201 -14 CURVE SMOOTH",
"278 -14 OFFCURVE",
"348 63 OFFCURVE",
"405 170 CURVE",
"385 78 LINE SMOOTH",
"372 18 OFFCURVE",
"412 -14 OFFCURVE",
"453 -14 CURVE SMOOTH",
"487 -14 OFFCURVE",
"522 -2 OFFCURVE",
"541 16 CURVE",
"517 53 LINE",
"504 40 OFFCURVE",
"485 32 OFFCURVE",
"471 32 CURVE SMOOTH",
"449 32 OFFCURVE",
"434 45 OFFCURVE",
"434 65 CURVE SMOOTH",
"434 70 OFFCURVE",
"435 78 OFFCURVE",
"436 85 CURVE",
"550 618 LINE",
"499 618 LINE",
"438 330 LINE SMOOTH",
"414 216 OFFCURVE",
"301 32 OFFCURVE",
"202 32 CURVE SMOOTH",
"121 32 OFFCURVE",
"89 82 OFFCURVE",
"129 213 CURVE SMOOTH",
"178 373 OFFCURVE",
"211 518 OFFCURVE",
"211 574 CURVE SMOOTH",
"211 609 OFFCURVE",
"183 632 OFFCURVE",
"140 632 CURVE SMOOTH",
"106 632 OFFCURVE",
"71 620 OFFCURVE",
"52 602 CURVE",
"76 565 LINE"
);
}
);
width = 600;
},
{
anchors = (
{
name = bottomright;
position = "{514, 0}";
},
{
name = top;
position = "{366, 618}";
}
);
layerId = "291433DC-531A-45CC-B814-57D397372F12";
paths = (
{
closed = 1;
nodes = (
"75 523 OFFCURVE",
"95 540 OFFCURVE",
"112 540 CURVE SMOOTH",
"123 540 OFFCURVE",
"131 535 OFFCURVE",
"132 525 CURVE SMOOTH",
"137 473 OFFCURVE",
"104 363 OFFCURVE",
"61 233 CURVE SMOOTH",
"9 77 OFFCURVE",
"54 -14 OFFCURVE",
"201 -14 CURVE SMOOTH",
"255 -14 OFFCURVE",
"310 21 OFFCURVE",
"368 90 CURVE",
"365 93 LINE",
"343 37 OFFCURVE",
"390 -14 OFFCURVE",
"453 -14 CURVE SMOOTH",
"500 -14 OFFCURVE",
"555 7 OFFCURVE",
"573 40 CURVE",
"533 114 LINE",
"502 85 OFFCURVE",
"492 78 OFFCURVE",
"481 78 CURVE SMOOTH",
"471 78 OFFCURVE",
"465 83 OFFCURVE",
"462 92 CURVE SMOOTH",
"460 99 OFFCURVE",
"464 105 OFFCURVE",
"464 109 CURVE",
"574 618 LINE",
"475 618 LINE",
"414 322 LINE SMOOTH",
"390 206 OFFCURVE",
"280 78 OFFCURVE",
"212 78 CURVE SMOOTH",
"141 78 OFFCURVE",
"118 125 OFFCURVE",
"153 222 CURVE SMOOTH",
"209 378 OFFCURVE",
"230 499 OFFCURVE",
"228 556 CURVE SMOOTH",
"226 602 OFFCURVE",
"194 632 OFFCURVE",
"140 632 CURVE SMOOTH",
"93 632 OFFCURVE",
"38 611 OFFCURVE",
"20 578 CURVE",
"61 497 LINE"
);
}
);
width = 600;
}
);
unicode = 0438;
},
{
color = 4;
glyphname = "ka-cy";
lastChange = "2020-01-07 12:25:29 +0000";
layers = (
{
anchors = (
{
name = bottomright;
position = "{514, 0}";
},
{
name = top;
position = "{366, 618}";
}
);
layerId = "7C079D0C-96CD-4BD8-8800-0621C7635A78";
paths = (
{
closed = 1;
nodes = (
"228 308 LINE",
"429 323 OFFCURVE",
"421 502 OFFCURVE",
"620 617 CURVE",
"546 619 LINE",
"378 504 OFFCURVE",
"391 363 OFFCURVE",
"209 354 CURVE",
"122 354 LINE",
"112 308 LINE"
);
},
{
closed = 1;
nodes = (
"74 0 LINE",
"206 618 LINE",
"156 618 LINE",
"24 0 LINE"
);
},
{
closed = 1;
nodes = (
"492 0 LINE",
"260 341 LINE",
"209 328 LINE",
"433 0 LINE"
);
}
);
width = 600;
},
{
anchors = (
{
name = bottomright;
position = "{514, 0}";
},
{
name = top;
position = "{366, 618}";
}
);
layerId = "291433DC-531A-45CC-B814-57D397372F12";
paths = (
{
closed = 1;
nodes = (
"195 285 LINE SMOOTH",
"404 285 OFFCURVE",
"471 529 OFFCURVE",
"649 616 CURVE",
"502 620 LINE",
"411 572 OFFCURVE",
"320 377 OFFCURVE",
"180 377 CURVE SMOOTH",
"70 377 LINE",
"51 285 LINE"
);
},
{
closed = 1;
nodes = (
"68 0 LINE",
"200 618 LINE",
"100 618 LINE",
"-32 0 LINE"
);
},
{
closed = 1;
nodes = (
"493 0 LINE",
"243 367 LINE",
"137 341 LINE",
"371 0 LINE"
);
}
);
width = 600;
}
);
unicode = 043A;
},
{
color = 4;
glyphname = "el-cy";
lastChange = "2020-04-11 17:18:42 +0000";
layers = (
{
background = {
paths = (
{
closed = 1;
nodes = (
"474 0 LINE",
"606 618 LINE",
"302 618 LINE",
"292 572 LINE",
"546 572 LINE",
"424 0 LINE"
);
},
{
closed = 1;
nodes = (
"155 0 OFFCURVE",
"179 73 OFFCURVE",
"329 616 CURVE",
"281 620 LINE",
"143 120 OFFCURVE",
"111 46 OFFCURVE",
"-8 46 CURVE",
"-13 0 LINE"
);
}
);
};
layerId = "7C079D0C-96CD-4BD8-8800-0621C7635A78";
paths = (
{
closed = 1;
nodes = (
"484 50 OFFCURVE",
"470 32 OFFCURVE",
"457 32 CURVE SMOOTH",
"453 32 OFFCURVE",
"457 102 OFFCURVE",
"490 244 CURVE SMOOTH",
"529 411 OFFCURVE",
"578 632 OFFCURVE",
"443 632 CURVE SMOOTH",
"351 632 OFFCURVE",
"281 530 OFFCURVE",
"165 247 CURVE SMOOTH",
"100 89 OFFCURVE",
"66 32 OFFCURVE",
"55 32 CURVE SMOOTH",
"40 32 OFFCURVE",
"31 41 OFFCURVE",
"15 77 CURVE",
"-31 59 LINE",
"-9 9 OFFCURVE",
"14 -14 OFFCURVE",
"55 -14 CURVE SMOOTH",
"172 -14 OFFCURVE",
"286 586 OFFCURVE",
"443 586 CURVE SMOOTH",
"594 586 OFFCURVE",
"306 -14 OFFCURVE",
"457 -14 CURVE SMOOTH",
"491 -14 OFFCURVE",
"501 -2 OFFCURVE",
"539 41 CURVE",
"502 72 LINE"
);
}
);
width = 600;
},
{
background = {
paths = (
{
closed = 1;
nodes = (
"484 0 LINE",
"616 618 LINE",
"292 618 LINE",
"272 526 LINE",
"496 526 LINE",
"384 0 LINE"
);
},
{
closed = 1;
nodes = (
"197 0 OFFCURVE",
"228 117 OFFCURVE",
"370 614 CURVE",
"271 622 LINE",
"143 147 OFFCURVE",
"93 93 OFFCURVE",
"-10 93 CURVE",
"-21 0 LINE"
);
}
);
};
layerId = "291433DC-531A-45CC-B814-57D397372F12";
paths = (
{
closed = 1;
nodes = (
"463 79 OFFCURVE",
"452 55 OFFCURVE",
"448 55 CURVE SMOOTH",
"443 55 OFFCURVE",
"466 162 OFFCURVE",
"484 239 CURVE SMOOTH",
"523 406 OFFCURVE",
"579 655 OFFCURVE",
"413 655 CURVE SMOOTH",
"308 655 OFFCURVE",
"274 554 OFFCURVE",
"162 256 CURVE SMOOTH",
"74 21 OFFCURVE",
"50 55 OFFCURVE",
"75 55 CURVE",
"75 55 OFFCURVE",
"68 61 OFFCURVE",
"49 107 CURVE",
"-43 72 LINE",
"-15 -4 OFFCURVE",
"20 -37 OFFCURVE",
"75 -37 CURVE SMOOTH",
"215 -37 OFFCURVE",
"316 563 OFFCURVE",
"413 563 CURVE SMOOTH",
"521 563 OFFCURVE",
"241 -37 OFFCURVE",
"427 -37 CURVE SMOOTH",
"479 -37 OFFCURVE",
"495 -10 OFFCURVE",
"543 43 CURVE",
"474 96 LINE"
);
}
);
width = 600;
}
);
unicode = 043B;
},
{
color = 4;
glyphname = "em-cy";
lastChange = "2020-06-28 17:09:59 +0000";
layers = (
{
layerId = "7C079D0C-96CD-4BD8-8800-0621C7635A78";
paths = (
{
closed = 1;
nodes = (
"44 0 LINE",
"162 492 LINE",
"246 171 LINE",
"296 171 LINE",
"518 492 LINE",
"424 0 LINE",
"474 0 LINE",
"592 618 LINE",
"547 618 LINE",
"282 230 LINE",
"183 618 LINE",
"140 618 LINE",
"-6 0 LINE"
);
}
);
width = 600;
},
{
layerId = "291433DC-531A-45CC-B814-57D397372F12";
paths = (
{
closed = 1;
nodes = (
"69 0 LINE",
"157 360 LINE",
"224 147 LINE",
"310 147 LINE",
"467 360 LINE",
"399 0 LINE",
"499 0 LINE",
"617 618 LINE",
"539 618 LINE",
"288 267 LINE",
"189 618 LINE",
"115 618 LINE",
"-31 0 LINE"
);
}
);
width = 600;
}
);
unicode = 043C;
},
{
color = 4;
glyphname = "en-cy";
lastChange = "2020-01-07 12:25:29 +0000";
layers = (
{
layerId = "7C079D0C-96CD-4BD8-8800-0621C7635A78";
paths = (
{
closed = 1;
nodes = (
"450 0 LINE",
"582 618 LINE",
"532 618 LINE",
"400 0 LINE"
);
},
{
closed = 1;
nodes = (
"68 0 LINE",
"200 618 LINE",
"150 618 LINE",
"18 0 LINE"
);
},
{
closed = 1;
nodes = (
"487 309 LINE",
"497 355 LINE",
"123 355 LINE",
"113 309 LINE"
);
}
);
width = 600;
},
{
layerId = "291433DC-531A-45CC-B814-57D397372F12";
paths = (
{
closed = 1;
nodes = (
"475 0 LINE",
"607 618 LINE",
"507 618 LINE",
"375 0 LINE"
);
},
{
closed = 1;
nodes = (
"93 0 LINE",
"225 618 LINE",
"125 618 LINE",
"-7 0 LINE"
);
},
{
closed = 1;
nodes = (
"507 286 LINE",
"527 378 LINE",
"103 378 LINE",
"83 286 LINE"
);
}
);
width = 600;
}
);
unicode = 043D;
},
{
color = 4;
glyphname = "pe-cy";
lastChange = "2020-04-11 17:23:04 +0000";
layers = (
{
anchors = (
{
name = bottomright;
position = "{514, 0}";
}
);
layerId = "7C079D0C-96CD-4BD8-8800-0621C7635A78";
paths = (
{
closed = 1;
nodes = (
"503 40 OFFCURVE",
"485 32 OFFCURVE",
"470 32 CURVE SMOOTH",
"448 32 OFFCURVE",
"433 45 OFFCURVE",
"433 65 CURVE SMOOTH",
"433 119 OFFCURVE",
"465 253 OFFCURVE",
"513 401 CURVE SMOOTH",
"566 564 OFFCURVE",
"514 632 OFFCURVE",
"401 632 CURVE SMOOTH",
"324 632 OFFCURVE",
"244 555 OFFCURVE",
"187 448 CURVE",
"207 540 LINE SMOOTH",
"220 600 OFFCURVE",
"180 632 OFFCURVE",
"139 632 CURVE SMOOTH",
"105 632 OFFCURVE",
"70 620 OFFCURVE",
"51 602 CURVE",
"75 565 LINE",
"88 578 OFFCURVE",
"107 586 OFFCURVE",
"121 586 CURVE SMOOTH",
"143 586 OFFCURVE",
"158 573 OFFCURVE",
"158 553 CURVE SMOOTH",
"158 548 OFFCURVE",
"157 540 OFFCURVE",
"156 533 CURVE",
"42 0 LINE",
"93 0 LINE",
"154 288 LINE SMOOTH",
"178 402 OFFCURVE",
"301 586 OFFCURVE",
"400 586 CURVE SMOOTH",
"471 586 OFFCURVE",
"503 536 OFFCURVE",
"463 405 CURVE SMOOTH",
"414 245 OFFCURVE",
"381 100 OFFCURVE",
"381 44 CURVE SMOOTH",
"381 9 OFFCURVE",
"409 -14 OFFCURVE",
"452 -14 CURVE SMOOTH",
"486 -14 OFFCURVE",
"521 -2 OFFCURVE",
"540 16 CURVE",
"516 53 LINE"
);
}
);
width = 600;
},
{
anchors = (
{
name = bottomright;
position = "{514, 0}";
}
);
layerId = "291433DC-531A-45CC-B814-57D397372F12";
paths = (
{
closed = 1;
nodes = (
"519 95 OFFCURVE",
"499 78 OFFCURVE",
"482 78 CURVE SMOOTH",
"471 78 OFFCURVE",
"463 83 OFFCURVE",
"462 93 CURVE SMOOTH",
"457 145 OFFCURVE",
"490 255 OFFCURVE",
"533 385 CURVE SMOOTH",
"585 541 OFFCURVE",
"540 632 OFFCURVE",
"403 632 CURVE SMOOTH",
"349 632 OFFCURVE",
"284 597 OFFCURVE",
"226 528 CURVE",
"229 525 LINE",
"251 581 OFFCURVE",
"204 632 OFFCURVE",
"141 632 CURVE SMOOTH",
"94 632 OFFCURVE",
"39 611 OFFCURVE",
"21 578 CURVE",
"61 504 LINE",
"92 533 OFFCURVE",
"102 540 OFFCURVE",
"113 540 CURVE SMOOTH",
"123 540 OFFCURVE",
"129 535 OFFCURVE",
"132 526 CURVE SMOOTH",
"134 519 OFFCURVE",
"130 513 OFFCURVE",
"130 509 CURVE",
"20 0 LINE",
"119 0 LINE",
"180 296 LINE SMOOTH",
"204 412 OFFCURVE",
"324 540 OFFCURVE",
"392 540 CURVE SMOOTH",
"453 540 OFFCURVE",
"476 493 OFFCURVE",
"441 396 CURVE SMOOTH",
"385 240 OFFCURVE",
"364 119 OFFCURVE",
"366 62 CURVE SMOOTH",
"368 16 OFFCURVE",
"400 -14 OFFCURVE",
"454 -14 CURVE SMOOTH",
"501 -14 OFFCURVE",
"556 7 OFFCURVE",
"574 40 CURVE",
"533 121 LINE"
);
}
);
width = 600;
}
);
unicode = 043F;
},
{
color = 4;
glyphname = "te-cy";
lastChange = "2020-04-11 17:24:03 +0000";
layers = (
{
layerId = "7C079D0C-96CD-4BD8-8800-0621C7635A78";
paths = (
{
closed = 1;
nodes = (
"528 -14 OFFCURVE",
"563 -2 OFFCURVE",
"582 16 CURVE",
"558 53 LINE",
"545 40 OFFCURVE",
"527 32 OFFCURVE",
"512 32 CURVE SMOOTH",
"490 32 OFFCURVE",
"475 45 OFFCURVE",
"475 65 CURVE SMOOTH",
"475 119 OFFCURVE",
"507 253 OFFCURVE",
"555 401 CURVE SMOOTH",
"608 564 OFFCURVE",
"586 632 OFFCURVE",
"497 632 CURVE SMOOTH",
"441 632 OFFCURVE",
"396 595 OFFCURVE",
"360 523 CURVE",
"361 572 OFFCURVE",
"372 632 OFFCURVE",
"282 632 CURVE SMOOTH",
"225 632 OFFCURVE",
"182 579 OFFCURVE",
"166 543 CURVE",
"172 592 OFFCURVE",
"163 632 OFFCURVE",
"106 632 CURVE SMOOTH",
"72 632 OFFCURVE",
"37 620 OFFCURVE",
"18 602 CURVE",
"42 565 LINE",
"55 578 OFFCURVE",
"78 586 OFFCURVE",
"92 586 CURVE SMOOTH",
"114 586 OFFCURVE",
"125 573 OFFCURVE",
"125 553 CURVE SMOOTH",
"125 548 OFFCURVE",
"124 540 OFFCURVE",
"123 533 CURVE SMOOTH",
"9 0 LINE",
"59 0 LINE",
"122 294 LINE SMOOTH",
"176 546 OFFCURVE",
"207 586 OFFCURVE",
"281 586 CURVE SMOOTH",
"341 586 OFFCURVE",
"325 528 OFFCURVE",
"299 405 CURVE SMOOTH",
"214 0 LINE",
"264 0 LINE",
"326 296 LINE SMOOTH",
"378 546 OFFCURVE",
"418 586 OFFCURVE",
"496 586 CURVE SMOOTH",
"543 586 OFFCURVE",
"546 536 OFFCURVE",
"506 405 CURVE SMOOTH",
"457 245 OFFCURVE",
"423 100 OFFCURVE",
"423 44 CURVE SMOOTH",
"423 9 OFFCURVE",
"451 -14 OFFCURVE",
"494 -14 CURVE SMOOTH"
);
}
);
width = 600;
},
{
layerId = "291433DC-531A-45CC-B814-57D397372F12";
paths = (
{
closed = 1;
nodes = (
"526 -14 OFFCURVE",
"581 7 OFFCURVE",
"599 40 CURVE",
"558 121 LINE",
"544 95 OFFCURVE",
"524 78 OFFCURVE",
"507 78 CURVE SMOOTH",
"496 78 OFFCURVE",
"488 83 OFFCURVE",
"487 93 CURVE SMOOTH",
"482 145 OFFCURVE",
"508 244 OFFCURVE",
"558 384 CURVE SMOOTH",
"617 549 OFFCURVE",
"590 632 OFFCURVE",
"482 632 CURVE SMOOTH",
"436 632 OFFCURVE",
"417 612 OFFCURVE",
"377 568 CURVE",
"370 598 OFFCURVE",
"354 632 OFFCURVE",
"282 632 CURVE SMOOTH",
"253 632 OFFCURVE",
"232 619 OFFCURVE",
"198 587 CURVE",
"188 612 OFFCURVE",
"160 632 OFFCURVE",
"121 632 CURVE SMOOTH",
"74 632 OFFCURVE",
"19 611 OFFCURVE",
"1 578 CURVE",
"41 504 LINE",
"72 533 OFFCURVE",
"82 540 OFFCURVE",
"93 540 CURVE SMOOTH",
"103 540 OFFCURVE",
"109 535 OFFCURVE",
"112 526 CURVE SMOOTH",
"114 519 OFFCURVE",
"110 513 OFFCURVE",
"110 509 CURVE",
"0 0 LINE",
"98 0 LINE",
"159 291 LINE SMOOTH",
"204 507 OFFCURVE",
"214 540 OFFCURVE",
"271 540 CURVE SMOOTH",
"304 540 OFFCURVE",
"297 509 OFFCURVE",
"273 392 CURVE SMOOTH",
"190 0 LINE",
"288 0 LINE",
"348 293 LINE SMOOTH",
"387 486 OFFCURVE",
"400 540 OFFCURVE",
"471 540 CURVE SMOOTH",
"497 540 OFFCURVE",
"500 502 OFFCURVE",
"468 395 CURVE SMOOTH",
"417 223 OFFCURVE",
"389 118 OFFCURVE",
"391 62 CURVE SMOOTH",
"393 16 OFFCURVE",
"425 -14 OFFCURVE",
"479 -14 CURVE SMOOTH"
);
}
);
width = 600;
}
);
unicode = 0442;
},
{
color = 4;
glyphname = "ef-cy";
lastChange = "2020-01-07 12:25:29 +0000";
layers = (
{
layerId = "7C079D0C-96CD-4BD8-8800-0621C7635A78";
paths = (
{
closed = 1;
nodes = (
"431 26 OFFCURVE",
"502 92 OFFCURVE",
"547 305 CURVE SMOOTH",
"593 522 OFFCURVE",
"547 592 OFFCURVE",
"357 592 CURVE SMOOTH",
"170 592 OFFCURVE",
"98 526 OFFCURVE",
"53 313 CURVE SMOOTH",
"7 96 OFFCURVE",
"54 26 OFFCURVE",
"245 26 CURVE SMOOTH"
);
},
{
closed = 1;
nodes = (
"221 -182 LINE",
"429 800 LINE",
"379 800 LINE",
"171 -182 LINE"
);
},
{
closed = 1;
nodes = (
"98 72 OFFCURVE",
"63 127 OFFCURVE",
"101 305 CURVE SMOOTH",
"140 487 OFFCURVE",
"202 546 OFFCURVE",
"356 546 CURVE SMOOTH",
"503 546 OFFCURVE",
"537 491 OFFCURVE",
"499 313 CURVE SMOOTH",
"460 131 OFFCURVE",
"399 72 OFFCURVE",
"246 72 CURVE SMOOTH"
);
}
);
width = 600;
},
{
layerId = "291433DC-531A-45CC-B814-57D397372F12";
paths = (
{
closed = 1;
nodes = (
"443 3 OFFCURVE",
"524 77 OFFCURVE",
"571 301 CURVE SMOOTH",
"621 533 OFFCURVE",
"565 615 OFFCURVE",
"358 615 CURVE SMOOTH",
"158 615 OFFCURVE",
"76 540 OFFCURVE",
"29 317 CURVE SMOOTH",
"-20 86 OFFCURVE",
"36 3 OFFCURVE",
"244 3 CURVE SMOOTH"
);
},
{
closed = 1;
nodes = (
"246 -182 LINE",
"454 800 LINE",
"354 800 LINE",
"146 -182 LINE"
);
},
{
closed = 1;
nodes = (
"116 95 OFFCURVE",
"90 137 OFFCURVE",
"125 301 CURVE SMOOTH",
"162 473 OFFCURVE",
"216 523 OFFCURVE",
"355 523 CURVE SMOOTH",
"485 523 OFFCURVE",
"510 481 OFFCURVE",
"475 317 CURVE SMOOTH",
"438 145 OFFCURVE",
"385 95 OFFCURVE",
"247 95 CURVE SMOOTH"
);
}
);
width = 600;
}
);
unicode = 0444;
},
{
color = 4;
glyphname = "che-cy";
lastChange = "2020-04-11 17:27:46 +0000";
layers = (
{
anchors = (
{
name = bottomright;
position = "{514.32, 0}";
},
{
name = top;
position = "{365.68, 618}";
}
);
layerId = "7C079D0C-96CD-4BD8-8800-0621C7635A78";
paths = (
{
closed = 1;
nodes = (
"477 -14 OFFCURVE",
"512 -2 OFFCURVE",
"531 16 CURVE",
"507 53 LINE",
"494 40 OFFCURVE",
"476 32 OFFCURVE",
"461 32 CURVE SMOOTH",
"439 32 OFFCURVE",
"421 45 OFFCURVE",
"425 65 CURVE SMOOTH",
"543 618 LINE",
"493 618 LINE",
"471 512 LINE SMOOTH",
"447 394 OFFCURVE",
"323 214 OFFCURVE",
"235 214 CURVE SMOOTH",
"154 214 OFFCURVE",
"140 258 OFFCURVE",
"182 385 CURVE SMOOTH",
"206 458 OFFCURVE",
"225 518 OFFCURVE",
"225 574 CURVE SMOOTH",
"225 609 OFFCURVE",
"197 632 OFFCURVE",
"154 632 CURVE SMOOTH",
"120 632 OFFCURVE",
"85 620 OFFCURVE",
"66 602 CURVE",
"90 565 LINE",
"103 578 OFFCURVE",
"121 586 OFFCURVE",
"136 586 CURVE SMOOTH",
"158 586 OFFCURVE",
"173 573 OFFCURVE",
"173 553 CURVE SMOOTH",
"173 499 OFFCURVE",
"151 449 OFFCURVE",
"132 389 CURVE SMOOTH",
"83 236 OFFCURVE",
"111 168 OFFCURVE",
"234 168 CURVE SMOOTH",
"300 168 OFFCURVE",
"380 245 OFFCURVE",
"437 352 CURVE",
"371 44 LINE SMOOTH",
"364 9 OFFCURVE",
"400 -14 OFFCURVE",
"443 -14 CURVE SMOOTH"
);
}
);
width = 600;
},
{
anchors = (
{
name = bottomright;
position = "{514.32, 0}";
},
{
name = top;
position = "{365.68, 618}";
}
);
layerId = "291433DC-531A-45CC-B814-57D397372F12";
paths = (
{
closed = 1;
nodes = (
"492 -14 OFFCURVE",
"546 9 OFFCURVE",
"560 38 CURVE",
"507 120 LINE",
"496 93 OFFCURVE",
"476 78 OFFCURVE",
"461 78 CURVE SMOOTH",
"452 78 OFFCURVE",
"449 81 OFFCURVE",
"449 83 CURVE",
"573 618 LINE",
"472 618 LINE",
"447 494 LINE SMOOTH",
"423 373 OFFCURVE",
"300 237 OFFCURVE",
"235 237 CURVE SMOOTH",
"177 237 OFFCURVE",
"168 264 OFFCURVE",
"206 378 CURVE SMOOTH",
"230 451 OFFCURVE",
"250 492 OFFCURVE",
"250 551 CURVE SMOOTH",
"250 599 OFFCURVE",
"210 632 OFFCURVE",
"154 632 CURVE SMOOTH",
"105 632 OFFCURVE",
"51 609 OFFCURVE",
"37 580 CURVE",
"90 498 LINE",
"101 525 OFFCURVE",
"121 540 OFFCURVE",
"136 540 CURVE SMOOTH",
"145 540 OFFCURVE",
"148 537 OFFCURVE",
"148 530 CURVE SMOOTH",
"148 480 OFFCURVE",
"127 457 OFFCURVE",
"108 396 CURVE SMOOTH",
"54 227 OFFCURVE",
"93 145 OFFCURVE",
"234 145 CURVE SMOOTH",
"283 145 OFFCURVE",
"337 178 OFFCURVE",
"386 234 CURVE",
"347 72 LINE SMOOTH",
"335 23 OFFCURVE",
"382 -14 OFFCURVE",
"443 -14 CURVE SMOOTH"
);
}
);
width = 600;
}
);
unicode = 0447;
},
{
color = 4;
glyphname = "tse-cy";
lastChange = "2020-04-11 17:30:17 +0000";
layers = (
{
layerId = "7C079D0C-96CD-4BD8-8800-0621C7635A78";
paths = (
{
closed = 1;
nodes = (
"477 -74 OFFCURVE",
"501 -21 OFFCURVE",
"481 23 CURVE",
"432 3 LINE",
"441 -20 OFFCURVE",
"428 -46 OFFCURVE",
"400 -69 CURVE SMOOTH",
"385 -81 OFFCURVE",
"361 -86 OFFCURVE",
"341 -83 CURVE",
"342 -131 LINE",
"365 -135 OFFCURVE",
"399 -126 OFFCURVE",
"426 -108 CURVE SMOOTH"
);
},
{
closed = 1;
nodes = (
"89 578 OFFCURVE",
"107 586 OFFCURVE",
"122 586 CURVE SMOOTH",
"144 586 OFFCURVE",
"159 573 OFFCURVE",
"159 553 CURVE SMOOTH",
"159 499 OFFCURVE",
"127 365 OFFCURVE",
"79 217 CURVE SMOOTH",
"26 54 OFFCURVE",
"78 -14 OFFCURVE",
"201 -14 CURVE SMOOTH",
"278 -14 OFFCURVE",
"348 63 OFFCURVE",
"405 170 CURVE",
"385 78 LINE SMOOTH",
"372 18 OFFCURVE",
"412 -14 OFFCURVE",
"453 -14 CURVE SMOOTH",
"487 -14 OFFCURVE",
"522 -2 OFFCURVE",
"541 16 CURVE",
"517 53 LINE",
"504 40 OFFCURVE",
"485 32 OFFCURVE",
"471 32 CURVE SMOOTH",
"449 32 OFFCURVE",
"434 45 OFFCURVE",
"434 65 CURVE SMOOTH",
"434 70 OFFCURVE",
"435 78 OFFCURVE",
"436 85 CURVE",
"550 618 LINE",
"499 618 LINE",
"438 330 LINE SMOOTH",
"414 216 OFFCURVE",
"301 32 OFFCURVE",
"202 32 CURVE SMOOTH",
"121 32 OFFCURVE",
"89 82 OFFCURVE",
"129 213 CURVE SMOOTH",
"178 373 OFFCURVE",
"211 518 OFFCURVE",
"211 574 CURVE SMOOTH",
"211 609 OFFCURVE",
"183 632 OFFCURVE",
"140 632 CURVE SMOOTH",
"106 632 OFFCURVE",
"71 620 OFFCURVE",
"52 602 CURVE",
"76 565 LINE"
);
}
);
width = 600;
},
{
layerId = "291433DC-531A-45CC-B814-57D397372F12";
paths = (
{
closed = 1;
nodes = (
"508 -72 OFFCURVE",
"530 3 OFFCURVE",
"487 63 CURVE",
"386 18 LINE",
"418 14 OFFCURVE",
"418 -14 OFFCURVE",
"384 -41 CURVE SMOOTH",
"368 -54 OFFCURVE",
"337 -55 OFFCURVE",
"315 -37 CURVE",
"317 -136 LINE",
"343 -154 OFFCURVE",
"401 -143 OFFCURVE",
"440 -117 CURVE SMOOTH"
);
},
{
closed = 1;
nodes = (
"75 523 OFFCURVE",
"95 540 OFFCURVE",
"112 540 CURVE SMOOTH",
"123 540 OFFCURVE",
"131 535 OFFCURVE",
"132 525 CURVE SMOOTH",
"137 473 OFFCURVE",
"104 363 OFFCURVE",
"61 233 CURVE SMOOTH",
"9 77 OFFCURVE",
"54 -14 OFFCURVE",
"201 -14 CURVE SMOOTH",
"255 -14 OFFCURVE",
"310 21 OFFCURVE",
"368 90 CURVE",
"365 93 LINE",
"343 37 OFFCURVE",
"390 -14 OFFCURVE",
"453 -14 CURVE SMOOTH",
"500 -14 OFFCURVE",
"555 7 OFFCURVE",
"573 40 CURVE",
"533 114 LINE",
"502 85 OFFCURVE",
"492 78 OFFCURVE",
"481 78 CURVE SMOOTH",
"471 78 OFFCURVE",
"465 83 OFFCURVE",
"462 92 CURVE SMOOTH",
"460 99 OFFCURVE",
"464 105 OFFCURVE",
"464 109 CURVE",
"574 618 LINE",
"475 618 LINE",
"414 322 LINE SMOOTH",
"390 206 OFFCURVE",
"280 78 OFFCURVE",
"212 78 CURVE SMOOTH",
"141 78 OFFCURVE",
"118 125 OFFCURVE",
"153 222 CURVE SMOOTH",
"209 378 OFFCURVE",
"230 499 OFFCURVE",
"228 556 CURVE SMOOTH",
"226 602 OFFCURVE",
"194 632 OFFCURVE",
"140 632 CURVE SMOOTH",
"93 632 OFFCURVE",
"38 611 OFFCURVE",
"20 578 CURVE",
"61 497 LINE"
);
}
);
width = 600;
}
);
unicode = 0446;
},
{
color = 4;
glyphname = "sha-cy";
lastChange = "2020-04-11 17:31:17 +0000";
layers = (
{
layerId = "7C079D0C-96CD-4BD8-8800-0621C7635A78";
paths = (
{
closed = 1;
nodes = (
"64 632 OFFCURVE",
"29 620 OFFCURVE",
"10 602 CURVE",
"34 565 LINE",
"47 578 OFFCURVE",
"65 586 OFFCURVE",
"80 586 CURVE SMOOTH",
"102 586 OFFCURVE",
"117 573 OFFCURVE",
"117 553 CURVE SMOOTH",
"117 499 OFFCURVE",
"85 365 OFFCURVE",
"37 217 CURVE SMOOTH",
"-16 54 OFFCURVE",
"6 -14 OFFCURVE",
"95 -14 CURVE SMOOTH",
"151 -14 OFFCURVE",
"196 23 OFFCURVE",
"232 95 CURVE",
"231 46 OFFCURVE",
"220 -14 OFFCURVE",
"310 -14 CURVE SMOOTH",
"367 -14 OFFCURVE",
"410 39 OFFCURVE",
"426 75 CURVE",
"420 26 OFFCURVE",
"429 -14 OFFCURVE",
"486 -14 CURVE SMOOTH",
"520 -14 OFFCURVE",
"555 -2 OFFCURVE",
"574 16 CURVE",
"550 53 LINE",
"537 40 OFFCURVE",
"514 32 OFFCURVE",
"500 32 CURVE SMOOTH",
"478 32 OFFCURVE",
"467 45 OFFCURVE",
"467 65 CURVE SMOOTH",
"467 70 OFFCURVE",
"468 78 OFFCURVE",
"469 85 CURVE SMOOTH",
"583 618 LINE",
"533 618 LINE",
"470 324 LINE SMOOTH",
"416 72 OFFCURVE",
"385 32 OFFCURVE",
"311 32 CURVE SMOOTH",
"251 32 OFFCURVE",
"267 90 OFFCURVE",
"293 213 CURVE SMOOTH",
"378 618 LINE",
"328 618 LINE",
"266 322 LINE SMOOTH",
"214 72 OFFCURVE",
"174 32 OFFCURVE",
"96 32 CURVE SMOOTH",
"49 32 OFFCURVE",
"46 82 OFFCURVE",
"86 213 CURVE SMOOTH",
"135 373 OFFCURVE",
"169 518 OFFCURVE",
"169 574 CURVE SMOOTH",
"169 609 OFFCURVE",
"141 632 OFFCURVE",
"98 632 CURVE SMOOTH"
);
}
);
width = 600;
},
{
layerId = "291433DC-531A-45CC-B814-57D397372F12";
paths = (
{
closed = 1;
nodes = (
"73 632 OFFCURVE",
"18 611 OFFCURVE",
"0 578 CURVE",
"41 497 LINE",
"55 523 OFFCURVE",
"75 540 OFFCURVE",
"92 540 CURVE SMOOTH",
"103 540 OFFCURVE",
"111 535 OFFCURVE",
"112 525 CURVE SMOOTH",
"117 473 OFFCURVE",
"91 374 OFFCURVE",
"41 234 CURVE SMOOTH",
"-18 69 OFFCURVE",
"9 -14 OFFCURVE",
"117 -14 CURVE SMOOTH",
"163 -14 OFFCURVE",
"182 6 OFFCURVE",
"222 50 CURVE",
"229 20 OFFCURVE",
"245 -14 OFFCURVE",
"317 -14 CURVE SMOOTH",
"346 -14 OFFCURVE",
"367 -1 OFFCURVE",
"401 31 CURVE",
"411 6 OFFCURVE",
"439 -14 OFFCURVE",
"478 -14 CURVE SMOOTH",
"525 -14 OFFCURVE",
"580 7 OFFCURVE",
"598 40 CURVE",
"558 114 LINE",
"527 85 OFFCURVE",
"517 78 OFFCURVE",
"506 78 CURVE SMOOTH",
"496 78 OFFCURVE",
"490 83 OFFCURVE",
"487 92 CURVE SMOOTH",
"485 99 OFFCURVE",
"489 105 OFFCURVE",
"489 109 CURVE",
"599 618 LINE",
"501 618 LINE",
"440 327 LINE SMOOTH",
"395 111 OFFCURVE",
"385 78 OFFCURVE",
"328 78 CURVE SMOOTH",
"295 78 OFFCURVE",
"302 109 OFFCURVE",
"326 226 CURVE SMOOTH",
"409 618 LINE",
"311 618 LINE",
"251 325 LINE SMOOTH",
"212 132 OFFCURVE",
"199 78 OFFCURVE",
"128 78 CURVE SMOOTH",
"102 78 OFFCURVE",
"99 116 OFFCURVE",
"131 223 CURVE SMOOTH",
"182 395 OFFCURVE",
"210 500 OFFCURVE",
"208 556 CURVE SMOOTH",
"206 602 OFFCURVE",
"174 632 OFFCURVE",
"120 632 CURVE SMOOTH"
);
}
);
width = 600;
}
);
unicode = 0448;
},
{
color = 4;
glyphname = "shcha-cy";
lastChange = "2020-04-11 17:32:13 +0000";
layers = (
{
components = (
{
name = "sha-cy";
transform = "{1, 0, 0, 1, 8, 0}";
}
);
layerId = "7C079D0C-96CD-4BD8-8800-0621C7635A78";
paths = (
{
closed = 1;
nodes = (
"527 -74 OFFCURVE",
"551 -21 OFFCURVE",
"531 23 CURVE",
"482 3 LINE",
"491 -20 OFFCURVE",
"478 -46 OFFCURVE",
"450 -69 CURVE SMOOTH",
"435 -81 OFFCURVE",
"411 -86 OFFCURVE",
"391 -83 CURVE",
"392 -131 LINE",
"415 -135 OFFCURVE",
"449 -126 OFFCURVE",
"476 -108 CURVE SMOOTH"
);
}
);
width = 600;
},
{
components = (
{
name = "sha-cy";
transform = "{1, 0, 0, 1, 1, 0}";
}
);
layerId = "291433DC-531A-45CC-B814-57D397372F12";
paths = (
{
closed = 1;
nodes = (
"558 -72 OFFCURVE",
"580 3 OFFCURVE",
"537 63 CURVE",
"436 18 LINE",
"468 14 OFFCURVE",
"468 -14 OFFCURVE",
"434 -41 CURVE SMOOTH",
"418 -54 OFFCURVE",
"387 -55 OFFCURVE",
"365 -37 CURVE",
"367 -136 LINE",
"393 -154 OFFCURVE",
"451 -143 OFFCURVE",
"490 -117 CURVE SMOOTH"
);
}
);
width = 600;
}
);
unicode = 0449;
},
{
color = 4;
glyphname = "dzhe-cy";
lastChange = "2020-04-11 17:39:56 +0000";
layers = (
{
layerId = "7C079D0C-96CD-4BD8-8800-0621C7635A78";
paths = (
{
closed = 1;
nodes = (
"89 578 OFFCURVE",
"107 586 OFFCURVE",
"122 586 CURVE SMOOTH",
"144 586 OFFCURVE",
"159 573 OFFCURVE",
"159 553 CURVE SMOOTH",
"159 499 OFFCURVE",
"127 365 OFFCURVE",
"79 217 CURVE SMOOTH",
"26 54 OFFCURVE",
"78 -14 OFFCURVE",
"201 -14 CURVE SMOOTH",
"278 -14 OFFCURVE",
"348 63 OFFCURVE",
"405 170 CURVE",
"385 78 LINE SMOOTH",
"372 18 OFFCURVE",
"412 -14 OFFCURVE",
"453 -14 CURVE SMOOTH",
"487 -14 OFFCURVE",
"522 -2 OFFCURVE",
"541 16 CURVE",
"517 53 LINE",
"504 40 OFFCURVE",
"485 32 OFFCURVE",
"471 32 CURVE SMOOTH",
"449 32 OFFCURVE",
"434 45 OFFCURVE",
"434 65 CURVE SMOOTH",
"434 70 OFFCURVE",
"435 78 OFFCURVE",
"436 85 CURVE",
"550 618 LINE",
"499 618 LINE",
"438 330 LINE SMOOTH",
"414 216 OFFCURVE",
"301 32 OFFCURVE",
"202 32 CURVE SMOOTH",
"121 32 OFFCURVE",
"89 82 OFFCURVE",
"129 213 CURVE SMOOTH",
"178 373 OFFCURVE",
"211 518 OFFCURVE",
"211 574 CURVE SMOOTH",
"211 609 OFFCURVE",
"183 632 OFFCURVE",
"140 632 CURVE SMOOTH",
"106 632 OFFCURVE",
"71 620 OFFCURVE",
"52 602 CURVE",
"76 565 LINE"
);
},
{
closed = 1;
nodes = (
"237 -41 LINE",
"214 -150 LINE",
"164 -150 LINE",
"187 -41 LINE"
);
}
);
width = 600;
},
{
layerId = "291433DC-531A-45CC-B814-57D397372F12";
paths = (
{
closed = 1;
nodes = (
"75 523 OFFCURVE",
"95 540 OFFCURVE",
"112 540 CURVE SMOOTH",
"123 540 OFFCURVE",
"131 535 OFFCURVE",
"132 525 CURVE SMOOTH",
"137 473 OFFCURVE",
"104 363 OFFCURVE",
"61 233 CURVE SMOOTH",
"9 77 OFFCURVE",
"54 -14 OFFCURVE",
"201 -14 CURVE SMOOTH",
"255 -14 OFFCURVE",
"310 21 OFFCURVE",
"368 90 CURVE",
"365 93 LINE",
"343 37 OFFCURVE",
"390 -14 OFFCURVE",
"453 -14 CURVE SMOOTH",
"500 -14 OFFCURVE",
"555 7 OFFCURVE",
"573 40 CURVE",
"533 114 LINE",
"502 85 OFFCURVE",
"492 78 OFFCURVE",
"481 78 CURVE SMOOTH",
"471 78 OFFCURVE",
"465 83 OFFCURVE",
"462 92 CURVE SMOOTH",
"460 99 OFFCURVE",
"464 105 OFFCURVE",
"464 109 CURVE",
"574 618 LINE",
"475 618 LINE",
"414 322 LINE SMOOTH",
"390 206 OFFCURVE",
"280 78 OFFCURVE",
"212 78 CURVE SMOOTH",
"141 78 OFFCURVE",
"118 125 OFFCURVE",
"153 222 CURVE SMOOTH",
"209 378 OFFCURVE",
"230 499 OFFCURVE",
"228 556 CURVE SMOOTH",
"226 602 OFFCURVE",
"194 632 OFFCURVE",
"140 632 CURVE SMOOTH",
"93 632 OFFCURVE",
"38 611 OFFCURVE",
"20 578 CURVE",
"61 497 LINE"
);
},
{
closed = 1;
nodes = (
"262 -42 LINE",
"233 -177 LINE",
"133 -177 LINE",
"162 -42 LINE"
);
}
);
width = 600;
}
);
unicode = 045F;
},
{
color = 4;
glyphname = "softsign-cy";
lastChange = "2020-01-07 12:25:29 +0000";
layers = (
{
layerId = "7C079D0C-96CD-4BD8-8800-0621C7635A78";
paths = (
{
closed = 1;
nodes = (
"256 0 LINE SMOOTH",
"419 0 OFFCURVE",
"479 44 OFFCURVE",
"510 189 CURVE SMOOTH",
"541 338 OFFCURVE",
"497 386 OFFCURVE",
"334 386 CURVE SMOOTH",
"150 386 LINE",
"141 340 LINE",
"329 340 LINE SMOOTH",
"454 340 OFFCURVE",
"485 307 OFFCURVE",
"461 197 CURVE SMOOTH",
"437 83 OFFCURVE",
"387 46 OFFCURVE",
"262 46 CURVE SMOOTH",
"70 46 LINE",
"94 15 LINE",
"222 618 LINE",
"172 618 LINE",
"40 0 LINE"
);
}
);
width = 600;
},
{
layerId = "291433DC-531A-45CC-B814-57D397372F12";
paths = (
{
closed = 1;
nodes = (
"259 0 LINE SMOOTH",
"441 0 OFFCURVE",
"504 45 OFFCURVE",
"536 198 CURVE SMOOTH",
"571 359 OFFCURVE",
"520 412 OFFCURVE",
"338 412 CURVE SMOOTH",
"131 412 LINE",
"111 320 LINE",
"327 320 LINE SMOOTH",
"433 320 OFFCURVE",
"457 297 OFFCURVE",
"440 214 CURVE SMOOTH",
"420 123 OFFCURVE",
"376 92 OFFCURVE",
"270 92 CURVE SMOOTH",
"63 92 LINE",
"121 19 LINE",
"247 618 LINE",
"147 618 LINE",
"15 0 LINE"
);
}
);
width = 600;
}
);
unicode = 044C;
},
{
color = 4;
glyphname = "hardsign-cy";
lastChange = "2020-04-13 09:18:12 +0000";
layers = (
{
layerId = "7C079D0C-96CD-4BD8-8800-0621C7635A78";
paths = (
{
closed = 1;
nodes = (
"276 0 LINE SMOOTH",
"439 0 OFFCURVE",
"499 44 OFFCURVE",
"530 189 CURVE SMOOTH",
"561 338 OFFCURVE",
"517 386 OFFCURVE",
"354 386 CURVE SMOOTH",
"170 386 LINE",
"161 340 LINE",
"349 340 LINE SMOOTH",
"474 340 OFFCURVE",
"505 307 OFFCURVE",
"481 197 CURVE SMOOTH",
"457 83 OFFCURVE",
"407 46 OFFCURVE",
"282 46 CURVE SMOOTH",
"90 46 LINE",
"114 15 LINE",
"242 618 LINE",
"192 618 LINE",
"60 0 LINE"
);
},
{
closed = 1;
nodes = (
"232 572 LINE",
"242 618 LINE",
"71 618 LINE",
"61 572 LINE"
);
}
);
width = 600;
},
{
layerId = "291433DC-531A-45CC-B814-57D397372F12";
paths = (
{
closed = 1;
nodes = (
"288 0 LINE SMOOTH",
"470 0 OFFCURVE",
"533 45 OFFCURVE",
"565 198 CURVE SMOOTH",
"600 359 OFFCURVE",
"549 412 OFFCURVE",
"367 412 CURVE SMOOTH",
"160 412 LINE",
"140 320 LINE",
"356 320 LINE SMOOTH",
"462 320 OFFCURVE",
"486 297 OFFCURVE",
"469 214 CURVE SMOOTH",
"449 123 OFFCURVE",
"405 92 OFFCURVE",
"299 92 CURVE SMOOTH",
"92 92 LINE",
"150 19 LINE",
"276 618 LINE",
"176 618 LINE",
"44 0 LINE"
);
},
{
closed = 1;
nodes = (
"257 526 LINE",
"277 618 LINE",
"77 618 LINE",
"57 526 LINE"
);
}
);
width = 600;
}
);
unicode = 044A;
},
{
color = 4;
glyphname = "yeru-cy";
lastChange = "2020-01-07 12:25:29 +0000";
layers = (
{
anchors = (
{
name = top;
position = "{366, 618}";
}
);
layerId = "7C079D0C-96CD-4BD8-8800-0621C7635A78";
paths = (
{
closed = 1;
nodes = (
"166 0 LINE SMOOTH",
"314 0 OFFCURVE",
"369 44 OFFCURVE",
"400 189 CURVE SMOOTH",
"431 338 OFFCURVE",
"392 386 OFFCURVE",
"244 386 CURVE SMOOTH",
"99 386 LINE",
"90 340 LINE",
"239 340 LINE SMOOTH",
"349 340 OFFCURVE",
"375 307 OFFCURVE",
"351 197 CURVE SMOOTH",
"327 83 OFFCURVE",
"282 46 OFFCURVE",
"172 46 CURVE SMOOTH",
"19 46 LINE",
"43 15 LINE",
"171 618 LINE",
"121 618 LINE",
"-11 0 LINE"
);
},
{
closed = 1;
nodes = (
"479 0 LINE",
"611 618 LINE",
"561 618 LINE",
"429 0 LINE"
);
}
);
width = 600;
},
{
anchors = (
{
name = top;
position = "{366, 618}";
}
);
layerId = "291433DC-531A-45CC-B814-57D397372F12";
paths = (
{
closed = 1;
nodes = (
"149 0 LINE SMOOTH",
"309 0 OFFCURVE",
"364 45 OFFCURVE",
"396 198 CURVE SMOOTH",
"431 359 OFFCURVE",
"388 412 OFFCURVE",
"228 412 CURVE SMOOTH",
"70 412 LINE",
"50 320 LINE",
"217 320 LINE SMOOTH",
"301 320 OFFCURVE",
"317 297 OFFCURVE",
"300 214 CURVE SMOOTH",
"280 123 OFFCURVE",
"244 92 OFFCURVE",
"160 92 CURVE SMOOTH",
"12 92 LINE",
"60 19 LINE",
"186 618 LINE",
"86 618 LINE",
"-46 0 LINE"
);
},
{
closed = 1;
nodes = (
"514 0 LINE",
"646 618 LINE",
"546 618 LINE",
"414 0 LINE"
);
}
);
width = 600;
}
);
unicode = 044B;
},
